<svg xmlns="http://www.w3.org/2000/svg" viewBox="0 0 400 300" role="img" aria-label="Ilustração de limonada suíça">
<!-- Ilustração original Desu Burguer — não é foto do produto. -->
<defs>
  <radialGradient id="glow" cx="50%" cy="55%" r="55%">
    <stop offset="0" stop-color="#ffb703" stop-opacity=".22"/>
    <stop offset="1" stop-color="#ffb703" stop-opacity="0"/>
  </radialGradient>
</defs>
<rect width="400" height="300" fill="#1d1d1d"/><rect width="400" height="300" fill="url(#glow)"/>
<ellipse cx="200" cy="262" rx="70" ry="13" fill="#000" opacity=".45"/><g transform="translate(200,258)"><rect x="12" y="-232" width="9" height="120" rx="4" fill="#6cc04a" transform="rotate(14 16 -170)"/><path d="M-56,-180 h112 l-14,176 q-1,4 -5,4 h-74 q-4,0 -5,-4z" fill="#ffffff" opacity=".18"/><path d="M-50,-150 h100 l-11,142 q-1,4 -5,4 h-68 q-4,0 -5,-4z" fill="#f3f6d8"/><path d="M-40,-140 l8,124" stroke="#ffffff" stroke-width="6" opacity=".25" stroke-linecap="round"/><circle cx="48" cy="-176" r="24" fill="#7dbb3c"/><circle cx="48" cy="-176" r="18" fill="#d6ee9a"/><path d="M48,-193 v34 M31,-176 h34" stroke="#7dbb3c" stroke-width="2"/></g>
</svg>
