<svg xmlns="http://www.w3.org/2000/svg" viewBox="0 0 400 300" role="img" aria-label="Ilustração de hambúrguer de picanha">
<!-- Ilustração original Desu Burguer — não é foto do produto. -->
<defs>
  <radialGradient id="glow" cx="50%" cy="55%" r="55%">
    <stop offset="0" stop-color="#ffb703" stop-opacity=".22"/>
    <stop offset="1" stop-color="#ffb703" stop-opacity="0"/>
  </radialGradient>
</defs>
<rect width="400" height="300" fill="#1d1d1d"/><rect width="400" height="300" fill="url(#glow)"/>
<ellipse cx="200" cy="262" rx="120" ry="13" fill="#000" opacity=".45"/><g transform="translate(0,4)"><path d="M111.0,210 h178 q6,0 6,8 v8 q0,16 -18,16 h-166 q-18,0 -18,-16 v-8 q0,-8 6,-8z" fill="#5b3220"/><path d="M115.0,232 h170" stroke="#b86f2c" stroke-width="3" stroke-linecap="round" opacity=".5"/><rect x="105.0" y="180" width="190" height="30" rx="15.0" fill="#7a3b2a"/><ellipse cx="125.0" cy="192.0" rx="4" ry="2" fill="#87503a"/><ellipse cx="150.0" cy="198.0" rx="4" ry="2" fill="#87503a"/><ellipse cx="175.0" cy="192.0" rx="4" ry="2" fill="#87503a"/><ellipse cx="200.0" cy="198.0" rx="4" ry="2" fill="#87503a"/><ellipse cx="225.0" cy="192.0" rx="4" ry="2" fill="#87503a"/><ellipse cx="250.0" cy="198.0" rx="4" ry="2" fill="#87503a"/><ellipse cx="275.0" cy="192.0" rx="4" ry="2" fill="#87503a"/><path d="M135.0,186 l14,18" stroke="#3a1d12" stroke-width="4" stroke-linecap="round" opacity=".7"/><path d="M178.3,186 l14,18" stroke="#3a1d12" stroke-width="4" stroke-linecap="round" opacity=".7"/><path d="M221.7,186 l14,18" stroke="#3a1d12" stroke-width="4" stroke-linecap="round" opacity=".7"/><path d="M265.0,186 l14,18" stroke="#3a1d12" stroke-width="4" stroke-linecap="round" opacity=".7"/><rect x="115.0" y="168" width="170" height="12" rx="4" fill="#f4d79a"/><path d="M133.0,170 l10,8" stroke="#c98e3c" stroke-width="3" stroke-linecap="round"/><path d="M166.5,170 l10,8" stroke="#c98e3c" stroke-width="3" stroke-linecap="round"/><path d="M200.0,170 l10,8" stroke="#c98e3c" stroke-width="3" stroke-linecap="round"/><path d="M233.5,170 l10,8" stroke="#c98e3c" stroke-width="3" stroke-linecap="round"/><path d="M267.0,170 l10,8" stroke="#c98e3c" stroke-width="3" stroke-linecap="round"/><rect x="117.0" y="158" width="7" height="6" rx="1.5" fill="#e2483d"/><rect x="128.1" y="160" width="7" height="6" rx="1.5" fill="#6cc04a"/><rect x="139.1" y="162" width="7" height="6" rx="1.5" fill="#fff1d6"/><rect x="150.2" y="158" width="7" height="6" rx="1.5" fill="#e2483d"/><rect x="161.3" y="160" width="7" height="6" rx="1.5" fill="#6cc04a"/><rect x="172.3" y="162" width="7" height="6" rx="1.5" fill="#e2483d"/><rect x="183.4" y="158" width="7" height="6" rx="1.5" fill="#6cc04a"/><rect x="194.5" y="160" width="7" height="6" rx="1.5" fill="#fff1d6"/><rect x="205.5" y="162" width="7" height="6" rx="1.5" fill="#e2483d"/><rect x="216.6" y="158" width="7" height="6" rx="1.5" fill="#6cc04a"/><rect x="227.7" y="160" width="7" height="6" rx="1.5" fill="#e2483d"/><rect x="238.7" y="162" width="7" height="6" rx="1.5" fill="#6cc04a"/><rect x="249.8" y="158" width="7" height="6" rx="1.5" fill="#fff1d6"/><rect x="260.9" y="160" width="7" height="6" rx="1.5" fill="#e2483d"/><rect x="271.9" y="162" width="7" height="6" rx="1.5" fill="#6cc04a"/><rect x="283.0" y="158" width="7" height="6" rx="1.5" fill="#e2483d"/><path d="M105.0,156 q0,-62 95.0,-62 q95.0,0 95.0,62 q0,8 -10,8 h-170 q-10,0 -10,-8z" fill="#5b3220"/><path d="M135.0,126 q20,-24 60,-26" fill="none" stroke="#f2b467" stroke-width="8" stroke-linecap="round" opacity=".7"/><ellipse cx="150" cy="118" rx="5" ry="2.6" fill="#fff1d6" transform="rotate(20 150 118)"/><ellipse cx="180" cy="106" rx="5" ry="2.6" fill="#fff1d6" transform="rotate(-15 180 106)"/><ellipse cx="212" cy="112" rx="5" ry="2.6" fill="#fff1d6" transform="rotate(30 212 112)"/><ellipse cx="244" cy="120" rx="5" ry="2.6" fill="#fff1d6" transform="rotate(-25 244 120)"/><ellipse cx="166" cy="136" rx="5" ry="2.6" fill="#fff1d6" transform="rotate(10 166 136)"/><ellipse cx="230" cy="138" rx="5" ry="2.6" fill="#fff1d6" transform="rotate(-10 230 138)"/><ellipse cx="262" cy="140" rx="5" ry="2.6" fill="#fff1d6" transform="rotate(25 262 140)"/><ellipse cx="138" cy="142" rx="5" ry="2.6" fill="#fff1d6" transform="rotate(-20 138 142)"/><ellipse cx="200" cy="130" rx="5" ry="2.6" fill="#fff1d6" transform="rotate(0 200 130)"/></g>
</svg>
