<svg xmlns="http://www.w3.org/2000/svg" viewBox="0 0 400 300" role="img" aria-label="Ilustração de hambúrguer" xmlns:c2pa="http://c2pa.org/manifest"><metadata><c2pa:manifest>AAAWgmp1bWIAAAAeanVtZGMycGEAEQAQgAAAqgA4m3EDYzJwYQAAABZcanVtYgAAAEdqdW1kYzJtYQARABCAAACqADibcQN1cm46YzJwYTphYzg2MmM4NC03ZTQ0LTQ1YzYtODRlMy0yMTUyZWIyNjMxZjEAAAADl2p1bWIAAAApanVtZGMyYXMAEQAQgAAAqgA4m3EDYzJwYS5hc3NlcnRpb25zAAAAALxqdW1iAAAARGp1bWRjYm9yABEAEIAAAKoAOJtxE2MycGEuaW5ncmVkaWVudC52MwAAAAAYYzJzaMEBEgFIb1Y5UHw0iQmWaTIAAABwY2JvcqNpZGM6Zm9ybWF0bWltYWdlL3N2Zyt4bWxqaW5zdGFuY2VJRHgseG1wOmlpZDpjZjY1OWYyNy0zNGUyLTRlMWQtODMzNi02ODRiYWQxZjVlMjZscmVsYXRpb25zaGlwaHBhcmVudE9mAAAB4mp1bWIAAABBanVtZGNib3IAEQAQgAAAqgA4m3ETYzJwYS5hY3Rpb25zLnYyAAAAABhjMnNoH8AsL/BiH+iia7eQoRFizQAAAZljYm9yomdhY3Rpb25zgqJmYWN0aW9ua2MycGEub3BlbmVkanBhcmFtZXRlcnOha2luZ3JlZGllbnRzgaJjdXJseC1zZWxmI2p1bWJmPWMycGEuYXNzZXJ0aW9ucy9jMnBhLmluZ3JlZGllbnQudjNkaGFzaFggbCEkInlRnngypVV/BWn6adXD1UA/vo/pf2+J17lX5vGkZmFjdGlvbngdY29tLmFudGhyb3BpYy5jbGF1ZGUucHJvdmlkZWRqcGFyYW1ldGVyc6F4H2NvbS5hbnRocm9waWMub3JpZ2luLWNvbmZpZGVuY2VndW5rbm93bmtkZXNjcmlwdGlvbnhmQ2xhdWRlIHByb3ZpZGVkIHRoaXMgZmlsZSBhdCB0aGUgcmVxdWVzdCBvZiBhIHVzZXIgYW5kIG1heSBoYXZlIGNyZWF0ZWQgb3IgbW9kaWZpZWQgdGhlIGZpbGUgY29udGVudHMubXNvZnR3YXJlQWdlbnShZG5hbWVmQ2xhdWRlcmFsbEFjdGlvbnNJbmNsdWRlZPUAAADIanVtYgAAAEBqdW1kY2JvcgARABCAAACqADibcRNjMnBhLmhhc2guZGF0YQAAAAAYYzJzaKaCjneLRFp8Me46vwRCmhkAAACAY2JvcqVjYWxnZnNoYTI1NmNwYWRNAAAAAAAAAAAAAAAAAGRoYXNoWCCwC32TwG5ii9IVEI+UBmc2K42wgj02Qeyj8oPQ65cVD2RuYW1lbmp1bWJmIG1hbmlmZXN0amV4Y2x1c2lvbnOBomVzdGFydBixZmxlbmd0aBkeBAAAAj5qdW1iAAAAJ2p1bWRjMmNsABEAEIAAAKoAOJtxA2MycGEuY2xhaW0udjIAAAACD2Nib3KlY2FsZ2ZzaGEyNTZpc2lnbmF0dXJleE1zZWxmI2p1bWJmPS9jMnBhL3VybjpjMnBhOmFjODYyYzg0LTdlNDQtNDVjNi04NGUzLTIxNTJlYjI2MzFmMS9jMnBhLnNpZ25hdHVyZWppbnN0YW5jZUlEeCx4bXA6aWlkOjU5ZWQ2YzhmLTU1NjAtNDUxOS04OTEyLTUwOWFjYjhkNjJiOHJjcmVhdGVkX2Fzc2VydGlvbnODomN1cmx4LXNlbGYjanVtYmY9YzJwYS5hc3NlcnRpb25zL2MycGEuaW5ncmVkaWVudC52M2RoYXNoWCBsISQieVGeeDKlVX8Fafpp1cPVQD++j+l/b4nXuVfm8aJjdXJseCpzZWxmI2p1bWJmPWMycGEuYXNzZXJ0aW9ucy9jMnBhLmFjdGlvbnMudjJkaGFzaFggT3dhhresRah/e9zPHN0X9qcQjUm/sVgW3NYECXYXeBCiY3VybHgpc2VsZiNqdW1iZj1jMnBhLmFzc2VydGlvbnMvYzJwYS5oYXNoLmRhdGFkaGFzaFggKl8vAVr1RpDn2Buse/fPdJm68FVmfzf+kwdbRi9k6Wp0Y2xhaW1fZ2VuZXJhdG9yX2luZm+jZG5hbWVvQW50aHJvcGljIEZpbGVzZ3ZlcnNpb25lMS4wLjBrc3BlY1ZlcnNpb25lMi40LjAAABA4anVtYgAAAChqdW1kYzJjcwARABCAAACqADibcQNjMnBhLnNpZ25hdHVyZQAAABAIY2JvctKEWQISogEmGCFZAgowggIGMIIBjaADAgECAhRA5aAK7sI50L64g/oGQgU9Z1UTADAKBggqhkjOPQQDAzBJMRcwFQYDVQQKEw5BbnRocm9waWMsIFBCQzEuMCwGA1UEAxMlQW50aHJvcGljIENvbnRlbnQgQ3JlZGVudGlhbHMgUm9vdCBDQTAeFw0yNjA4MDcxODQzNTZaFw0yODA4MDYxOTQzNTZaMEQxFzAVBgNVBAoTDkFudGhyb3BpYywgUEJDMSkwJwYDVQQDEyBBbnRocm9waWMgQ2xhdWRlIENvbnRlbnQgU2lnbmluZzBZMBMGByqGSM49AgEGCCqGSM49AwEHA0IABJh6CmvLUBgFFNU0vUKlOVtE6djd17L5SuwX0LemFisBM3dkd/3cyjxFA3Qo5S46fX0/ihY0VZ7mfb9KF703t5OjWDBWMA4GA1UdDwEB/wQEAwIHgDAVBgNVHSUEDjAMBgorBgEEAYPoXgIBMAwGA1UdEwEB/wQCMAAwHwYDVR0jBBgwFoAUzlHiBIFOZFsj+OPEz5o+nMHXXMIwCgYIKoZIzj0EAwMDZwAwZAIwMXMdFJ4BetLLVY7ORuE9noqbbAZOZn/aArXyTwFAZfKrPzxF2vPoJNf1+UCdg1XGAjBwX1zd9WGqYkqmL5SFqw1QySjr1zJfpJM9+1rdDwSPLMOPOjKuiXjoU/pUUeG9RwmhY3BhZFkNngAAAAAAAAAAAAAAAAAAAAAAAAAAAAAAAAAAAAAAAAAAAAAAAAAAAAAAAAAAAAAAAAAAAAAAAAAAAAAAAAAAAAAAAAAAAAAAAAAAAAAAAAAAAAAAAAAAAAAAAAAAAAAAAAAAAAAAAAAAAAAAAAAAAAAAAAAAAAAAAAAAAAAAAAAAAAAAAAAAAAAAAAAAAAAAAAAAAAAAAAAAAAAAAAAAAAAAAAAAAAAAAAAAAAAAAAAAAAAAAAAAAAAAAAAAAAAAAAAAAAAAAAAAAAAAAAAAAAAAAAAAAAAAAAAAAAAAAAAAAAAAAAAAAAAAAAAAAAAAAAAAAAAAAAAAAAAAAAAAAAAAAAAAAAAAAAAAAAAAAAAAAAAAAAAAAAAAAAAAAAAAAAAAAAAAAAAAAAAAAAAAAAAAAAAAAAAAAAAAAAAAAAAAAAAAAAAAAAAAAAAAAAAAAAAAAAAAAAAAAAAAAAAAAAAAAAAAAAAAAAAAAAAAAAAAAAAAAAAAAAAAAAAAAAAAAAAAAAAAAAAAAAAAAAAAAAAAAAAAAAAAAAAAAAAAAAAAAAAAAAAAAAAAAAAAAAAAAAAAAAAAAAAAAAAAAAAAAAAAAAAAAAAAAAAAAAAAAAAAAAAAAAAAAAAAAAAAAAAAAAAAAAAAAAAAAAAAAAAAAAAAAAAAAAAAAAAAAAAAAAAAAAAAAAAAAAAAAAAAAAAAAAAAAAAAAAAAAAAAAAAAAAAAAAAAAAAAAAAAAAAAAAAAAAAAAAAAAAAAAAAAAAAAAAAAAAAAAAAAAAAAAAAAAAAAAAAAAAAAAAAAAAAAAAAAAAAAAAAAAAAAAAAAAAAAAAAAAAAAAAAAAAAAAAAAAAAAAAAAAAAAAAAAAAAAAAAAAAAAAAAAAAAAAAAAAAAAAAAAAAAAAAAAAAAAAAAAAAAAAAAAAAAAAAAAAAAAAAAAAAAAAAAAAAAAAAAAAAAAAAAAAAAAAAAAAAAAAAAAAAAAAAAAAAAAAAAAAAAAAAAAAAAAAAAAAAAAAAAAAAAAAAAAAAAAAAAAAAAAAAAAAAAAAAAAAAAAAAAAAAAAAAAAAAAAAAAAAAAAAAAAAAAAAAAAAAAAAAAAAAAAAAAAAAAAAAAAAAAAAAAAAAAAAAAAAAAAAAAAAAAAAAAAAAAAAAAAAAAAAAAAAAAAAAAAAAAAAAAAAAAAAAAAAAAAAAAAAAAAAAAAAAAAAAAAAAAAAAAAAAAAAAAAAAAAAAAAAAAAAAAAAAAAAAAAAAAAAAAAAAAAAAAAAAAAAAAAAAAAAAAAAAAAAAAAAAAAAAAAAAAAAAAAAAAAAAAAAAAAAAAAAAAAAAAAAAAAAAAAAAAAAAAAAAAAAAAAAAAAAAAAAAAAAAAAAAAAAAAAAAAAAAAAAAAAAAAAAAAAAAAAAAAAAAAAAAAAAAAAAAAAAAAAAAAAAAAAAAAAAAAAAAAAAAAAAAAAAAAAAAAAAAAAAAAAAAAAAAAAAAAAAAAAAAAAAAAAAAAAAAAAAAAAAAAAAAAAAAAAAAAAAAAAAAAAAAAAAAAAAAAAAAAAAAAAAAAAAAAAAAAAAAAAAAAAAAAAAAAAAAAAAAAAAAAAAAAAAAAAAAAAAAAAAAAAAAAAAAAAAAAAAAAAAAAAAAAAAAAAAAAAAAAAAAAAAAAAAAAAAAAAAAAAAAAAAAAAAAAAAAAAAAAAAAAAAAAAAAAAAAAAAAAAAAAAAAAAAAAAAAAAAAAAAAAAAAAAAAAAAAAAAAAAAAAAAAAAAAAAAAAAAAAAAAAAAAAAAAAAAAAAAAAAAAAAAAAAAAAAAAAAAAAAAAAAAAAAAAAAAAAAAAAAAAAAAAAAAAAAAAAAAAAAAAAAAAAAAAAAAAAAAAAAAAAAAAAAAAAAAAAAAAAAAAAAAAAAAAAAAAAAAAAAAAAAAAAAAAAAAAAAAAAAAAAAAAAAAAAAAAAAAAAAAAAAAAAAAAAAAAAAAAAAAAAAAAAAAAAAAAAAAAAAAAAAAAAAAAAAAAAAAAAAAAAAAAAAAAAAAAAAAAAAAAAAAAAAAAAAAAAAAAAAAAAAAAAAAAAAAAAAAAAAAAAAAAAAAAAAAAAAAAAAAAAAAAAAAAAAAAAAAAAAAAAAAAAAAAAAAAAAAAAAAAAAAAAAAAAAAAAAAAAAAAAAAAAAAAAAAAAAAAAAAAAAAAAAAAAAAAAAAAAAAAAAAAAAAAAAAAAAAAAAAAAAAAAAAAAAAAAAAAAAAAAAAAAAAAAAAAAAAAAAAAAAAAAAAAAAAAAAAAAAAAAAAAAAAAAAAAAAAAAAAAAAAAAAAAAAAAAAAAAAAAAAAAAAAAAAAAAAAAAAAAAAAAAAAAAAAAAAAAAAAAAAAAAAAAAAAAAAAAAAAAAAAAAAAAAAAAAAAAAAAAAAAAAAAAAAAAAAAAAAAAAAAAAAAAAAAAAAAAAAAAAAAAAAAAAAAAAAAAAAAAAAAAAAAAAAAAAAAAAAAAAAAAAAAAAAAAAAAAAAAAAAAAAAAAAAAAAAAAAAAAAAAAAAAAAAAAAAAAAAAAAAAAAAAAAAAAAAAAAAAAAAAAAAAAAAAAAAAAAAAAAAAAAAAAAAAAAAAAAAAAAAAAAAAAAAAAAAAAAAAAAAAAAAAAAAAAAAAAAAAAAAAAAAAAAAAAAAAAAAAAAAAAAAAAAAAAAAAAAAAAAAAAAAAAAAAAAAAAAAAAAAAAAAAAAAAAAAAAAAAAAAAAAAAAAAAAAAAAAAAAAAAAAAAAAAAAAAAAAAAAAAAAAAAAAAAAAAAAAAAAAAAAAAAAAAAAAAAAAAAAAAAAAAAAAAAAAAAAAAAAAAAAAAAAAAAAAAAAAAAAAAAAAAAAAAAAAAAAAAAAAAAAAAAAAAAAAAAAAAAAAAAAAAAAAAAAAAAAAAAAAAAAAAAAAAAAAAAAAAAAAAAAAAAAAAAAAAAAAAAAAAAAAAAAAAAAAAAAAAAAAAAAAAAAAAAAAAAAAAAAAAAAAAAAAAAAAAAAAAAAAAAAAAAAAAAAAAAAAAAAAAAAAAAAAAAAAAAAAAAAAAAAAAAAAAAAAAAAAAAAAAAAAAAAAAAAAAAAAAAAAAAAAAAAAAAAAAAAAAAAAAAAAAAAAAAAAAAAAAAAAAAAAAAAAAAAAAAAAAAAAAAAAAAAAAAAAAAAAAAAAAAAAAAAAAAAAAAAAAAAAAAAAAAAAAAAAAAAAAAAAAAAAAAAAAAAAAAAAAAAAAAAAAAAAAAAAAAAAAAAAAAAAAAAAAAAAAAAAAAAAAAAAAAAAAAAAAAAAAAAAAAAAAAAAAAAAAAAAAAAAAAAAAAAAAAAAAAAAAAAAAAAAAAAAAAAAAAAAAAAAAAAAAAAAAAAAAAAAAAAAAAAAAAAAAAAAAAAAAAAAAAAAAAAAAAAAAAAAAAAAAAAAAAAAAAAAAAAAAAAAAAAAAAAAAAAAAAAAAAAAAAAAAAAAAAAAAAAAAAAAAAAAAAAAAAAAAAAAAAAAAAAAAAAAAAAAAAAAAAAAAAAAAAAAAAAAAAAAAAAAAAAAAAAAAAAAAAAAAAAAAAAAAAAAAAAAAAAAAAAAAAAAAAAAAAAAAAAAAAAAAAAAAAAAAAAAAAAAAAAAAAAAAAAAAAAAAAAAAAAAAAAAAAAAAAAAAAAAAAAAAAAAAAAAAAAAAAAAAAAAAAAAAAAAAAAAAAAAAAAAAAAAAAAAAAAAAAAAAAAAAAAAAAAAAAAAAAAAAAAAAAAAAAAAAAAAAAAAAAAAAAAAAAAAAAAAAAAAAAAAAAAAAAAAAAAAAAAAAAAAAAAAAAAAAAAAAAAAAAAAAAAAAAAAAAAAAAAAAAAAAAAAAAAAAAAAAAAAAAAAAAAAAAAAAAAAAAAAAAAAAAAAAAAAAAAAAAAAAAAAAAAAAAAAAAAAAAAAAAAAAAAAAAAAAAAAAAAAAAAAAAAAAAAAAAAAAAAAAAAAAAAAAAAAAAAAAAAAAAAAAAAAAAAAAAAAAAAAAAAAAAAAAAAAAAAAAAAAAAAAAAAAAAAAAAAAAAAAAAAAAAAAAAAAAAAAAAAAAAAAAAAAAAAAAAAAAAAAAAAAAAAAAAAAAAAAAAAAAAAAAAAAAAAAAAAAAAAAAAAAAAAAAAAAAAAAAAAAAAAAAAAAAAAAAAAAAAAAAAAAAAAAAAAAAAAAAAAAAAAAAAAAAAAAAAAAAAAAAAAAAAAAAAAAAAAAAAAAAAAAAAAAAAAAAAAAAAAAAAAAAAAAAAAAAAAAAAAAAAAAAAAAAAAAAAAAAAAAAAAAAAAAAAAAAAAAAAAAAAAAAAAAAAAAAAAAAAAAAAAAAAAAAAAAAAAAAAAAAAAAAAAAAAAAAAAAAAAAAAAAAAAAAAAAAAAAAAAAAAAAAAAAAAAAAAAAAAAAAAAAAAAAAAAAAAAAAAAAAAAAAAAAAAAAAAAAAAAAAAAAAAAAAAAAAAAAAAAAAAAAAAAAAAAAAAAAAAAAAAAAAAAAAAAAAAAAAAAAAAAAAAAAAAAAAAAAAAAAAAAAAAAAAAAAAAAAAAAAAAAAAAAAAAAAAAAAAAAAAAAAAAAAAAAAAAAAAAAAAAAAAAAAAAAAAAAAAAAAAAAAAAAAAAAAAAAAAAAAAAAAAAAAAAAAAAAAAAAAAAAAAAAAAAAAAAAAAAAAAAAAAAAAAAAAAAAAAAAAAAPZYQIR94iUTyyBp7wsUz8IUxLXutnHkd2WBlFCEg/94rRGJJ/R9RbpxFlxwB2CS2+UcUWXm+0mSsUr0onQcUmhTw+w=</c2pa:manifest></metadata>
<!-- Ilustração original Desu Burguer — desenho, não é foto do produto. -->
<defs><linearGradient id="g1" x1="0" y1="0" x2="0" y2="1"><stop offset="0" stop-color="#f2b468"/><stop offset="0.45" stop-color="#d98a3a"/><stop offset="1" stop-color="#99561f"/></linearGradient><filter id="t2" x="0" y="0" width="100%" height="100%" color-interpolation-filters="sRGB"><feTurbulence type="fractalNoise" baseFrequency="0.7" numOctaves="2" seed="3" result="en"/><feColorMatrix in="en" type="matrix" values="0 0 0 0 0.45 0 0 0 0 0.24 0 0 0 0 0.08 1.9 0 0 0 -1.25" result="ec"/><feComposite in="ec" in2="SourceAlpha" operator="in" result="e"/><feTurbulence type="fractalNoise" baseFrequency="1.1" numOctaves="2" seed="9" result="cn"/><feColorMatrix in="cn" type="matrix" values="0 0 0 0 1 0 0 0 0 0.93 0 0 0 0 0.78 1.8 0 0 0 -1.3" result="cc"/><feComposite in="cc" in2="SourceAlpha" operator="in" result="c"/><feMerge><feMergeNode in="SourceGraphic"/><feMergeNode in="e"/><feMergeNode in="c"/></feMerge></filter><linearGradient id="g3" x1="0" y1="0" x2="0" y2="1"><stop offset="0" stop-color="#000" stop-opacity="0"/><stop offset="0.6" stop-color="#000" stop-opacity="0"/><stop offset="1" stop-color="#000" stop-opacity="0.25"/></linearGradient><linearGradient id="g4" x1="0" y1="0" x2="0" y2="1"><stop offset="0" stop-color="#fae6bb"/><stop offset="1" stop-color="#e9c48a"/></linearGradient><filter id="f5" x="-60%" y="-60%" width="220%" height="220%"><feGaussianBlur stdDeviation="3"/></filter><linearGradient id="g6" x1="0" y1="0" x2="0" y2="1"><stop offset="0" stop-color="#85532f"/><stop offset="0.35" stop-color="#663a1f"/><stop offset="1" stop-color="#3a1f12"/></linearGradient><filter id="t7" x="0" y="0" width="100%" height="100%" color-interpolation-filters="sRGB"><feTurbulence type="fractalNoise" baseFrequency="0.55" numOctaves="2" seed="5" result="en"/><feColorMatrix in="en" type="matrix" values="0 0 0 0 0.1 0 0 0 0 0.04 0 0 0 0 0.02 3 0 0 0 -1.4" result="ec"/><feComposite in="ec" in2="SourceAlpha" operator="in" result="e"/><feTurbulence type="fractalNoise" baseFrequency="1.2" numOctaves="2" seed="11" result="cn"/><feColorMatrix in="cn" type="matrix" values="0 0 0 0 0.92 0 0 0 0 0.62 0 0 0 0 0.45 2.4 0 0 0 -1.6" result="cc"/><feComposite in="cc" in2="SourceAlpha" operator="in" result="c"/><feMerge><feMergeNode in="SourceGraphic"/><feMergeNode in="e"/><feMergeNode in="c"/></feMerge></filter><clipPath id="c8"><path d="M111.24,191.27 C115.1,190.66 119.69,192.06 123.92,192.12 C128.15,192.19 132.37,191.61 136.6,191.64 C140.83,191.66 145.05,192.17 149.28,192.29 C153.51,192.41 157.73,192.6 161.96,192.35 C166.19,192.1 170.41,191.07 174.64,190.78 C178.87,190.5 183.09,190.28 187.32,190.64 C191.55,191 195.77,192.83 200,192.94 C204.23,193.06 208.45,191.61 212.68,191.33 C216.91,191.04 221.13,190.91 225.36,191.26 C229.59,191.6 233.81,193.28 238.04,193.39 C242.27,193.5 246.49,191.99 250.72,191.92 C254.95,191.84 259.17,192.94 263.4,192.94 C267.63,192.94 271.85,192.03 276.08,191.93 C280.31,191.84 284.9,191.75 288.76,192.39 C292.62,193.02 296.62,193.83 299.25,195.74 C301.88,197.65 303.64,201.13 304.52,203.86 C305.4,206.59 305.4,209.41 304.52,212.14 C303.64,214.87 301.88,218.39 299.25,220.26 C296.62,222.12 292.62,222.65 288.76,223.32 C284.9,223.98 280.31,224.03 276.08,224.26 C271.85,224.5 267.63,224.76 263.4,224.72 C259.17,224.68 254.95,224.09 250.72,224.05 C246.49,224 242.27,224.42 238.04,224.47 C233.81,224.52 229.59,224.56 225.36,224.34 C221.13,224.11 216.91,223.12 212.68,223.15 C208.45,223.17 204.23,224.33 200,224.51 C195.77,224.68 191.55,224.33 187.32,224.18 C183.09,224.03 178.87,223.79 174.64,223.61 C170.41,223.43 166.19,222.9 161.96,223.08 C157.73,223.27 153.51,224.57 149.28,224.72 C145.05,224.86 140.83,223.99 136.6,223.95 C132.37,223.9 128.15,224.3 123.92,224.43 C119.69,224.56 115.1,225.44 111.24,224.74 C107.38,224.05 103.38,222.36 100.75,220.26 C98.12,218.16 96.36,214.87 95.48,212.14 C94.6,209.41 94.6,206.59 95.48,203.86 C96.36,201.13 98.12,197.84 100.75,195.74 C103.38,193.64 107.38,191.87 111.24,191.27Z"/></clipPath><linearGradient id="g9" x1="0" y1="0" x2="0" y2="1"><stop offset="0" stop-color="#1e0d05" stop-opacity="0.55"/><stop offset="1" stop-color="#1e0d05" stop-opacity="0"/></linearGradient><linearGradient id="g10" x1="0" y1="0" x2="0" y2="1"><stop offset="0" stop-color="#000" stop-opacity="0"/><stop offset="1" stop-color="#000" stop-opacity="0.4"/></linearGradient><filter id="f11" x="-60%" y="-60%" width="220%" height="220%"><feGaussianBlur stdDeviation="0.8"/></filter><filter id="f12" x="-60%" y="-60%" width="220%" height="220%"><feGaussianBlur stdDeviation="2.2"/></filter><linearGradient id="g13" x1="0" y1="0" x2="0" y2="1"><stop offset="0" stop-color="#ffdc66"/><stop offset="1" stop-color="#f2aa1f"/></linearGradient><filter id="f14" x="-60%" y="-60%" width="220%" height="220%"><feGaussianBlur stdDeviation="0.4"/></filter><linearGradient id="g15" x1="0" y1="0" x2="0" y2="1"><stop offset="0" stop-color="#ff6b56"/><stop offset="0.5" stop-color="#e2382b"/><stop offset="1" stop-color="#a01b14"/></linearGradient><linearGradient id="g16" x1="0" y1="0" x2="0" y2="1"><stop offset="0" stop-color="#4f9a2c"/><stop offset="1" stop-color="#24581a"/></linearGradient><linearGradient id="g17" x1="0" y1="0" x2="0" y2="1"><stop offset="0" stop-color="#8fd052"/><stop offset="0.6" stop-color="#5aa835"/><stop offset="1" stop-color="#357a22"/></linearGradient><linearGradient id="g18" x1="0" y1="0" x2="0" y2="1"><stop offset="0" stop-color="#d3f28e"/><stop offset="0.5" stop-color="#97d453"/><stop offset="1" stop-color="#5aa834"/></linearGradient><clipPath id="c19"><path d="M86,167.18 C90.28,166.34 105.95,165.64 114.5,165.31 C123.05,164.98 134.45,164.75 143,165 C151.55,165.24 162.95,166.68 171.5,166.95 C180.05,167.21 191.45,167.07 200,166.76 C208.55,166.45 219.95,165.04 228.5,164.86 C237.05,164.67 248.45,165.17 257,165.53 C265.55,165.9 276.95,167.17 285.5,167.26 C294.05,167.35 309.73,165.52 314,166.14 C318.27,166.76 316.4,169.53 314,171.37 C311.6,173.2 303.25,178.27 298,178.38 C292.75,178.5 284.7,172.25 279,172.12 C273.3,171.99 265.7,177.68 260,177.53 C254.3,177.38 246.7,171 241,171.11 C235.3,171.23 227.7,178.1 222,178.32 C216.3,178.54 208.7,172.56 203,172.57 C197.3,172.58 189.7,178.31 184,178.4 C178.3,178.49 170.7,173.48 165,173.18 C159.3,172.88 151.7,176.64 146,176.4 C140.3,176.16 132.7,171.64 127,171.58 C121.3,171.52 114.15,176.09 108,176 C101.85,175.9 89.3,172.26 86,170.94 C82.7,169.61 81.72,168.03 86,167.18Z"/></clipPath><radialGradient id="r20" cx="0.36" cy="0.16" r="0.9"><stop offset="0" stop-color="#ffd894"/><stop offset="0.38" stop-color="#eda04b"/><stop offset="0.78" stop-color="#c4732b"/><stop offset="1" stop-color="#8e4a17"/></radialGradient><linearGradient id="g21" x1="0" y1="0" x2="0" y2="1"><stop offset="0" stop-color="#000" stop-opacity="0"/><stop offset="0.7" stop-color="#000" stop-opacity="0"/><stop offset="1" stop-color="#000" stop-opacity="0.3"/></linearGradient><clipPath id="c22"><path d="M89,156 C89,117.79 124.52,88.24 200,88.24 C275.48,88.24 311,117.79 311,156 C311,163 305,166 295,166 H105 C95,166 89,163 89,156 Z"/></clipPath><filter id="f23" x="-60%" y="-60%" width="220%" height="220%"><feGaussianBlur stdDeviation="1.5"/></filter><linearGradient id="g24" x1="0" y1="0" x2="0" y2="1"><stop offset="0" stop-color="#fffaf0"/><stop offset="1" stop-color="#e3c391"/></linearGradient><filter id="f25" x="-60%" y="-60%" width="220%" height="220%"><feGaussianBlur stdDeviation="6"/></filter><filter id="f26" x="-60%" y="-60%" width="220%" height="220%"><feGaussianBlur stdDeviation="1.8"/></filter><linearGradient id="g27" x1="0" y1="0" x2="0" y2="1"><stop offset="0" stop-color="#26201b"/><stop offset="1" stop-color="#110d0a"/></linearGradient><radialGradient id="r28" cx="0.5" cy="0.44" r="0.6"><stop offset="0" stop-color="#ffb703" stop-opacity="0.32"/><stop offset="0.5" stop-color="#ffb703" stop-opacity="0.1"/><stop offset="1" stop-color="#ffb703" stop-opacity="0"/></radialGradient><radialGradient id="r29" cx="0.5" cy="0.5" r="0.5"><stop offset="0" stop-color="#5a4636" stop-opacity="0.55"/><stop offset="0.6" stop-color="#3a2d23" stop-opacity="0.25"/><stop offset="1" stop-color="#3a2d23" stop-opacity="0"/></radialGradient><radialGradient id="r30" cx="0.5" cy="0.5" r="0.72"><stop offset="0.55" stop-color="#000" stop-opacity="0"/><stop offset="1" stop-color="#000" stop-opacity="0.6"/></radialGradient><filter id="f31" x="-60%" y="-60%" width="220%" height="220%"><feGaussianBlur stdDeviation="7"/></filter><filter id="f32" x="-60%" y="-60%" width="220%" height="220%"><feGaussianBlur stdDeviation="2.5"/></filter></defs>
<rect width="400" height="300" fill="url(#g27)"/><rect width="400" height="300" fill="url(#r28)"/><ellipse cx="200" cy="258" rx="230" ry="52" fill="url(#r29)"/><rect width="400" height="300" fill="url(#r30)"/><ellipse cx="200" cy="252" rx="127.01" ry="15" fill="#000" opacity="0.5" filter="url(#f31)"/><ellipse cx="200" cy="251" rx="99.19" ry="5.5" fill="#000" opacity="0.55" filter="url(#f32)"/><path d="M94,227 C94,223.5 97,222 102,222 H298 C303,222 306,223.5 306,227 L308,237 C308,247 299,252 284,252 H116 C101,252 92,247 92,237 Z" fill="url(#g1)" filter="url(#t2)"/><path d="M94,227 C94,223.5 97,222 102,222 H298 C303,222 306,223.5 306,227 L308,237 C308,247 299,252 284,252 H116 C101,252 92,247 92,237 Z" fill="url(#g3)"/><rect x="96" y="222" width="208" height="7" rx="3.5" fill="url(#g4)"/><rect x="100" y="228" width="200" height="2" rx="1" fill="#000" opacity=".12"/><ellipse cx="143.84" cy="239" rx="32.4" ry="3.5" fill="#ffffff" opacity="0.22" filter="url(#f5)"/><rect x="98.48" y="220" width="203.04" height="6" rx="3" fill="#000" opacity="0.38" filter="url(#f12)"/><path d="M111.24,191.27 C115.1,190.66 119.69,192.06 123.92,192.12 C128.15,192.19 132.37,191.61 136.6,191.64 C140.83,191.66 145.05,192.17 149.28,192.29 C153.51,192.41 157.73,192.6 161.96,192.35 C166.19,192.1 170.41,191.07 174.64,190.78 C178.87,190.5 183.09,190.28 187.32,190.64 C191.55,191 195.77,192.83 200,192.94 C204.23,193.06 208.45,191.61 212.68,191.33 C216.91,191.04 221.13,190.91 225.36,191.26 C229.59,191.6 233.81,193.28 238.04,193.39 C242.27,193.5 246.49,191.99 250.72,191.92 C254.95,191.84 259.17,192.94 263.4,192.94 C267.63,192.94 271.85,192.03 276.08,191.93 C280.31,191.84 284.9,191.75 288.76,192.39 C292.62,193.02 296.62,193.83 299.25,195.74 C301.88,197.65 303.64,201.13 304.52,203.86 C305.4,206.59 305.4,209.41 304.52,212.14 C303.64,214.87 301.88,218.39 299.25,220.26 C296.62,222.12 292.62,222.65 288.76,223.32 C284.9,223.98 280.31,224.03 276.08,224.26 C271.85,224.5 267.63,224.76 263.4,224.72 C259.17,224.68 254.95,224.09 250.72,224.05 C246.49,224 242.27,224.42 238.04,224.47 C233.81,224.52 229.59,224.56 225.36,224.34 C221.13,224.11 216.91,223.12 212.68,223.15 C208.45,223.17 204.23,224.33 200,224.51 C195.77,224.68 191.55,224.33 187.32,224.18 C183.09,224.03 178.87,223.79 174.64,223.61 C170.41,223.43 166.19,222.9 161.96,223.08 C157.73,223.27 153.51,224.57 149.28,224.72 C145.05,224.86 140.83,223.99 136.6,223.95 C132.37,223.9 128.15,224.3 123.92,224.43 C119.69,224.56 115.1,225.44 111.24,224.74 C107.38,224.05 103.38,222.36 100.75,220.26 C98.12,218.16 96.36,214.87 95.48,212.14 C94.6,209.41 94.6,206.59 95.48,203.86 C96.36,201.13 98.12,197.84 100.75,195.74 C103.38,193.64 107.38,191.87 111.24,191.27Z" fill="url(#g6)" filter="url(#t7)"/><g clip-path="url(#c8)"><rect x="95.24" y="190" width="209.52" height="12.8" fill="url(#g9)"/><rect x="95.24" y="212.8" width="209.52" height="12.8" fill="url(#g10)"/></g><ellipse cx="150.34" cy="193.36" rx="3.42" ry="1.64" fill="#1f0e06" opacity=".75"/><ellipse cx="223.83" cy="192.16" rx="2.53" ry="1.85" fill="#1f0e06" opacity=".75"/><ellipse cx="154.39" cy="192.59" rx="4.99" ry="1.52" fill="#1f0e06" opacity=".75"/><ellipse cx="263.77" cy="193.19" rx="4.1" ry="1.24" fill="#1f0e06" opacity=".75"/><ellipse cx="225.56" cy="194.17" rx="3.81" ry="1.77" fill="#1f0e06" opacity=".75"/><ellipse cx="232.49" cy="192.16" rx="4.4" ry="1.63" fill="#1f0e06" opacity=".75"/><ellipse cx="162.34" cy="192.08" rx="4.66" ry="1.53" fill="#1f0e06" opacity=".75"/><ellipse cx="241.47" cy="194.2" rx="4.29" ry="1.93" fill="#1f0e06" opacity=".75"/><ellipse cx="180.09" cy="194" rx="3.61" ry="1.94" fill="#1f0e06" opacity=".75"/><ellipse cx="271.8" cy="192.24" rx="2.84" ry="1.3" fill="#1f0e06" opacity=".75"/><ellipse cx="288.22" cy="193.09" rx="4.07" ry="1.37" fill="#1f0e06" opacity=".75"/><ellipse cx="201.26" cy="204.69" rx="4.05" ry="1.25" fill="#ffffff" opacity="0.32" filter="url(#f11)"/><ellipse cx="214.62" cy="208.83" rx="5.05" ry="1.46" fill="#ffffff" opacity="0.32" filter="url(#f11)"/><ellipse cx="261.84" cy="209.53" rx="5.01" ry="1" fill="#ffffff" opacity="0.32" filter="url(#f11)"/><ellipse cx="262.58" cy="209.32" rx="5.71" ry="1.24" fill="#ffffff" opacity="0.32" filter="url(#f11)"/><ellipse cx="237.1" cy="203.29" rx="5.49" ry="1.24" fill="#ffffff" opacity="0.32" filter="url(#f11)"/><rect x="98.48" y="188" width="203.04" height="6" rx="3" fill="#000" opacity="0.38" filter="url(#f12)"/><path d="M86,188 C86.99,187.15 75.85,187.21 92,187 C108.15,186.79 169.4,186.5 200,186.5 C230.6,186.5 291.85,186.79 308,187 C324.15,187.21 313.01,187.15 314,188 C314.99,188.85 315.14,191.16 315,193 C314.86,194.84 314.27,200.86 313,201 C311.73,201.14 317,195.06 306,194 C295,192.94 246.03,192.49 235.36,193.5 C224.69,194.51 231.79,199.47 230.66,201.1 C229.53,202.73 228.29,205 227.36,205 C226.42,205 225.19,202.73 224.06,201.1 C222.93,199.47 228.1,194.58 219.36,193.5 C210.62,192.42 171.14,192.82 162.4,193.5 C153.66,194.18 158.83,197.24 157.7,198.3 C156.57,199.36 155.33,201 154.4,201 C153.46,201 152.23,199.36 151.1,198.3 C149.97,197.24 154.49,194.11 146.4,193.5 C138.31,192.89 102.41,192.65 94,194 C85.59,195.35 88.28,203.14 87,203 C85.72,202.86 85.14,195.12 85,193 C84.86,190.88 85.01,188.85 86,188Z" fill="url(#g13)"/><path d="M90,188.3 H310" stroke="#fff" stroke-opacity=".45" stroke-width="1.4" stroke-linecap="round"/><ellipse cx="152.8" cy="196.5" rx="1.3" ry="1.98" fill="#ffffff" opacity="0.6" filter="url(#f14)"/><ellipse cx="225.76" cy="198.5" rx="1.3" ry="2.86" fill="#ffffff" opacity="0.6" filter="url(#f14)"/><rect x="98.48" y="183" width="203.04" height="6" rx="3" fill="#000" opacity="0.38" filter="url(#f12)"/><rect x="86" y="174" width="84" height="13" rx="6.5" fill="url(#g15)"/><rect x="91" y="178" width="74" height="5" rx="2.5" fill="#ff9682" opacity=".65"/><ellipse cx="96" cy="180.5" rx="3.2" ry="2" fill="#ffd9a3"/><circle cx="96" cy="180.5" r=".9" fill="#c47a2c"/><ellipse cx="117.33" cy="180.5" rx="3.2" ry="2" fill="#ffd9a3"/><circle cx="117.33" cy="180.5" r=".9" fill="#c47a2c"/><ellipse cx="138.67" cy="180.5" rx="3.2" ry="2" fill="#ffd9a3"/><circle cx="138.67" cy="180.5" r=".9" fill="#c47a2c"/><ellipse cx="160" cy="180.5" rx="3.2" ry="2" fill="#ffd9a3"/><circle cx="160" cy="180.5" r=".9" fill="#c47a2c"/><path d="M92,175.5 H164" stroke="#fff" stroke-opacity=".45" stroke-width="1.2" stroke-linecap="round"/><rect x="158" y="175.5" width="84" height="13" rx="6.5" fill="url(#g15)"/><rect x="163" y="179.5" width="74" height="5" rx="2.5" fill="#ff9682" opacity=".65"/><ellipse cx="168" cy="182" rx="3.2" ry="2" fill="#ffd9a3"/><circle cx="168" cy="182" r=".9" fill="#c47a2c"/><ellipse cx="189.33" cy="182" rx="3.2" ry="2" fill="#ffd9a3"/><circle cx="189.33" cy="182" r=".9" fill="#c47a2c"/><ellipse cx="210.67" cy="182" rx="3.2" ry="2" fill="#ffd9a3"/><circle cx="210.67" cy="182" r=".9" fill="#c47a2c"/><ellipse cx="232" cy="182" rx="3.2" ry="2" fill="#ffd9a3"/><circle cx="232" cy="182" r=".9" fill="#c47a2c"/><path d="M164,177 H236" stroke="#fff" stroke-opacity=".45" stroke-width="1.2" stroke-linecap="round"/><rect x="230" y="174" width="84" height="13" rx="6.5" fill="url(#g15)"/><rect x="235" y="178" width="74" height="5" rx="2.5" fill="#ff9682" opacity=".65"/><ellipse cx="240" cy="180.5" rx="3.2" ry="2" fill="#ffd9a3"/><circle cx="240" cy="180.5" r=".9" fill="#c47a2c"/><ellipse cx="261.33" cy="180.5" rx="3.2" ry="2" fill="#ffd9a3"/><circle cx="261.33" cy="180.5" r=".9" fill="#c47a2c"/><ellipse cx="282.67" cy="180.5" rx="3.2" ry="2" fill="#ffd9a3"/><circle cx="282.67" cy="180.5" r=".9" fill="#c47a2c"/><ellipse cx="304" cy="180.5" rx="3.2" ry="2" fill="#ffd9a3"/><circle cx="304" cy="180.5" r=".9" fill="#c47a2c"/><path d="M236,175.5 H308" stroke="#fff" stroke-opacity=".45" stroke-width="1.2" stroke-linecap="round"/><rect x="98.48" y="171" width="203.04" height="6" rx="3" fill="#000" opacity="0.38" filter="url(#f12)"/><path d="M74,164 C78.72,162.91 96.05,165.34 105.5,165.29 C114.95,165.24 127.55,164.04 137,163.67 C146.45,163.29 159.05,162.65 168.5,162.8 C177.95,162.94 190.55,164.31 200,164.64 C209.45,164.98 222.05,165.27 231.5,165.04 C240.95,164.81 253.55,163.37 263,163.09 C272.45,162.81 285.05,162.89 294.5,163.2 C303.95,163.5 321.27,163.44 326,165.12 C330.73,166.79 328.36,171.58 326,174.37 C323.64,177.16 314.98,183.65 310.25,183.73 C305.52,183.8 299.23,174.8 294.5,174.89 C289.77,174.98 283.48,184.35 278.75,184.33 C274.02,184.3 267.73,174.73 263,174.72 C258.27,174.71 251.97,184.59 247.25,184.27 C242.53,183.95 236.22,172.79 231.5,172.59 C226.78,172.38 220.47,182.49 215.75,182.9 C211.03,183.31 204.72,175.25 200,175.33 C195.28,175.41 188.97,183.47 184.25,183.45 C179.53,183.43 173.22,175.44 168.5,175.2 C163.78,174.96 157.47,182.03 152.75,181.84 C148.03,181.65 141.72,173.85 137,173.91 C132.28,173.97 125.97,182.21 121.25,182.24 C116.53,182.27 110.22,173.98 105.5,174.13 C100.78,174.28 94.47,183.46 89.75,183.22 C85.03,182.98 76.36,175.42 74,172.54 C71.64,169.66 69.28,165.09 74,164Z" fill="url(#g16)"/><path d="M79,166.09 C83.54,164.81 100.17,165.91 109.25,165.56 C118.33,165.21 130.43,163.88 139.5,163.76 C148.57,163.64 160.68,164.38 169.75,164.76 C178.82,165.14 190.93,166.28 200,166.3 C209.07,166.32 221.18,165.29 230.25,164.9 C239.32,164.52 251.43,163.65 260.5,163.73 C269.57,163.81 281.68,165.06 290.75,165.43 C299.82,165.79 316.46,165.15 321,166.16 C325.54,167.17 322.54,170.17 321,172.15 C319.46,174.13 314.85,179.02 310.71,179.34 C306.58,179.65 298.61,174.03 293.43,174.25 C288.24,174.47 281.33,181.14 276.14,180.8 C270.96,180.46 264.04,171.96 258.86,171.98 C253.67,171.99 246.76,180.9 241.57,180.89 C236.39,180.88 229.47,172 224.29,171.92 C219.1,171.84 212.19,180.36 207,180.35 C201.81,180.35 194.9,172.16 189.71,171.88 C184.53,171.6 177.61,178.17 172.43,178.51 C167.24,178.84 160.33,174.02 155.14,174.11 C149.96,174.21 143.04,179.42 137.86,179.13 C132.67,178.83 125.76,171.8 120.57,172.15 C115.39,172.49 109.52,181.15 103.29,181.45 C97.05,181.74 82.64,176.42 79,174.12 C75.36,171.81 74.46,167.38 79,166.09Z" fill="url(#g17)"/><path d="M86,167.18 C90.28,166.34 105.95,165.64 114.5,165.31 C123.05,164.98 134.45,164.75 143,165 C151.55,165.24 162.95,166.68 171.5,166.95 C180.05,167.21 191.45,167.07 200,166.76 C208.55,166.45 219.95,165.04 228.5,164.86 C237.05,164.67 248.45,165.17 257,165.53 C265.55,165.9 276.95,167.17 285.5,167.26 C294.05,167.35 309.73,165.52 314,166.14 C318.27,166.76 316.4,169.53 314,171.37 C311.6,173.2 303.25,178.27 298,178.38 C292.75,178.5 284.7,172.25 279,172.12 C273.3,171.99 265.7,177.68 260,177.53 C254.3,177.38 246.7,171 241,171.11 C235.3,171.23 227.7,178.1 222,178.32 C216.3,178.54 208.7,172.56 203,172.57 C197.3,172.58 189.7,178.31 184,178.4 C178.3,178.49 170.7,173.48 165,173.18 C159.3,172.88 151.7,176.64 146,176.4 C140.3,176.16 132.7,171.64 127,171.58 C121.3,171.52 114.15,176.09 108,176 C101.85,175.9 89.3,172.26 86,170.94 C82.7,169.61 81.72,168.03 86,167.18Z" fill="url(#g18)"/><g clip-path="url(#c19)"><path d="M96.52,166 q-1.19,5 1.03,9.01" fill="none" stroke="#f3ffd8" stroke-opacity=".6" stroke-width="1.2" stroke-linecap="round"/><path d="M126.42,166 q-0.97,5 -1.9,12.27" fill="none" stroke="#f3ffd8" stroke-opacity=".6" stroke-width="1.2" stroke-linecap="round"/><path d="M149.85,166 q-1.11,5 -0.19,11.82" fill="none" stroke="#f3ffd8" stroke-opacity=".6" stroke-width="1.2" stroke-linecap="round"/><path d="M171.46,166 q2.85,5 -4.77,12" fill="none" stroke="#f3ffd8" stroke-opacity=".6" stroke-width="1.2" stroke-linecap="round"/><path d="M202.76,166 q-2.89,5 2.88,10.46" fill="none" stroke="#f3ffd8" stroke-opacity=".6" stroke-width="1.2" stroke-linecap="round"/><path d="M225.63,166 q-2.95,5 -4.53,9.72" fill="none" stroke="#f3ffd8" stroke-opacity=".6" stroke-width="1.2" stroke-linecap="round"/><path d="M253.64,166 q-1.82,5 2.56,12.72" fill="none" stroke="#f3ffd8" stroke-opacity=".6" stroke-width="1.2" stroke-linecap="round"/><path d="M278.54,166 q-0.93,5 -1.45,11.1" fill="none" stroke="#f3ffd8" stroke-opacity=".6" stroke-width="1.2" stroke-linecap="round"/><path d="M302.2,166 q-2.35,5 2.48,12.19" fill="none" stroke="#f3ffd8" stroke-opacity=".6" stroke-width="1.2" stroke-linecap="round"/></g><path d="M90,165.8 H310" stroke="#fff" stroke-opacity=".3" stroke-width="1.2"/><rect x="96.32" y="160.5" width="207.36" height="7" rx="3.5" fill="#000" opacity="0.45" filter="url(#f12)"/><path d="M89,156 C89,117.79 124.52,88.24 200,88.24 C275.48,88.24 311,117.79 311,156 C311,163 305,166 295,166 H105 C95,166 89,163 89,156 Z" fill="url(#r20)" filter="url(#t2)"/><path d="M89,156 C89,117.79 124.52,88.24 200,88.24 C275.48,88.24 311,117.79 311,156 C311,163 305,166 295,166 H105 C95,166 89,163 89,156 Z" fill="url(#g21)"/><g clip-path="url(#c22)"><path d="M279.92,93.68 C304.34,108.46 309.5,131.01 309.5,153" fill="none" stroke="#fff" stroke-opacity=".22" stroke-width="4" stroke-linecap="round" filter="url(#f23)"/></g><path d="M98,162 H302 C307,162 307,167 301,167 H99 C93,167 93,162 98,162Z" fill="url(#g4)"/><g transform="translate(223.87,124.97) rotate(29.71)"><ellipse cx=".9" cy="1.4" rx="4.23" ry="2.3" fill="#3a1a06" opacity=".3"/><ellipse rx="4.23" ry="2.3" fill="url(#g24)"/><ellipse cx="-1.27" cy="-.8" rx="1.78" ry=".8" fill="#fff" opacity=".85"/></g><g transform="translate(238.38,141.92) rotate(-13.97)"><ellipse cx=".9" cy="1.4" rx="4.01" ry="2.3" fill="#3a1a06" opacity=".3"/><ellipse rx="4.01" ry="2.3" fill="url(#g24)"/><ellipse cx="-1.2" cy="-.8" rx="1.68" ry=".8" fill="#fff" opacity=".85"/></g><g transform="translate(218.49,136.31) rotate(-26.69)"><ellipse cx=".9" cy="1.4" rx="4.31" ry="2.3" fill="#3a1a06" opacity=".3"/><ellipse rx="4.31" ry="2.3" fill="url(#g24)"/><ellipse cx="-1.29" cy="-.8" rx="1.81" ry=".8" fill="#fff" opacity=".85"/></g><g transform="translate(173.4,132.39) rotate(15.29)"><ellipse cx=".9" cy="1.4" rx="4.19" ry="2.3" fill="#3a1a06" opacity=".3"/><ellipse rx="4.19" ry="2.3" fill="url(#g24)"/><ellipse cx="-1.26" cy="-.8" rx="1.76" ry=".8" fill="#fff" opacity=".85"/></g><g transform="translate(170.82,112.32) rotate(24.51)"><ellipse cx=".9" cy="1.4" rx="4.15" ry="2.3" fill="#3a1a06" opacity=".3"/><ellipse rx="4.15" ry="2.3" fill="url(#g24)"/><ellipse cx="-1.24" cy="-.8" rx="1.74" ry=".8" fill="#fff" opacity=".85"/></g><g transform="translate(195.39,99.5) rotate(15.42)"><ellipse cx=".9" cy="1.4" rx="4.53" ry="2.3" fill="#3a1a06" opacity=".3"/><ellipse rx="4.53" ry="2.3" fill="url(#g24)"/><ellipse cx="-1.36" cy="-.8" rx="1.9" ry=".8" fill="#fff" opacity=".85"/></g><g transform="translate(138.54,127.15) rotate(-47.96)"><ellipse cx=".9" cy="1.4" rx="3.65" ry="2.3" fill="#3a1a06" opacity=".3"/><ellipse rx="3.65" ry="2.3" fill="url(#g24)"/><ellipse cx="-1.1" cy="-.8" rx="1.53" ry=".8" fill="#fff" opacity=".85"/></g><g transform="translate(116.44,139.25) rotate(3.92)"><ellipse cx=".9" cy="1.4" rx="3.31" ry="2.3" fill="#3a1a06" opacity=".3"/><ellipse rx="3.31" ry="2.3" fill="url(#g24)"/><ellipse cx="-0.99" cy="-.8" rx="1.39" ry=".8" fill="#fff" opacity=".85"/></g><g transform="translate(206.23,112.27) rotate(14.9)"><ellipse cx=".9" cy="1.4" rx="4.5" ry="2.3" fill="#3a1a06" opacity=".3"/><ellipse rx="4.5" ry="2.3" fill="url(#g24)"/><ellipse cx="-1.35" cy="-.8" rx="1.89" ry=".8" fill="#fff" opacity=".85"/></g><g transform="translate(278.61,130.45) rotate(49.78)"><ellipse cx=".9" cy="1.4" rx="3.39" ry="2.3" fill="#3a1a06" opacity=".3"/><ellipse rx="3.39" ry="2.3" fill="url(#g24)"/><ellipse cx="-1.02" cy="-.8" rx="1.42" ry=".8" fill="#fff" opacity=".85"/></g><g transform="translate(267.36,143.96) rotate(30.17)"><ellipse cx=".9" cy="1.4" rx="3.56" ry="2.3" fill="#3a1a06" opacity=".3"/><ellipse rx="3.56" ry="2.3" fill="url(#g24)"/><ellipse cx="-1.07" cy="-.8" rx="1.5" ry=".8" fill="#fff" opacity=".85"/></g><g transform="translate(246.48,133.24) rotate(26.35)"><ellipse cx=".9" cy="1.4" rx="3.88" ry="2.3" fill="#3a1a06" opacity=".3"/><ellipse rx="3.88" ry="2.3" fill="url(#g24)"/><ellipse cx="-1.16" cy="-.8" rx="1.63" ry=".8" fill="#fff" opacity=".85"/></g><g transform="translate(159.59,126.58) rotate(16.08)"><ellipse cx=".9" cy="1.4" rx="3.98" ry="2.3" fill="#3a1a06" opacity=".3"/><ellipse rx="3.98" ry="2.3" fill="url(#g24)"/><ellipse cx="-1.19" cy="-.8" rx="1.67" ry=".8" fill="#fff" opacity=".85"/></g><g transform="translate(260.87,130.62) rotate(11.57)"><ellipse cx=".9" cy="1.4" rx="3.66" ry="2.3" fill="#3a1a06" opacity=".3"/><ellipse rx="3.66" ry="2.3" fill="url(#g24)"/><ellipse cx="-1.1" cy="-.8" rx="1.54" ry=".8" fill="#fff" opacity=".85"/></g><g transform="translate(242.51,123.06) rotate(-10.49)"><ellipse cx=".9" cy="1.4" rx="3.94" ry="2.3" fill="#3a1a06" opacity=".3"/><ellipse rx="3.94" ry="2.3" fill="url(#g24)"/><ellipse cx="-1.18" cy="-.8" rx="1.66" ry=".8" fill="#fff" opacity=".85"/></g><g transform="translate(284.66,143.6) rotate(1.32)"><ellipse cx=".9" cy="1.4" rx="3.29" ry="2.3" fill="#3a1a06" opacity=".3"/><ellipse rx="3.29" ry="2.3" fill="url(#g24)"/><ellipse cx="-0.99" cy="-.8" rx="1.38" ry=".8" fill="#fff" opacity=".85"/></g><g transform="translate(120.05,128.98) rotate(-31.88)"><ellipse cx=".9" cy="1.4" rx="3.37" ry="2.3" fill="#3a1a06" opacity=".3"/><ellipse rx="3.37" ry="2.3" fill="url(#g24)"/><ellipse cx="-1.01" cy="-.8" rx="1.41" ry=".8" fill="#fff" opacity=".85"/></g><g transform="translate(155.49,143.35) rotate(8.48)"><ellipse cx=".9" cy="1.4" rx="3.91" ry="2.3" fill="#3a1a06" opacity=".3"/><ellipse rx="3.91" ry="2.3" fill="url(#g24)"/><ellipse cx="-1.17" cy="-.8" rx="1.64" ry=".8" fill="#fff" opacity=".85"/></g><g transform="translate(224.55,109.65) rotate(30.77)"><ellipse cx=".9" cy="1.4" rx="4.22" ry="2.3" fill="#3a1a06" opacity=".3"/><ellipse rx="4.22" ry="2.3" fill="url(#g24)"/><ellipse cx="-1.27" cy="-.8" rx="1.77" ry=".8" fill="#fff" opacity=".85"/></g><g transform="translate(195.46,133.27) rotate(-6.92)"><ellipse cx=".9" cy="1.4" rx="4.53" ry="2.3" fill="#3a1a06" opacity=".3"/><ellipse rx="4.53" ry="2.3" fill="url(#g24)"/><ellipse cx="-1.36" cy="-.8" rx="1.9" ry=".8" fill="#fff" opacity=".85"/></g><g transform="translate(185.87,123.7) rotate(-24.31)"><ellipse cx=".9" cy="1.4" rx="4.38" ry="2.3" fill="#3a1a06" opacity=".3"/><ellipse rx="4.38" ry="2.3" fill="url(#g24)"/><ellipse cx="-1.31" cy="-.8" rx="1.84" ry=".8" fill="#fff" opacity=".85"/></g><g transform="translate(260.84,115.6) rotate(-8.92)"><ellipse cx=".9" cy="1.4" rx="3.66" ry="2.3" fill="#3a1a06" opacity=".3"/><ellipse rx="3.66" ry="2.3" fill="url(#g24)"/><ellipse cx="-1.1" cy="-.8" rx="1.54" ry=".8" fill="#fff" opacity=".85"/></g><g transform="translate(205.07,143.71) rotate(-12.97)"><ellipse cx=".9" cy="1.4" rx="4.52" ry="2.3" fill="#3a1a06" opacity=".3"/><ellipse rx="4.52" ry="2.3" fill="url(#g24)"/><ellipse cx="-1.36" cy="-.8" rx="1.9" ry=".8" fill="#fff" opacity=".85"/></g><g transform="translate(159.5,102.85) rotate(13.25)"><ellipse cx=".9" cy="1.4" rx="3.98" ry="2.3" fill="#3a1a06" opacity=".3"/><ellipse rx="3.98" ry="2.3" fill="url(#g24)"/><ellipse cx="-1.19" cy="-.8" rx="1.67" ry=".8" fill="#fff" opacity=".85"/></g><ellipse cx="155.6" cy="114.68" rx="33.3" ry="10.11" fill="#ffffff" opacity="0.32" filter="url(#f25)" transform="rotate(-20 155.6 114.68)"/><ellipse cx="151.16" cy="111.57" rx="14.43" ry="4.28" fill="#ffffff" opacity="0.42" filter="url(#f26)" transform="rotate(-20 151.16 111.57)"/>
</svg>
