<svg xmlns="http://www.w3.org/2000/svg" viewBox="0 0 400 300" role="img" aria-label="Ilustração de limonada suíça" xmlns:c2pa="http://c2pa.org/manifest"><metadata><c2pa:manifest>AAAWgmp1bWIAAAAeanVtZGMycGEAEQAQgAAAqgA4m3EDYzJwYQAAABZcanVtYgAAAEdqdW1kYzJtYQARABCAAACqADibcQN1cm46YzJwYTpkZWUzNjQwNS01YmJiLTQ4MWMtYjE3ZS00Nzg3NTRiMDM2NDcAAAADl2p1bWIAAAApanVtZGMyYXMAEQAQgAAAqgA4m3EDYzJwYS5hc3NlcnRpb25zAAAAALxqdW1iAAAARGp1bWRjYm9yABEAEIAAAKoAOJtxE2MycGEuaW5ncmVkaWVudC52MwAAAAAYYzJzaLcvYqbPimbnsD2NO42QBN4AAABwY2JvcqNpZGM6Zm9ybWF0bWltYWdlL3N2Zyt4bWxqaW5zdGFuY2VJRHgseG1wOmlpZDpkZmFkMjVmNi01OWFlLTQyOTYtOGVhYy1mNzBkNDhjNjFkYjRscmVsYXRpb25zaGlwaHBhcmVudE9mAAAB4mp1bWIAAABBanVtZGNib3IAEQAQgAAAqgA4m3ETYzJwYS5hY3Rpb25zLnYyAAAAABhjMnNoSmR98y8edvVN2d/MyOUPHwAAAZljYm9yomdhY3Rpb25zgqJmYWN0aW9ua2MycGEub3BlbmVkanBhcmFtZXRlcnOha2luZ3JlZGllbnRzgaJjdXJseC1zZWxmI2p1bWJmPWMycGEuYXNzZXJ0aW9ucy9jMnBhLmluZ3JlZGllbnQudjNkaGFzaFggOLVTu4JPT14Xbf8k5z/Bj8iP9hd1o5F4L6lzYudJcjCkZmFjdGlvbngdY29tLmFudGhyb3BpYy5jbGF1ZGUucHJvdmlkZWRqcGFyYW1ldGVyc6F4H2NvbS5hbnRocm9waWMub3JpZ2luLWNvbmZpZGVuY2VndW5rbm93bmtkZXNjcmlwdGlvbnhmQ2xhdWRlIHByb3ZpZGVkIHRoaXMgZmlsZSBhdCB0aGUgcmVxdWVzdCBvZiBhIHVzZXIgYW5kIG1heSBoYXZlIGNyZWF0ZWQgb3IgbW9kaWZpZWQgdGhlIGZpbGUgY29udGVudHMubXNvZnR3YXJlQWdlbnShZG5hbWVmQ2xhdWRlcmFsbEFjdGlvbnNJbmNsdWRlZPUAAADIanVtYgAAAEBqdW1kY2JvcgARABCAAACqADibcRNjMnBhLmhhc2guZGF0YQAAAAAYYzJzaMxOlVq38Vd6hnRgUbsu2M0AAACAY2JvcqVjYWxnZnNoYTI1NmNwYWRNAAAAAAAAAAAAAAAAAGRoYXNoWCDrU/p2e2IIpuPdSwP98zzL3mblTn3zCD+Pi1kyRp9vHGRuYW1lbmp1bWJmIG1hbmlmZXN0amV4Y2x1c2lvbnOBomVzdGFydBi2Zmxlbmd0aBkeBAAAAj5qdW1iAAAAJ2p1bWRjMmNsABEAEIAAAKoAOJtxA2MycGEuY2xhaW0udjIAAAACD2Nib3KlY2FsZ2ZzaGEyNTZpc2lnbmF0dXJleE1zZWxmI2p1bWJmPS9jMnBhL3VybjpjMnBhOmRlZTM2NDA1LTViYmItNDgxYy1iMTdlLTQ3ODc1NGIwMzY0Ny9jMnBhLnNpZ25hdHVyZWppbnN0YW5jZUlEeCx4bXA6aWlkOjM3MzQ5MDEyLWNhNzQtNGVlNi05ZDQ1LTQwYWNlMWNiMmYwY3JjcmVhdGVkX2Fzc2VydGlvbnODomN1cmx4LXNlbGYjanVtYmY9YzJwYS5hc3NlcnRpb25zL2MycGEuaW5ncmVkaWVudC52M2RoYXNoWCA4tVO7gk9PXhdt/yTnP8GPyI/2F3WjkXgvqXNi50lyMKJjdXJseCpzZWxmI2p1bWJmPWMycGEuYXNzZXJ0aW9ucy9jMnBhLmFjdGlvbnMudjJkaGFzaFgg+xgNmREzr1cO9el0hlydHhf+QeuYICzxjhO+IpNX+aKiY3VybHgpc2VsZiNqdW1iZj1jMnBhLmFzc2VydGlvbnMvYzJwYS5oYXNoLmRhdGFkaGFzaFgg4MP3MOW1cd0VJWOcWsJV2Vj79t/YcHWPqr6gLPygfEd0Y2xhaW1fZ2VuZXJhdG9yX2luZm+jZG5hbWVvQW50aHJvcGljIEZpbGVzZ3ZlcnNpb25lMS4wLjBrc3BlY1ZlcnNpb25lMi40LjAAABA4anVtYgAAAChqdW1kYzJjcwARABCAAACqADibcQNjMnBhLnNpZ25hdHVyZQAAABAIY2JvctKEWQISogEmGCFZAgowggIGMIIBjaADAgECAhRA5aAK7sI50L64g/oGQgU9Z1UTADAKBggqhkjOPQQDAzBJMRcwFQYDVQQKEw5BbnRocm9waWMsIFBCQzEuMCwGA1UEAxMlQW50aHJvcGljIENvbnRlbnQgQ3JlZGVudGlhbHMgUm9vdCBDQTAeFw0yNjA4MDcxODQzNTZaFw0yODA4MDYxOTQzNTZaMEQxFzAVBgNVBAoTDkFudGhyb3BpYywgUEJDMSkwJwYDVQQDEyBBbnRocm9waWMgQ2xhdWRlIENvbnRlbnQgU2lnbmluZzBZMBMGByqGSM49AgEGCCqGSM49AwEHA0IABJh6CmvLUBgFFNU0vUKlOVtE6djd17L5SuwX0LemFisBM3dkd/3cyjxFA3Qo5S46fX0/ihY0VZ7mfb9KF703t5OjWDBWMA4GA1UdDwEB/wQEAwIHgDAVBgNVHSUEDjAMBgorBgEEAYPoXgIBMAwGA1UdEwEB/wQCMAAwHwYDVR0jBBgwFoAUzlHiBIFOZFsj+OPEz5o+nMHXXMIwCgYIKoZIzj0EAwMDZwAwZAIwMXMdFJ4BetLLVY7ORuE9noqbbAZOZn/aArXyTwFAZfKrPzxF2vPoJNf1+UCdg1XGAjBwX1zd9WGqYkqmL5SFqw1QySjr1zJfpJM9+1rdDwSPLMOPOjKuiXjoU/pUUeG9RwmhY3BhZFkNngAAAAAAAAAAAAAAAAAAAAAAAAAAAAAAAAAAAAAAAAAAAAAAAAAAAAAAAAAAAAAAAAAAAAAAAAAAAAAAAAAAAAAAAAAAAAAAAAAAAAAAAAAAAAAAAAAAAAAAAAAAAAAAAAAAAAAAAAAAAAAAAAAAAAAAAAAAAAAAAAAAAAAAAAAAAAAAAAAAAAAAAAAAAAAAAAAAAAAAAAAAAAAAAAAAAAAAAAAAAAAAAAAAAAAAAAAAAAAAAAAAAAAAAAAAAAAAAAAAAAAAAAAAAAAAAAAAAAAAAAAAAAAAAAAAAAAAAAAAAAAAAAAAAAAAAAAAAAAAAAAAAAAAAAAAAAAAAAAAAAAAAAAAAAAAAAAAAAAAAAAAAAAAAAAAAAAAAAAAAAAAAAAAAAAAAAAAAAAAAAAAAAAAAAAAAAAAAAAAAAAAAAAAAAAAAAAAAAAAAAAAAAAAAAAAAAAAAAAAAAAAAAAAAAAAAAAAAAAAAAAAAAAAAAAAAAAAAAAAAAAAAAAAAAAAAAAAAAAAAAAAAAAAAAAAAAAAAAAAAAAAAAAAAAAAAAAAAAAAAAAAAAAAAAAAAAAAAAAAAAAAAAAAAAAAAAAAAAAAAAAAAAAAAAAAAAAAAAAAAAAAAAAAAAAAAAAAAAAAAAAAAAAAAAAAAAAAAAAAAAAAAAAAAAAAAAAAAAAAAAAAAAAAAAAAAAAAAAAAAAAAAAAAAAAAAAAAAAAAAAAAAAAAAAAAAAAAAAAAAAAAAAAAAAAAAAAAAAAAAAAAAAAAAAAAAAAAAAAAAAAAAAAAAAAAAAAAAAAAAAAAAAAAAAAAAAAAAAAAAAAAAAAAAAAAAAAAAAAAAAAAAAAAAAAAAAAAAAAAAAAAAAAAAAAAAAAAAAAAAAAAAAAAAAAAAAAAAAAAAAAAAAAAAAAAAAAAAAAAAAAAAAAAAAAAAAAAAAAAAAAAAAAAAAAAAAAAAAAAAAAAAAAAAAAAAAAAAAAAAAAAAAAAAAAAAAAAAAAAAAAAAAAAAAAAAAAAAAAAAAAAAAAAAAAAAAAAAAAAAAAAAAAAAAAAAAAAAAAAAAAAAAAAAAAAAAAAAAAAAAAAAAAAAAAAAAAAAAAAAAAAAAAAAAAAAAAAAAAAAAAAAAAAAAAAAAAAAAAAAAAAAAAAAAAAAAAAAAAAAAAAAAAAAAAAAAAAAAAAAAAAAAAAAAAAAAAAAAAAAAAAAAAAAAAAAAAAAAAAAAAAAAAAAAAAAAAAAAAAAAAAAAAAAAAAAAAAAAAAAAAAAAAAAAAAAAAAAAAAAAAAAAAAAAAAAAAAAAAAAAAAAAAAAAAAAAAAAAAAAAAAAAAAAAAAAAAAAAAAAAAAAAAAAAAAAAAAAAAAAAAAAAAAAAAAAAAAAAAAAAAAAAAAAAAAAAAAAAAAAAAAAAAAAAAAAAAAAAAAAAAAAAAAAAAAAAAAAAAAAAAAAAAAAAAAAAAAAAAAAAAAAAAAAAAAAAAAAAAAAAAAAAAAAAAAAAAAAAAAAAAAAAAAAAAAAAAAAAAAAAAAAAAAAAAAAAAAAAAAAAAAAAAAAAAAAAAAAAAAAAAAAAAAAAAAAAAAAAAAAAAAAAAAAAAAAAAAAAAAAAAAAAAAAAAAAAAAAAAAAAAAAAAAAAAAAAAAAAAAAAAAAAAAAAAAAAAAAAAAAAAAAAAAAAAAAAAAAAAAAAAAAAAAAAAAAAAAAAAAAAAAAAAAAAAAAAAAAAAAAAAAAAAAAAAAAAAAAAAAAAAAAAAAAAAAAAAAAAAAAAAAAAAAAAAAAAAAAAAAAAAAAAAAAAAAAAAAAAAAAAAAAAAAAAAAAAAAAAAAAAAAAAAAAAAAAAAAAAAAAAAAAAAAAAAAAAAAAAAAAAAAAAAAAAAAAAAAAAAAAAAAAAAAAAAAAAAAAAAAAAAAAAAAAAAAAAAAAAAAAAAAAAAAAAAAAAAAAAAAAAAAAAAAAAAAAAAAAAAAAAAAAAAAAAAAAAAAAAAAAAAAAAAAAAAAAAAAAAAAAAAAAAAAAAAAAAAAAAAAAAAAAAAAAAAAAAAAAAAAAAAAAAAAAAAAAAAAAAAAAAAAAAAAAAAAAAAAAAAAAAAAAAAAAAAAAAAAAAAAAAAAAAAAAAAAAAAAAAAAAAAAAAAAAAAAAAAAAAAAAAAAAAAAAAAAAAAAAAAAAAAAAAAAAAAAAAAAAAAAAAAAAAAAAAAAAAAAAAAAAAAAAAAAAAAAAAAAAAAAAAAAAAAAAAAAAAAAAAAAAAAAAAAAAAAAAAAAAAAAAAAAAAAAAAAAAAAAAAAAAAAAAAAAAAAAAAAAAAAAAAAAAAAAAAAAAAAAAAAAAAAAAAAAAAAAAAAAAAAAAAAAAAAAAAAAAAAAAAAAAAAAAAAAAAAAAAAAAAAAAAAAAAAAAAAAAAAAAAAAAAAAAAAAAAAAAAAAAAAAAAAAAAAAAAAAAAAAAAAAAAAAAAAAAAAAAAAAAAAAAAAAAAAAAAAAAAAAAAAAAAAAAAAAAAAAAAAAAAAAAAAAAAAAAAAAAAAAAAAAAAAAAAAAAAAAAAAAAAAAAAAAAAAAAAAAAAAAAAAAAAAAAAAAAAAAAAAAAAAAAAAAAAAAAAAAAAAAAAAAAAAAAAAAAAAAAAAAAAAAAAAAAAAAAAAAAAAAAAAAAAAAAAAAAAAAAAAAAAAAAAAAAAAAAAAAAAAAAAAAAAAAAAAAAAAAAAAAAAAAAAAAAAAAAAAAAAAAAAAAAAAAAAAAAAAAAAAAAAAAAAAAAAAAAAAAAAAAAAAAAAAAAAAAAAAAAAAAAAAAAAAAAAAAAAAAAAAAAAAAAAAAAAAAAAAAAAAAAAAAAAAAAAAAAAAAAAAAAAAAAAAAAAAAAAAAAAAAAAAAAAAAAAAAAAAAAAAAAAAAAAAAAAAAAAAAAAAAAAAAAAAAAAAAAAAAAAAAAAAAAAAAAAAAAAAAAAAAAAAAAAAAAAAAAAAAAAAAAAAAAAAAAAAAAAAAAAAAAAAAAAAAAAAAAAAAAAAAAAAAAAAAAAAAAAAAAAAAAAAAAAAAAAAAAAAAAAAAAAAAAAAAAAAAAAAAAAAAAAAAAAAAAAAAAAAAAAAAAAAAAAAAAAAAAAAAAAAAAAAAAAAAAAAAAAAAAAAAAAAAAAAAAAAAAAAAAAAAAAAAAAAAAAAAAAAAAAAAAAAAAAAAAAAAAAAAAAAAAAAAAAAAAAAAAAAAAAAAAAAAAAAAAAAAAAAAAAAAAAAAAAAAAAAAAAAAAAAAAAAAAAAAAAAAAAAAAAAAAAAAAAAAAAAAAAAAAAAAAAAAAAAAAAAAAAAAAAAAAAAAAAAAAAAAAAAAAAAAAAAAAAAAAAAAAAAAAAAAAAAAAAAAAAAAAAAAAAAAAAAAAAAAAAAAAAAAAAAAAAAAAAAAAAAAAAAAAAAAAAAAAAAAAAAAAAAAAAAAAAAAAAAAAAAAAAAAAAAAAAAAAAAAAAAAAAAAAAAAAAAAAAAAAAAAAAAAAAAAAAAAAAAAAAAAAAAAAAAAAAAAAAAAAAAAAAAAAAAAAAAAAAAAAAAAAAAAAAAAAAAAAAAAAAAAAAAAAAAAAAAAAAAAAAAAAAAAAAAAAAAAAAAAAAAAAAAAAAAAAAAAAAAAAAAAAAAAAAAAAAAAAAAAAAAAAAAAAAAAAAAAAAAAAAAAAAAAAAAAAAAAAAAAAAAAAAAAAAAAAAAAAAAAAAAAAAAAAAAAAAAAAAAAAAAAAAAAAAAAAAAAAAAAAAAAAAAAAAAAAAAAAAAAAAAAAAAAAAAAAAAAAAAAAAAAAAAAAAAAAAAAAAAAAAAAAAAAAAAAAAAAAAAAAAAAAAAAAAAAAAAAAAAAAAAAAAAAAAAAAAAAAAAAAAAAAAAAAAAAAAAAAAAAAAAAAAAAAAAAAAAAAAAAAAAAAAAAAAAAAAAAAAAAAAAAAAAAAAAAAAAAAAAAAAAAAAAAAAAAAAAAAAAAAAAAAAAAAAAAAAAAAAAAAAAAAAAAAAAAAAAAAAAAAAAAAAAAAAAAAAAAAAAAAAAAAAAAAAAAAAAAAAAAAAAAAAAAAAAAAAAAAAAAAAAAAAAAAAAAAAAAAAAAAAAAAAAAAAAAAAAAAAAAAAAAAAAAAAAAAAAAAAAAAAAAAAAAAAAAAAAAAAAAAAAAAAAAAAAAAAAAAAAAAAAAAAAAAAAAAAAAAAAAAAAAAAAAAAAAAAAAAAAAAAAAAAAAAAAAAAAAAAAAAAAAAAAAAAAAAAAAAAAAAAAAAAAAAAAAAAAAAAAAAAAAAAAAAAAAAAAAAAAAAAAAAAAAAAAAAAAAAAAAAAAAAAAAAAAAAAAAAAAAAAAAAAAAAAAAAAAAAAAAAAAAAAAAAAAAAAAAAAAAAAAAAAAAAAAAAAAAAAAAAAAAAAAAAAAAAAAAAAAAAAAAAAAAAAAAAAAAAAAAAAAAAAAAAAAAAAAAAAAAAAAAAAAAAAAAAAAAAAAAAAAAAAAAAAAAAAAAAAAAAAAAAAAAAAAAAAAAAAAAAAAAAAAAAAAAAAAAAAAAAAAAAAAAAAAAAAAAAAAAAAAAAAAAAAAAAAAAAAAAAAAAAAAAAAAAAAAAAAAAAAAAAAAAAAAAAAAAAAAAAAAAAAAAAAAAAAAAAAAAAAAAAAAAAAAAAAAAAAAAAAAAAAAAAAAAAAAAAAAAAAAAAPZYQHGxVYJ8qnVL41bLY6duWqxlHn0DM+CCAdQuzXnUBwnvax2FOfLBxUUxC3sbt+BPHzJwioIKmoWFBZucTqPPzg0=</c2pa:manifest></metadata>
<!-- Ilustração original Desu Burguer — desenho, não é foto do produto. -->
<defs><linearGradient id="g1" x1="0" y1="0" x2="0" y2="1"><stop offset="0" stop-color="#26201b"/><stop offset="1" stop-color="#110d0a"/></linearGradient><radialGradient id="r2" cx="0.5" cy="0.44" r="0.6"><stop offset="0" stop-color="#d9f07a" stop-opacity="0.32"/><stop offset="0.5" stop-color="#d9f07a" stop-opacity="0.1"/><stop offset="1" stop-color="#d9f07a" stop-opacity="0"/></radialGradient><radialGradient id="r3" cx="0.5" cy="0.5" r="0.5"><stop offset="0" stop-color="#5a4636" stop-opacity="0.55"/><stop offset="0.6" stop-color="#3a2d23" stop-opacity="0.25"/><stop offset="1" stop-color="#3a2d23" stop-opacity="0"/></radialGradient><radialGradient id="r4" cx="0.5" cy="0.5" r="0.72"><stop offset="0.55" stop-color="#000" stop-opacity="0"/><stop offset="1" stop-color="#000" stop-opacity="0.6"/></radialGradient><filter id="f5" x="-60%" y="-60%" width="220%" height="220%"><feGaussianBlur stdDeviation="7"/></filter><filter id="f6" x="-60%" y="-60%" width="220%" height="220%"><feGaussianBlur stdDeviation="2.5"/></filter><filter id="f7" x="-60%" y="-60%" width="220%" height="220%"><feGaussianBlur stdDeviation="3"/></filter><clipPath id="c8"><path d="M-56,-166 L-44,-6.6 A44 6.6 0 0 0 44,-6.6 L56,-166 A56 8.4 0 0 0 -56,-166Z"/></clipPath><linearGradient id="g9" x1="0" y1="0" x2="1" y2="0"><stop offset="0" stop-color="#9fb562"/><stop offset="0.08" stop-color="#d5e3a2"/><stop offset="0.24" stop-color="#f4f8de"/><stop offset="0.5" stop-color="#e9f1c6"/><stop offset="0.8" stop-color="#cddd94"/><stop offset="0.92" stop-color="#eef5cf"/><stop offset="1" stop-color="#8ea552"/></linearGradient><linearGradient id="g10" x1="0" y1="0" x2="0" y2="1"><stop offset="0" stop-color="#fff" stop-opacity="0.1"/><stop offset="0.3" stop-color="#000" stop-opacity="0"/><stop offset="1" stop-color="#000" stop-opacity="0.3"/></linearGradient><radialGradient id="r11" cx="0.42" cy="0.38" r="0.6"><stop offset="0" stop-color="#ffffff"/><stop offset="0.6" stop-color="#f7faea"/><stop offset="1" stop-color="#e3ecc0"/></radialGradient><clipPath id="c12"><path d="M-90,-400 H90 V-142 H-90Z"/></clipPath><clipPath id="c13"><path d="M-3.7,0 V-194 H3.7 V0Z"/></clipPath><linearGradient id="g14" x1="0" y1="0" x2="1" y2="0"><stop offset="0" stop-color="#000" stop-opacity="0.35"/><stop offset="0.25" stop-color="#fff" stop-opacity="0.45"/><stop offset="0.4" stop-color="#fff" stop-opacity="0.1"/><stop offset="0.75" stop-color="#000" stop-opacity="0.12"/><stop offset="1" stop-color="#000" stop-opacity="0.4"/></linearGradient><linearGradient id="g15" x1="0" y1="0" x2="0" y2="1"><stop offset="0" stop-color="#ffffff" stop-opacity="0.95"/><stop offset="1" stop-color="#f3f7df" stop-opacity="0.85"/></linearGradient><linearGradient id="g16" x1="0" y1="0" x2="1" y2="1"><stop offset="0" stop-color="#2f6e17"/><stop offset="1" stop-color="#000"/></linearGradient><radialGradient id="r17" cx="0.38" cy="0.35" r="0.5"><stop offset="0" stop-color="#8fd14f"/><stop offset="0.7" stop-color="#4f9e2a"/><stop offset="1" stop-color="#2c6714"/></radialGradient><radialGradient id="r18" cx="0.42" cy="0.4" r="0.5"><stop offset="0" stop-color="#e4f5a6"/><stop offset="0.6" stop-color="#bfe36a"/><stop offset="1" stop-color="#93c63e"/></radialGradient><radialGradient id="r19" cx="0.5" cy="0.5" r="0.5"><stop offset="0" stop-color="#fff" stop-opacity="0"/><stop offset="0.75" stop-color="#fff" stop-opacity="0"/><stop offset="1" stop-color="#000" stop-opacity="0.25"/></radialGradient><filter id="f20" x="-60%" y="-60%" width="220%" height="220%"><feGaussianBlur stdDeviation="1.2"/></filter><linearGradient id="g21" x1="0" y1="0" x2="1" y2="0"><stop offset="0" stop-color="#fff" stop-opacity="0.34"/><stop offset="0.04" stop-color="#fff" stop-opacity="0.1"/><stop offset="0.14" stop-color="#fff" stop-opacity="0.02"/><stop offset="0.5" stop-color="#fff" stop-opacity="0.01"/><stop offset="0.86" stop-color="#fff" stop-opacity="0.03"/><stop offset="0.96" stop-color="#fff" stop-opacity="0.12"/><stop offset="1" stop-color="#fff" stop-opacity="0.38"/></linearGradient><linearGradient id="g22" x1="0" y1="0" x2="0" y2="1"><stop offset="0" stop-color="#fff" stop-opacity="0.25"/><stop offset="0.5" stop-color="#000" stop-opacity="0.2"/><stop offset="1" stop-color="#fff" stop-opacity="0.15"/></linearGradient><filter id="f23" x="-60%" y="-60%" width="220%" height="220%"><feGaussianBlur stdDeviation="0.8"/></filter><filter id="f24" x="-60%" y="-60%" width="220%" height="220%"><feGaussianBlur stdDeviation="2.2"/></filter><filter id="f25" x="-60%" y="-60%" width="220%" height="220%"><feGaussianBlur stdDeviation="0.45"/></filter><filter id="f26" x="-60%" y="-60%" width="220%" height="220%"><feGaussianBlur stdDeviation="0.5"/></filter><filter id="f27" x="-60%" y="-60%" width="220%" height="220%"><feGaussianBlur stdDeviation="0.9"/></filter><filter id="f28" x="-60%" y="-60%" width="220%" height="220%"><feGaussianBlur stdDeviation="0.6"/></filter><linearGradient id="g29" x1="0" y1="0" x2="0" y2="1"><stop offset="0" stop-color="#eaf6ff" stop-opacity="0.03"/><stop offset="1" stop-color="#eaf6ff" stop-opacity="0.1"/></linearGradient><radialGradient id="r30" cx="0.45" cy="0.4" r="0.5"><stop offset="0" stop-color="#fff" stop-opacity="0.02"/><stop offset="0.55" stop-color="#fff" stop-opacity="0.1"/><stop offset="0.85" stop-color="#000" stop-opacity="0.18"/><stop offset="1" stop-color="#000" stop-opacity="0.4"/></radialGradient><linearGradient id="g31" x1="0" y1="0" x2="1" y2="0"><stop offset="0" stop-color="#fff" stop-opacity="0.3"/><stop offset="0.3" stop-color="#fff" stop-opacity="0.95"/><stop offset="0.75" stop-color="#fff" stop-opacity="0.5"/><stop offset="1" stop-color="#fff" stop-opacity="0.8"/></linearGradient></defs>
<rect width="400" height="300" fill="url(#g1)"/><rect width="400" height="300" fill="url(#r2)"/><ellipse cx="200" cy="258" rx="230" ry="52" fill="url(#r3)"/><rect width="400" height="300" fill="url(#r4)"/><ellipse cx="204" cy="251" rx="65.1" ry="12" fill="#000" opacity="0.5" filter="url(#f5)"/><ellipse cx="204" cy="250" rx="50.84" ry="4.4" fill="#000" opacity="0.55" filter="url(#f6)"/><ellipse cx="212" cy="255" rx="37.2" ry="4.5" fill="#d8eb9a" opacity=".3" filter="url(#f7)"/><g transform="translate(204,252)"><path d="M-56,-166 L-44,-6.6 A44 6.6 0 0 0 44,-6.6 L56,-166 A56 8.4 0 0 0 -56,-166Z" fill="#fff" opacity=".04"/><path d="M-56,-166 A56 8.4 0 0 1 56,-166" fill="none" stroke="#fff" stroke-opacity=".35" stroke-width="1"/><g><path d="M-51.07,-142 L-41.81,-14 A41.81 6.27 0 0 0 41.81,-14 L51.07,-142 A51.07 7.66 0 0 0 -51.07,-142Z" fill="url(#g9)"/><path d="M-51.07,-142 L-41.81,-14 A41.81 6.27 0 0 0 41.81,-14 L51.07,-142 A51.07 7.66 0 0 0 -51.07,-142Z" fill="url(#g10)"/></g><g fill="#6e9a2c" opacity=".45"><ellipse cx="11.74" cy="-79.9" rx="0.9" ry="0.34"/><ellipse cx="-10.1" cy="-132.76" rx="0.66" ry="0.54"/><ellipse cx="7.27" cy="-55.27" rx="0.83" ry="0.5"/><ellipse cx="-4.73" cy="-117.44" rx="0.6" ry="0.57"/><ellipse cx="25.51" cy="-127.29" rx="0.54" ry="0.51"/><ellipse cx="-7.28" cy="-95.58" rx="1.01" ry="0.31"/><ellipse cx="33.19" cy="-127.07" rx="0.81" ry="0.33"/><ellipse cx="30.27" cy="-21.47" rx="0.57" ry="0.43"/><ellipse cx="-14.81" cy="-118.6" rx="0.87" ry="0.35"/><ellipse cx="-32.12" cy="-54.56" rx="0.6" ry="0.54"/><ellipse cx="-6.13" cy="-88.34" rx="0.86" ry="0.44"/><ellipse cx="-35.55" cy="-90.16" rx="0.94" ry="0.59"/><ellipse cx="11.11" cy="-22.7" rx="0.71" ry="0.41"/><ellipse cx="12.46" cy="-55.33" rx="0.57" ry="0.37"/><ellipse cx="0.86" cy="-92.58" rx="0.99" ry="0.45"/><ellipse cx="25.94" cy="-130.79" rx="0.76" ry="0.46"/><ellipse cx="-5.66" cy="-108.67" rx="0.73" ry="0.53"/><ellipse cx="3.97" cy="-122.3" rx="0.61" ry="0.51"/><ellipse cx="-17.94" cy="-129.8" rx="0.71" ry="0.49"/><ellipse cx="-3.26" cy="-128.07" rx="0.63" ry="0.38"/><ellipse cx="34.18" cy="-79.71" rx="0.79" ry="0.59"/><ellipse cx="33.33" cy="-114.9" rx="0.72" ry="0.36"/><ellipse cx="29.22" cy="-48.67" rx="0.5" ry="0.38"/><ellipse cx="-11.17" cy="-46.14" rx="0.64" ry="0.3"/><ellipse cx="9.56" cy="-129.44" rx="1.09" ry="0.6"/><ellipse cx="-35.3" cy="-76.59" rx="0.69" ry="0.54"/><ellipse cx="9.73" cy="-39.16" rx="0.64" ry="0.46"/><ellipse cx="9.46" cy="-79.58" rx="0.66" ry="0.58"/><ellipse cx="-23.31" cy="-32.05" rx="0.67" ry="0.56"/><ellipse cx="34.23" cy="-102.27" rx="0.81" ry="0.51"/><ellipse cx="-20.44" cy="-53.66" rx="0.67" ry="0.38"/><ellipse cx="13.93" cy="-56.1" rx="0.58" ry="0.57"/><ellipse cx="-19.47" cy="-86.08" rx="0.76" ry="0.59"/><ellipse cx="9.16" cy="-70.17" rx="1.05" ry="0.59"/></g><ellipse cx="0" cy="-142" rx="51.07" ry="7.66" fill="url(#r11)"/><path d="M-51.07,-142 A51.07 7.66 0 0 0 51.07,-142" fill="none" stroke="#ffffff" stroke-opacity=".75" stroke-width="1.3"/><path d="M-51.07,-142 A51.07 7.66 0 0 1 51.07,-142" fill="none" stroke="#000" stroke-opacity=".18" stroke-width="1"/><g clip-path="url(#c12)"><g transform="translate(16,-20) rotate(12)"><path d="M-3.7,0 V-194 H3.7 V0Z" fill="#ffffff"/><g clip-path="url(#c13)" fill="#7cc242"><path d="M-7.4,0 l14.8,-8.88 v-6.79 l-14.8,8.88Z"/><path d="M-7.4,-16.17 l14.8,-8.88 v-6.79 l-14.8,8.88Z"/><path d="M-7.4,-32.33 l14.8,-8.88 v-6.79 l-14.8,8.88Z"/><path d="M-7.4,-48.5 l14.8,-8.88 v-6.79 l-14.8,8.88Z"/><path d="M-7.4,-64.67 l14.8,-8.88 v-6.79 l-14.8,8.88Z"/><path d="M-7.4,-80.83 l14.8,-8.88 v-6.79 l-14.8,8.88Z"/><path d="M-7.4,-97 l14.8,-8.88 v-6.79 l-14.8,8.88Z"/><path d="M-7.4,-113.17 l14.8,-8.88 v-6.79 l-14.8,8.88Z"/><path d="M-7.4,-129.33 l14.8,-8.88 v-6.79 l-14.8,8.88Z"/><path d="M-7.4,-145.5 l14.8,-8.88 v-6.79 l-14.8,8.88Z"/><path d="M-7.4,-161.67 l14.8,-8.88 v-6.79 l-14.8,8.88Z"/><path d="M-7.4,-177.83 l14.8,-8.88 v-6.79 l-14.8,8.88Z"/><path d="M-7.4,-194 l14.8,-8.88 v-6.79 l-14.8,8.88Z"/></g><path d="M-3.7,0 V-194 H3.7 V0Z" fill="url(#g14)"/><ellipse cx="0" cy="-194" rx="3.7" ry="1.48" fill="#3a3a3a"/><path d="M-3.7,-194 A3.7 1.48 0 0 0 3.7,-194" fill="none" stroke="#ffffff" stroke-width=".9"/></g></g><path d="M-51.07,-142 A51.07 7.66 0 0 0 51.07,-142 L50.49,-134.62 L49.22,-131.23 L45.49,-129.54 L39.47,-128.94 L31.48,-129.05 L21.91,-128.04 L11.23,-127.16 L0,-126.57 L-11.23,-126.27 L-21.91,-126.05 L-31.48,-128.3 L-39.47,-129.97 L-45.49,-130.48 L-49.22,-133.01 L-50.49,-134.81Z" fill="url(#g15)"/><g fill="none" stroke="#c9d88f" stroke-opacity=".6" stroke-width=".6"><circle cx="-17.62" cy="-141.37" r="0.87"/><circle cx="0.21" cy="-142.03" r="1.3"/><circle cx="3.15" cy="-142.35" r="1.37"/><circle cx="-1.47" cy="-142.2" r="1.15"/><circle cx="-6.32" cy="-145.15" r="1.57"/><circle cx="6.36" cy="-140.55" r="0.83"/><circle cx="-44.78" cy="-142.26" r="1.41"/><circle cx="2.82" cy="-144.76" r="1.6"/><circle cx="11.34" cy="-140.74" r="1.51"/><circle cx="-3.11" cy="-145.03" r="0.81"/><circle cx="-1.07" cy="-140.48" r="1.04"/><circle cx="3.53" cy="-143.35" r="1.76"/><circle cx="1.93" cy="-142.27" r="1.15"/><circle cx="-1.14" cy="-141.99" r="1.21"/><circle cx="4.52" cy="-142.45" r="1.42"/><circle cx="20.32" cy="-139.09" r="1.77"/><circle cx="0.12" cy="-141.94" r="0.8"/><circle cx="-0.82" cy="-142.03" r="0.8"/><circle cx="-44.67" cy="-141.86" r="1.2"/><circle cx="-24.85" cy="-139.22" r="0.81"/><circle cx="-7.34" cy="-142.6" r="1.43"/><circle cx="2.54" cy="-142.1" r="1.37"/><circle cx="-5.68" cy="-142.67" r="1.02"/><circle cx="48.39" cy="-142.23" r="0.85"/><circle cx="-12.74" cy="-148.65" r="0.98"/><circle cx="-1.6" cy="-142.2" r="1.14"/><circle cx="-13.14" cy="-145.82" r="1.63"/><circle cx="14.4" cy="-140.69" r="1.74"/><circle cx="-18.9" cy="-143.66" r="1.18"/><circle cx="27.76" cy="-142.37" r="0.72"/><circle cx="4.87" cy="-144.28" r="1.22"/><circle cx="4.91" cy="-138.85" r="1.09"/><circle cx="25.91" cy="-139.57" r="0.82"/><circle cx="0.26" cy="-142.18" r="1.64"/><circle cx="8.54" cy="-145.38" r="1.55"/><circle cx="0.39" cy="-136.63" r="1.21"/><circle cx="5.58" cy="-135.03" r="1.18"/><circle cx="-29.12" cy="-137.52" r="1.14"/><circle cx="-4.11" cy="-143.08" r="1.71"/><circle cx="-0.14" cy="-141.63" r="1.87"/></g><g transform="rotate(-8 -45 -169)"><circle cx="-43.39" cy="-168.31" r="23" fill="url(#g16)"/><circle cx="-45" cy="-169" r="23" fill="url(#r17)"/><circle cx="-45" cy="-169" r="20.24" fill="#eff8d2"/><circle cx="-45" cy="-169" r="18.4" fill="url(#r18)"/><path d="M-45,-169 L-26.97,-165.34 M-45,-169 L-33.54,-154.61 M-45,-169 L-45.47,-150.61 M-45,-169 L-57.18,-155.21 M-45,-169 L-63.2,-166.27 M-45,-169 L-60.7,-178.6 M-45,-169 L-50.85,-186.44 M-45,-169 L-38.27,-186.12 M-45,-169 L-28.84,-177.79 " stroke="#eff8d2" stroke-width="1.61" stroke-linecap="round" opacity=".95"/><g fill="#d6f08c" opacity=".9"><ellipse cx="-35.29" cy="-163.75" rx="2.07" ry="0.81" transform="rotate(28.4 -35.29 -163.75)"/><ellipse cx="-39.43" cy="-163.95" rx="2.07" ry="0.81" transform="rotate(42.2 -39.43 -163.95)"/><ellipse cx="-38.4" cy="-156.64" rx="2.07" ry="0.81" transform="rotate(61.9 -38.4 -156.64)"/><ellipse cx="-44.04" cy="-161.66" rx="2.07" ry="0.81" transform="rotate(82.56 -44.04 -161.66)"/><ellipse cx="-48.88" cy="-161.74" rx="2.07" ry="0.81" transform="rotate(118.14 -48.88 -161.74)"/><ellipse cx="-52.54" cy="-158.22" rx="2.07" ry="0.81" transform="rotate(124.97 -52.54 -158.22)"/><ellipse cx="-56.23" cy="-161.77" rx="2.07" ry="0.81" transform="rotate(147.24 -56.23 -161.77)"/><ellipse cx="-58.03" cy="-168.1" rx="2.07" ry="0.81" transform="rotate(176.05 -58.03 -168.1)"/><ellipse cx="-52.29" cy="-171.09" rx="2.07" ry="0.81" transform="rotate(195.98 -52.29 -171.09)"/><ellipse cx="-53.4" cy="-175.62" rx="2.07" ry="0.81" transform="rotate(218.25 -53.4 -175.62)"/><ellipse cx="-50.84" cy="-177.9" rx="2.07" ry="0.81" transform="rotate(236.7 -50.84 -177.9)"/><ellipse cx="-47.36" cy="-179.34" rx="2.07" ry="0.81" transform="rotate(257.16 -47.36 -179.34)"/><ellipse cx="-45.93" cy="-176.59" rx="2.07" ry="0.81" transform="rotate(263.04 -45.93 -176.59)"/><ellipse cx="-40.13" cy="-177.99" rx="2.07" ry="0.81" transform="rotate(298.41 -40.13 -177.99)"/><ellipse cx="-38.96" cy="-176.47" rx="2.07" ry="0.81" transform="rotate(308.95 -38.96 -176.47)"/><ellipse cx="-37.42" cy="-173.68" rx="2.07" ry="0.81" transform="rotate(328.31 -37.42 -173.68)"/><ellipse cx="-38.1" cy="-171.24" rx="2.07" ry="0.81" transform="rotate(342.02 -38.1 -171.24)"/><ellipse cx="-31.64" cy="-164.88" rx="2.07" ry="0.81" transform="rotate(377.15 -31.64 -164.88)"/></g><circle cx="-45" cy="-169" r="2.3" fill="#eff8d2"/><circle cx="-45" cy="-169" r="23" fill="url(#r19)"/><ellipse cx="-53.05" cy="-177.74" rx="6.9" ry="3.22" fill="#ffffff" opacity="0.55" filter="url(#f20)" transform="rotate(-35 -53.05 -177.74)"/><circle cx="-54.66" cy="-173.6" r="1.15" fill="#fff" opacity=".9"/></g><g clip-path="url(#c8)"><path d="M-56,-166 L-44,-6.6 A44 6.6 0 0 0 44,-6.6 L56,-166 A56 8.4 0 0 0 -56,-166Z" fill="url(#g21)"/><path d="M-45.01,-14 L-44,-6.6 A44 6.6 0 0 0 44,-6.6 L45.01,-14 H41.81 A41.81 6.27 0 0 1 -41.81,-14Z" fill="url(#g9)" opacity="0.55"/><path d="M-45.01,-14 L-44,-6.6 A44 6.6 0 0 0 44,-6.6 L45.01,-14 H41.81 A41.81 6.27 0 0 1 -41.81,-14Z" fill="url(#g22)"/><path d="M-41.81,-14 A41.81 6.27 0 0 0 41.81,-14" fill="none" stroke="#fff" stroke-opacity=".55" stroke-width="1"/><path d="M-42.5,-9.1 A42.5 6.6 0 0 0 42.5,-9.1" fill="none" stroke="#fff" stroke-opacity=".3" stroke-width="2.2" filter="url(#f23)"/><path d="M-43.23,-158 L-41.91,-134.67 L-40.6,-111.33 L-39.28,-88 L-37.97,-64.67 L-36.65,-41.33 L-35.33,-18 L-27.18,-18 L-28.19,-41.33 L-29.2,-64.67 L-30.22,-88 L-31.23,-111.33 L-32.24,-134.67 L-33.25,-158Z" fill="#fff" opacity=".2" filter="url(#f24)"/><path d="M-47.79,-160 L-46.29,-136 L-44.8,-112 L-43.31,-88 L-41.82,-64 L-40.33,-40 L-38.83,-16 L-37.03,-16 L-38.45,-40 L-39.87,-64 L-41.3,-88 L-42.72,-112 L-44.14,-136 L-45.56,-160Z" fill="#fff" opacity=".85" filter="url(#f25)"/><path d="M-27.49,-152 L-27.25,-145.33 L-27.01,-138.67 L-26.77,-132 L-26.53,-125.33 L-26.29,-118.67 L-26.05,-112 L-24.49,-112 L-24.71,-118.67 L-24.94,-125.33 L-25.16,-132 L-25.39,-138.67 L-25.62,-145.33 L-25.84,-152Z" fill="#fff" opacity=".35" filter="url(#f26)"/><path d="M45.33,-156 L43.92,-132.33 L42.52,-108.67 L41.12,-85 L39.72,-61.33 L38.31,-37.67 L36.91,-14 L40.51,-14 L42.05,-37.67 L43.59,-61.33 L45.13,-85 L46.67,-108.67 L48.21,-132.33 L49.75,-156Z" fill="#ffe9c2" opacity=".45" filter="url(#f27)"/><path d="M34,-150 L33.05,-128.67 L32.09,-107.33 L31.13,-86 L30.18,-64.67 L29.22,-43.33 L28.27,-22 L29.63,-22 L30.64,-43.33 L31.64,-64.67 L32.64,-86 L33.64,-107.33 L34.65,-128.67 L35.65,-150Z" fill="#fff" opacity=".18" filter="url(#f28)"/><path d="M-56,-138 H56 V0 H-56Z" fill="url(#g29)"/><g fill="url(#r30)"><circle cx="28.17" cy="-74.41" r="1.37"/><circle cx="-17.86" cy="-22.66" r="1.53"/><circle cx="17.97" cy="-45.6" r="1.64"/><circle cx="-34.94" cy="-57.96" r="1.58"/><circle cx="-11.55" cy="-132.82" r="1.46"/><circle cx="-21.86" cy="-47.93" r="2.34"/><circle cx="-16.83" cy="-76.81" r="1.98"/><circle cx="38.6" cy="-36.13" r="1.09"/><circle cx="46.73" cy="-88.61" r="1.24"/><circle cx="30.99" cy="-128.66" r="1.02"/><circle cx="-30.1" cy="-32.71" r="1.32"/><circle cx="5.24" cy="-52.74" r="0.75"/><circle cx="-24.64" cy="-23.29" r="1.97"/><circle cx="35.02" cy="-72.28" r="1.67"/><circle cx="-17.17" cy="-60.62" r="1.42"/><circle cx="43.46" cy="-126.34" r="2.22"/><circle cx="45.96" cy="-80.06" r="1.26"/><circle cx="30.56" cy="-119.29" r="1.68"/><circle cx="25.03" cy="-129.9" r="2.28"/><circle cx="43.42" cy="-94.15" r="1.64"/><circle cx="25.84" cy="-91.77" r="1.74"/><circle cx="-22.54" cy="-33.6" r="1.33"/><circle cx="41.76" cy="-70.3" r="2.4"/><circle cx="27.47" cy="-104.47" r="1.98"/><circle cx="10.09" cy="-113.26" r="1.22"/><circle cx="4.88" cy="-70.45" r="1.3"/><circle cx="15.55" cy="-120.72" r="1.71"/><circle cx="-15.5" cy="-27.85" r="1.58"/><circle cx="-20.68" cy="-67.76" r="1.59"/><circle cx="-3.11" cy="-94.94" r="1.03"/><circle cx="12.75" cy="-103.84" r="1.68"/><circle cx="-41.07" cy="-28.62" r="1.9"/><circle cx="16.96" cy="-69.43" r="2"/><circle cx="7.65" cy="-22.74" r="1.46"/><circle cx="-28.58" cy="-89.79" r="1.46"/><circle cx="-33.57" cy="-106.33" r="1.56"/><circle cx="-28.29" cy="-122.97" r="1.61"/><circle cx="3.21" cy="-36.64" r="1.51"/><circle cx="-39.32" cy="-40.33" r="0.72"/><circle cx="-34.79" cy="-26.74" r="1.15"/><circle cx="29.79" cy="-45.03" r="2.38"/><circle cx="-8.64" cy="-58.42" r="2.1"/><circle cx="-41.04" cy="-127.15" r="1.49"/><circle cx="-23.25" cy="-60.89" r="1.98"/><circle cx="-19.97" cy="-116.72" r="1.06"/><circle cx="-1.17" cy="-50.47" r="1.15"/></g><g fill="none" stroke="#fff" stroke-opacity=".45" stroke-linecap="round"><path d="M27.48,-73.79 Q28.17,-73.24 28.92,-74" stroke-width="0.38"/><path d="M-18.62,-21.97 Q-17.86,-21.36 -17.02,-22.2" stroke-width="0.43"/><path d="M17.14,-44.86 Q17.97,-44.2 18.87,-45.11" stroke-width="0.46"/><path d="M-35.73,-57.25 Q-34.94,-56.62 -34.08,-57.48" stroke-width="0.44"/><path d="M-12.28,-132.17 Q-11.55,-131.58 -10.75,-132.38" stroke-width="0.41"/><path d="M-23.03,-46.87 Q-21.86,-45.93 -20.57,-47.22" stroke-width="0.66"/><path d="M-17.82,-75.92 Q-16.83,-75.13 -15.74,-76.22" stroke-width="0.55"/><path d="M-30.76,-32.12 Q-30.1,-31.59 -29.38,-32.32" stroke-width="0.37"/><path d="M-25.62,-22.4 Q-24.64,-21.62 -23.56,-22.7" stroke-width="0.55"/><path d="M34.18,-71.53 Q35.02,-70.87 35.93,-71.78" stroke-width="0.47"/><path d="M-17.88,-59.99 Q-17.17,-59.42 -16.39,-60.2" stroke-width="0.4"/><path d="M42.35,-125.34 Q43.46,-124.45 44.68,-125.67" stroke-width="0.62"/><path d="M29.72,-118.53 Q30.56,-117.86 31.48,-118.79" stroke-width="0.47"/><path d="M23.89,-128.88 Q25.03,-127.96 26.28,-129.22" stroke-width="0.64"/><path d="M42.6,-93.41 Q43.42,-92.75 44.33,-93.66" stroke-width="0.46"/><path d="M24.97,-90.99 Q25.84,-90.29 26.8,-91.25" stroke-width="0.49"/><path d="M-23.21,-33 Q-22.54,-32.47 -21.81,-33.2" stroke-width="0.37"/><path d="M40.56,-69.22 Q41.76,-68.26 43.07,-69.58" stroke-width="0.67"/><path d="M26.48,-103.58 Q27.47,-102.78 28.56,-103.88" stroke-width="0.56"/><path d="M4.23,-69.86 Q4.88,-69.34 5.6,-70.05" stroke-width="0.37"/><path d="M14.7,-119.95 Q15.55,-119.27 16.49,-120.21" stroke-width="0.48"/><path d="M-16.29,-27.14 Q-15.5,-26.51 -14.63,-27.38" stroke-width="0.44"/><path d="M-21.48,-67.04 Q-20.68,-66.4 -19.81,-67.28" stroke-width="0.45"/><path d="M11.91,-103.09 Q12.75,-102.42 13.67,-103.34" stroke-width="0.47"/><path d="M-42.02,-27.76 Q-41.07,-27 -40.03,-28.05" stroke-width="0.53"/><path d="M15.96,-68.53 Q16.96,-67.73 18.06,-68.83" stroke-width="0.56"/><path d="M6.92,-22.08 Q7.65,-21.5 8.46,-22.3" stroke-width="0.41"/><path d="M-29.31,-89.14 Q-28.58,-88.56 -27.78,-89.36" stroke-width="0.41"/><path d="M-34.35,-105.63 Q-33.57,-105.01 -32.71,-105.87" stroke-width="0.44"/><path d="M-29.1,-122.25 Q-28.29,-121.6 -27.41,-122.49" stroke-width="0.45"/><path d="M2.45,-35.96 Q3.21,-35.36 4.04,-36.19" stroke-width="0.42"/><path d="M28.6,-43.96 Q29.79,-43 31.1,-44.31" stroke-width="0.67"/><path d="M-9.69,-57.47 Q-8.64,-56.63 -7.48,-57.79" stroke-width="0.59"/><path d="M-41.79,-126.48 Q-41.04,-125.88 -40.22,-126.7" stroke-width="0.42"/><path d="M-24.24,-60 Q-23.25,-59.21 -22.17,-60.3" stroke-width="0.55"/></g><g fill="#fff" opacity=".9"><circle cx="27.69" cy="-74.93" r="0.41"/><circle cx="-18.39" cy="-23.24" r="0.46"/><circle cx="17.39" cy="-46.22" r="0.49"/><circle cx="-35.49" cy="-58.56" r="0.47"/><circle cx="-12.06" cy="-133.37" r="0.44"/><circle cx="-22.68" cy="-48.82" r="0.7"/><circle cx="-17.52" cy="-77.56" r="0.59"/><circle cx="38.22" cy="-36.55" r="0.35"/><circle cx="46.3" cy="-89.08" r="0.37"/><circle cx="30.63" cy="-129.05" r="0.35"/><circle cx="-30.57" cy="-33.21" r="0.4"/><circle cx="4.98" cy="-53.03" r="0.35"/><circle cx="-25.33" cy="-24.03" r="0.59"/><circle cx="34.43" cy="-72.92" r="0.5"/><circle cx="-17.67" cy="-61.16" r="0.43"/><circle cx="42.69" cy="-127.18" r="0.67"/><circle cx="45.52" cy="-80.53" r="0.38"/><circle cx="29.97" cy="-119.93" r="0.51"/><circle cx="24.23" cy="-130.77" r="0.68"/><circle cx="42.85" cy="-94.78" r="0.49"/><circle cx="25.23" cy="-92.43" r="0.52"/><circle cx="-23.01" cy="-34.1" r="0.4"/><circle cx="40.92" cy="-71.21" r="0.72"/><circle cx="26.77" cy="-105.22" r="0.59"/><circle cx="9.66" cy="-113.72" r="0.36"/><circle cx="4.43" cy="-70.94" r="0.39"/><circle cx="14.95" cy="-121.37" r="0.51"/><circle cx="-16.05" cy="-28.45" r="0.47"/><circle cx="-21.24" cy="-68.36" r="0.48"/><circle cx="-3.47" cy="-95.33" r="0.35"/><circle cx="12.16" cy="-104.48" r="0.5"/><circle cx="-41.74" cy="-29.34" r="0.57"/><circle cx="16.26" cy="-70.19" r="0.6"/><circle cx="7.14" cy="-23.3" r="0.44"/><circle cx="-29.09" cy="-90.35" r="0.44"/><circle cx="-34.12" cy="-106.92" r="0.47"/><circle cx="-28.86" cy="-123.58" r="0.48"/><circle cx="2.68" cy="-37.21" r="0.45"/><circle cx="-39.57" cy="-40.6" r="0.35"/><circle cx="-35.19" cy="-27.17" r="0.35"/><circle cx="28.96" cy="-45.93" r="0.71"/><circle cx="-9.38" cy="-59.22" r="0.63"/><circle cx="-41.57" cy="-127.72" r="0.45"/><circle cx="-23.95" cy="-61.64" r="0.59"/><circle cx="-20.34" cy="-117.12" r="0.35"/><circle cx="-1.57" cy="-50.9" r="0.35"/></g><path d="M7.65,-22.74 q-0.97,9 -1.16,18.01" fill="none" stroke="#fff" stroke-opacity=".22" stroke-width="1.8" stroke-linecap="round"/><circle cx="7.65" cy="-4.74" r="1.9" fill="url(#r30)"/><circle cx="7.05" cy="-5.44" r=".6" fill="#fff" opacity=".9"/><path d="M-1.17,-50.47 q0.22,10.44 1.48,20.87" fill="none" stroke="#fff" stroke-opacity=".22" stroke-width="1.8" stroke-linecap="round"/><circle cx="-1.17" cy="-29.59" r="1.9" fill="url(#r30)"/><circle cx="-1.77" cy="-30.29" r=".6" fill="#fff" opacity=".9"/><path d="M-16.83,-76.81 q0.64,9.67 1.46,19.34" fill="none" stroke="#fff" stroke-opacity=".22" stroke-width="1.8" stroke-linecap="round"/><circle cx="-16.83" cy="-57.47" r="1.9" fill="url(#r30)"/><circle cx="-17.43" cy="-58.17" r=".6" fill="#fff" opacity=".9"/></g><ellipse cx="0" cy="-166" rx="56" ry="8.4" fill="none" stroke="#fff" stroke-opacity=".45" stroke-width="1.2"/><ellipse cx="0" cy="-165.2" rx="52.8" ry="7.92" fill="none" stroke="#fff" stroke-opacity=".18" stroke-width=".8"/><path d="M-56,-166 A56 8.4 0 0 0 56,-166" fill="none" stroke="url(#g31)" stroke-width="1.5"/><ellipse cx="-30.8" cy="-160.12" rx="12.32" ry="1.2" fill="#ffffff" opacity="0.8" filter="url(#f28)"/><path d="M-56,-166 L-44,-6.6 A44 6.6 0 0 0 44,-6.6 L56,-166 A56 8.4 0 0 0 -56,-166Z" fill="none" stroke="#fff" stroke-opacity=".14" stroke-width=".8"/></g>
</svg>
