<svg xmlns="http://www.w3.org/2000/svg" viewBox="0 0 400 300" role="img" aria-label="Ilustração de hambúrguer com cebola crispy" xmlns:c2pa="http://c2pa.org/manifest"><metadata><c2pa:manifest>AAAWgmp1bWIAAAAeanVtZGMycGEAEQAQgAAAqgA4m3EDYzJwYQAAABZcanVtYgAAAEdqdW1kYzJtYQARABCAAACqADibcQN1cm46YzJwYTo3MDAzNjNjNy0wYzQ3LTRhZTItOGIxZC00N2UzNWVlNzA2MGIAAAADl2p1bWIAAAApanVtZGMyYXMAEQAQgAAAqgA4m3EDYzJwYS5hc3NlcnRpb25zAAAAALxqdW1iAAAARGp1bWRjYm9yABEAEIAAAKoAOJtxE2MycGEuaW5ncmVkaWVudC52MwAAAAAYYzJzaAb2+NT+C3bpx8NMUNn3AFUAAABwY2JvcqNpZGM6Zm9ybWF0bWltYWdlL3N2Zyt4bWxqaW5zdGFuY2VJRHgseG1wOmlpZDo1YmM3ZDkyZS1kNTE1LTRiNTItODY0OC05NmFjNjhmYjFiZGNscmVsYXRpb25zaGlwaHBhcmVudE9mAAAB4mp1bWIAAABBanVtZGNib3IAEQAQgAAAqgA4m3ETYzJwYS5hY3Rpb25zLnYyAAAAABhjMnNorOTtNXTY1QkMbO6HTGNGygAAAZljYm9yomdhY3Rpb25zgqJmYWN0aW9ua2MycGEub3BlbmVkanBhcmFtZXRlcnOha2luZ3JlZGllbnRzgaJjdXJseC1zZWxmI2p1bWJmPWMycGEuYXNzZXJ0aW9ucy9jMnBhLmluZ3JlZGllbnQudjNkaGFzaFggMi/06HHKy8DrZ0wFd62PgYeYoIowqeTgk9Isk4ZT75qkZmFjdGlvbngdY29tLmFudGhyb3BpYy5jbGF1ZGUucHJvdmlkZWRqcGFyYW1ldGVyc6F4H2NvbS5hbnRocm9waWMub3JpZ2luLWNvbmZpZGVuY2VndW5rbm93bmtkZXNjcmlwdGlvbnhmQ2xhdWRlIHByb3ZpZGVkIHRoaXMgZmlsZSBhdCB0aGUgcmVxdWVzdCBvZiBhIHVzZXIgYW5kIG1heSBoYXZlIGNyZWF0ZWQgb3IgbW9kaWZpZWQgdGhlIGZpbGUgY29udGVudHMubXNvZnR3YXJlQWdlbnShZG5hbWVmQ2xhdWRlcmFsbEFjdGlvbnNJbmNsdWRlZPUAAADIanVtYgAAAEBqdW1kY2JvcgARABCAAACqADibcRNjMnBhLmhhc2guZGF0YQAAAAAYYzJzaC9EaJK7Fs+e+apq8mK1bEIAAACAY2JvcqVjYWxnZnNoYTI1NmNwYWRNAAAAAAAAAAAAAAAAAGRoYXNoWCB548iBHd3YN3Pn5n0s+E34pnnfdGP8oGDL77JhE+JYo2RuYW1lbmp1bWJmIG1hbmlmZXN0amV4Y2x1c2lvbnOBomVzdGFydBjDZmxlbmd0aBkeBAAAAj5qdW1iAAAAJ2p1bWRjMmNsABEAEIAAAKoAOJtxA2MycGEuY2xhaW0udjIAAAACD2Nib3KlY2FsZ2ZzaGEyNTZpc2lnbmF0dXJleE1zZWxmI2p1bWJmPS9jMnBhL3VybjpjMnBhOjcwMDM2M2M3LTBjNDctNGFlMi04YjFkLTQ3ZTM1ZWU3MDYwYi9jMnBhLnNpZ25hdHVyZWppbnN0YW5jZUlEeCx4bXA6aWlkOmNjNmVjZjUxLTNjMDYtNGU3Yi04MTRlLTEwNDBjYmRiYWEyZHJjcmVhdGVkX2Fzc2VydGlvbnODomN1cmx4LXNlbGYjanVtYmY9YzJwYS5hc3NlcnRpb25zL2MycGEuaW5ncmVkaWVudC52M2RoYXNoWCAyL/ToccrLwOtnTAV3rY+Bh5igijCp5OCT0iyThlPvmqJjdXJseCpzZWxmI2p1bWJmPWMycGEuYXNzZXJ0aW9ucy9jMnBhLmFjdGlvbnMudjJkaGFzaFgg7vxHx0EgnljNTxlQHYmI/2Uq3sKFrFXdtQfJcgUTD/uiY3VybHgpc2VsZiNqdW1iZj1jMnBhLmFzc2VydGlvbnMvYzJwYS5oYXNoLmRhdGFkaGFzaFggfoOvYOw00bbJBJD/GQw0FXZnn6bbMiyK7jSSMaAaDK10Y2xhaW1fZ2VuZXJhdG9yX2luZm+jZG5hbWVvQW50aHJvcGljIEZpbGVzZ3ZlcnNpb25lMS4wLjBrc3BlY1ZlcnNpb25lMi40LjAAABA4anVtYgAAAChqdW1kYzJjcwARABCAAACqADibcQNjMnBhLnNpZ25hdHVyZQAAABAIY2JvctKEWQISogEmGCFZAgowggIGMIIBjaADAgECAhRA5aAK7sI50L64g/oGQgU9Z1UTADAKBggqhkjOPQQDAzBJMRcwFQYDVQQKEw5BbnRocm9waWMsIFBCQzEuMCwGA1UEAxMlQW50aHJvcGljIENvbnRlbnQgQ3JlZGVudGlhbHMgUm9vdCBDQTAeFw0yNjA4MDcxODQzNTZaFw0yODA4MDYxOTQzNTZaMEQxFzAVBgNVBAoTDkFudGhyb3BpYywgUEJDMSkwJwYDVQQDEyBBbnRocm9waWMgQ2xhdWRlIENvbnRlbnQgU2lnbmluZzBZMBMGByqGSM49AgEGCCqGSM49AwEHA0IABJh6CmvLUBgFFNU0vUKlOVtE6djd17L5SuwX0LemFisBM3dkd/3cyjxFA3Qo5S46fX0/ihY0VZ7mfb9KF703t5OjWDBWMA4GA1UdDwEB/wQEAwIHgDAVBgNVHSUEDjAMBgorBgEEAYPoXgIBMAwGA1UdEwEB/wQCMAAwHwYDVR0jBBgwFoAUzlHiBIFOZFsj+OPEz5o+nMHXXMIwCgYIKoZIzj0EAwMDZwAwZAIwMXMdFJ4BetLLVY7ORuE9noqbbAZOZn/aArXyTwFAZfKrPzxF2vPoJNf1+UCdg1XGAjBwX1zd9WGqYkqmL5SFqw1QySjr1zJfpJM9+1rdDwSPLMOPOjKuiXjoU/pUUeG9RwmhY3BhZFkNngAAAAAAAAAAAAAAAAAAAAAAAAAAAAAAAAAAAAAAAAAAAAAAAAAAAAAAAAAAAAAAAAAAAAAAAAAAAAAAAAAAAAAAAAAAAAAAAAAAAAAAAAAAAAAAAAAAAAAAAAAAAAAAAAAAAAAAAAAAAAAAAAAAAAAAAAAAAAAAAAAAAAAAAAAAAAAAAAAAAAAAAAAAAAAAAAAAAAAAAAAAAAAAAAAAAAAAAAAAAAAAAAAAAAAAAAAAAAAAAAAAAAAAAAAAAAAAAAAAAAAAAAAAAAAAAAAAAAAAAAAAAAAAAAAAAAAAAAAAAAAAAAAAAAAAAAAAAAAAAAAAAAAAAAAAAAAAAAAAAAAAAAAAAAAAAAAAAAAAAAAAAAAAAAAAAAAAAAAAAAAAAAAAAAAAAAAAAAAAAAAAAAAAAAAAAAAAAAAAAAAAAAAAAAAAAAAAAAAAAAAAAAAAAAAAAAAAAAAAAAAAAAAAAAAAAAAAAAAAAAAAAAAAAAAAAAAAAAAAAAAAAAAAAAAAAAAAAAAAAAAAAAAAAAAAAAAAAAAAAAAAAAAAAAAAAAAAAAAAAAAAAAAAAAAAAAAAAAAAAAAAAAAAAAAAAAAAAAAAAAAAAAAAAAAAAAAAAAAAAAAAAAAAAAAAAAAAAAAAAAAAAAAAAAAAAAAAAAAAAAAAAAAAAAAAAAAAAAAAAAAAAAAAAAAAAAAAAAAAAAAAAAAAAAAAAAAAAAAAAAAAAAAAAAAAAAAAAAAAAAAAAAAAAAAAAAAAAAAAAAAAAAAAAAAAAAAAAAAAAAAAAAAAAAAAAAAAAAAAAAAAAAAAAAAAAAAAAAAAAAAAAAAAAAAAAAAAAAAAAAAAAAAAAAAAAAAAAAAAAAAAAAAAAAAAAAAAAAAAAAAAAAAAAAAAAAAAAAAAAAAAAAAAAAAAAAAAAAAAAAAAAAAAAAAAAAAAAAAAAAAAAAAAAAAAAAAAAAAAAAAAAAAAAAAAAAAAAAAAAAAAAAAAAAAAAAAAAAAAAAAAAAAAAAAAAAAAAAAAAAAAAAAAAAAAAAAAAAAAAAAAAAAAAAAAAAAAAAAAAAAAAAAAAAAAAAAAAAAAAAAAAAAAAAAAAAAAAAAAAAAAAAAAAAAAAAAAAAAAAAAAAAAAAAAAAAAAAAAAAAAAAAAAAAAAAAAAAAAAAAAAAAAAAAAAAAAAAAAAAAAAAAAAAAAAAAAAAAAAAAAAAAAAAAAAAAAAAAAAAAAAAAAAAAAAAAAAAAAAAAAAAAAAAAAAAAAAAAAAAAAAAAAAAAAAAAAAAAAAAAAAAAAAAAAAAAAAAAAAAAAAAAAAAAAAAAAAAAAAAAAAAAAAAAAAAAAAAAAAAAAAAAAAAAAAAAAAAAAAAAAAAAAAAAAAAAAAAAAAAAAAAAAAAAAAAAAAAAAAAAAAAAAAAAAAAAAAAAAAAAAAAAAAAAAAAAAAAAAAAAAAAAAAAAAAAAAAAAAAAAAAAAAAAAAAAAAAAAAAAAAAAAAAAAAAAAAAAAAAAAAAAAAAAAAAAAAAAAAAAAAAAAAAAAAAAAAAAAAAAAAAAAAAAAAAAAAAAAAAAAAAAAAAAAAAAAAAAAAAAAAAAAAAAAAAAAAAAAAAAAAAAAAAAAAAAAAAAAAAAAAAAAAAAAAAAAAAAAAAAAAAAAAAAAAAAAAAAAAAAAAAAAAAAAAAAAAAAAAAAAAAAAAAAAAAAAAAAAAAAAAAAAAAAAAAAAAAAAAAAAAAAAAAAAAAAAAAAAAAAAAAAAAAAAAAAAAAAAAAAAAAAAAAAAAAAAAAAAAAAAAAAAAAAAAAAAAAAAAAAAAAAAAAAAAAAAAAAAAAAAAAAAAAAAAAAAAAAAAAAAAAAAAAAAAAAAAAAAAAAAAAAAAAAAAAAAAAAAAAAAAAAAAAAAAAAAAAAAAAAAAAAAAAAAAAAAAAAAAAAAAAAAAAAAAAAAAAAAAAAAAAAAAAAAAAAAAAAAAAAAAAAAAAAAAAAAAAAAAAAAAAAAAAAAAAAAAAAAAAAAAAAAAAAAAAAAAAAAAAAAAAAAAAAAAAAAAAAAAAAAAAAAAAAAAAAAAAAAAAAAAAAAAAAAAAAAAAAAAAAAAAAAAAAAAAAAAAAAAAAAAAAAAAAAAAAAAAAAAAAAAAAAAAAAAAAAAAAAAAAAAAAAAAAAAAAAAAAAAAAAAAAAAAAAAAAAAAAAAAAAAAAAAAAAAAAAAAAAAAAAAAAAAAAAAAAAAAAAAAAAAAAAAAAAAAAAAAAAAAAAAAAAAAAAAAAAAAAAAAAAAAAAAAAAAAAAAAAAAAAAAAAAAAAAAAAAAAAAAAAAAAAAAAAAAAAAAAAAAAAAAAAAAAAAAAAAAAAAAAAAAAAAAAAAAAAAAAAAAAAAAAAAAAAAAAAAAAAAAAAAAAAAAAAAAAAAAAAAAAAAAAAAAAAAAAAAAAAAAAAAAAAAAAAAAAAAAAAAAAAAAAAAAAAAAAAAAAAAAAAAAAAAAAAAAAAAAAAAAAAAAAAAAAAAAAAAAAAAAAAAAAAAAAAAAAAAAAAAAAAAAAAAAAAAAAAAAAAAAAAAAAAAAAAAAAAAAAAAAAAAAAAAAAAAAAAAAAAAAAAAAAAAAAAAAAAAAAAAAAAAAAAAAAAAAAAAAAAAAAAAAAAAAAAAAAAAAAAAAAAAAAAAAAAAAAAAAAAAAAAAAAAAAAAAAAAAAAAAAAAAAAAAAAAAAAAAAAAAAAAAAAAAAAAAAAAAAAAAAAAAAAAAAAAAAAAAAAAAAAAAAAAAAAAAAAAAAAAAAAAAAAAAAAAAAAAAAAAAAAAAAAAAAAAAAAAAAAAAAAAAAAAAAAAAAAAAAAAAAAAAAAAAAAAAAAAAAAAAAAAAAAAAAAAAAAAAAAAAAAAAAAAAAAAAAAAAAAAAAAAAAAAAAAAAAAAAAAAAAAAAAAAAAAAAAAAAAAAAAAAAAAAAAAAAAAAAAAAAAAAAAAAAAAAAAAAAAAAAAAAAAAAAAAAAAAAAAAAAAAAAAAAAAAAAAAAAAAAAAAAAAAAAAAAAAAAAAAAAAAAAAAAAAAAAAAAAAAAAAAAAAAAAAAAAAAAAAAAAAAAAAAAAAAAAAAAAAAAAAAAAAAAAAAAAAAAAAAAAAAAAAAAAAAAAAAAAAAAAAAAAAAAAAAAAAAAAAAAAAAAAAAAAAAAAAAAAAAAAAAAAAAAAAAAAAAAAAAAAAAAAAAAAAAAAAAAAAAAAAAAAAAAAAAAAAAAAAAAAAAAAAAAAAAAAAAAAAAAAAAAAAAAAAAAAAAAAAAAAAAAAAAAAAAAAAAAAAAAAAAAAAAAAAAAAAAAAAAAAAAAAAAAAAAAAAAAAAAAAAAAAAAAAAAAAAAAAAAAAAAAAAAAAAAAAAAAAAAAAAAAAAAAAAAAAAAAAAAAAAAAAAAAAAAAAAAAAAAAAAAAAAAAAAAAAAAAAAAAAAAAAAAAAAAAAAAAAAAAAAAAAAAAAAAAAAAAAAAAAAAAAAAAAAAAAAAAAAAAAAAAAAAAAAAAAAAAAAAAAAAAAAAAAAAAAAAAAAAAAAAAAAAAAAAAAAAAAAAAAAAAAAAAAAAAAAAAAAAAAAAAAAAAAAAAAAAAAAAAAAAAAAAAAAAAAAAAAAAAAAAAAAAAAAAAAAAAAAAAAAAAAAAAAAAAAAAAAAAAAAAAAAAAAAAAAAAAAAAAAAAAAAAAAAAAAAAAAAAAAAAAAAAAAAAAAAAAAAAAAAAAAAAAAAAAAAAAAAAAAAAAAAAAAAAAAAAAAAAAAAAAAAAAAAAAAAAAAAAAAAAAAAAAAAAAAAAAAAAAAAAAAAAAAAAAAAAAAAAAAAAAAAAAAAAAAAAAAAAAAAAAAAAAAAAAAAAAAAAAAAAAAAAAAAAAAAAAAAAAAAAAAAAAAAAAAAAAAAAAAAAAAAAAAAAAAAAAAAAAAAAAAAAAAAAAAAAAAAAAAAAAAAAAAAAAAAAAAAAAAAAAAAAAAAAAAAAAAAAAAAAAAAAAAAAAAAAAAAAAAAAAAAAAAAAAAAAAAAAAAAAAAAAAAAAAAAAAAAAAAAAAAAAAAAAAAAAAAAAAAAAAAAAAAAAAAAAAAAAAAAAAAAAAAAAAAAAAAAAAAAAAAAAAAAAAAAAAAAAAAAAAAAAAAAAAAAAAAAAAAAAAAAAAAAAAAAAAAAAAAAAAAAAAAAAAAAAAAAAAAAAAAAAAAAAAAAAAAAAAAAAAAAAAAAAAAAAAAAAAAAAAAAAAAAAAAAAAAAAAAAAAAAAAAAAAAAAAAAAAAAAAAAAAAAAAAAAAAAAAAAAAAAAAAAAAAAAAAAAAAAAAAAAAAAAAAAAAAAAAAAAAAAAAAAAAAAAAAAAAAAAAAAAAAAAAAAAAAAAAAAAAAAAAAAAAAAAAAAAAAAAAAAAAAAAAAAAAAAAAAAAAAAAAAAAAAAAAAAAAAAAAAAAAAAAAAAAAAAAAAAAAAAAAAAAAAAAAAAAAAAAAAAAAAAAAAAAAAAAAAAAAAAAAAAAAAAAAAAAAAAAAAAAAAAAAAAAAAAAAAAAAAAAAAAAAAAAAAAAAAAAAAAAAAAAAAAAAAAAAAAAAAAAAAAAAAAAAAAAAAAAAAAAAAAAAAAAAAAAAAAAAAAAAAAAAAAAAAAAAAAAAAAAAAAAAAAAAAAAAAAAAAAAAAAAAAAAAAAAAAAAAAAAAAAAAPZYQCvrzhOf0jQz/7UZ+B0Hm+JAklNM7XrCGykTxwHGo0KypSZzTkGXwPUpwa+A59O4lq1hC2iu7Vgo0g4oQrUU6LI=</c2pa:manifest></metadata>
<!-- Ilustração original Desu Burguer — desenho, não é foto do produto. -->
<defs><linearGradient id="g1" x1="0" y1="0" x2="0" y2="1"><stop offset="0" stop-color="#ea9d4c"/><stop offset="0.45" stop-color="#c96d24"/><stop offset="1" stop-color="#7c3c11"/></linearGradient><filter id="t2" x="0" y="0" width="100%" height="100%" color-interpolation-filters="sRGB"><feTurbulence type="fractalNoise" baseFrequency="0.7" numOctaves="2" seed="3" result="en"/><feColorMatrix in="en" type="matrix" values="0 0 0 0 0.45 0 0 0 0 0.24 0 0 0 0 0.08 1.9 0 0 0 -1.25" result="ec"/><feComposite in="ec" in2="SourceAlpha" operator="in" result="e"/><feTurbulence type="fractalNoise" baseFrequency="1.1" numOctaves="2" seed="9" result="cn"/><feColorMatrix in="cn" type="matrix" values="0 0 0 0 1 0 0 0 0 0.93 0 0 0 0 0.78 1.8 0 0 0 -1.3" result="cc"/><feComposite in="cc" in2="SourceAlpha" operator="in" result="c"/><feMerge><feMergeNode in="SourceGraphic"/><feMergeNode in="e"/><feMergeNode in="c"/></feMerge></filter><linearGradient id="g3" x1="0" y1="0" x2="0" y2="1"><stop offset="0" stop-color="#000" stop-opacity="0"/><stop offset="0.6" stop-color="#000" stop-opacity="0"/><stop offset="1" stop-color="#000" stop-opacity="0.25"/></linearGradient><linearGradient id="g4" x1="0" y1="0" x2="0" y2="1"><stop offset="0" stop-color="#fde9b4"/><stop offset="1" stop-color="#f0c877"/></linearGradient><filter id="f5" x="-60%" y="-60%" width="220%" height="220%"><feGaussianBlur stdDeviation="3"/></filter><linearGradient id="g6" x1="0" y1="0" x2="0" y2="1"><stop offset="0" stop-color="#8a5232"/><stop offset="0.35" stop-color="#6a3a20"/><stop offset="1" stop-color="#3b1d10"/></linearGradient><filter id="t7" x="0" y="0" width="100%" height="100%" color-interpolation-filters="sRGB"><feTurbulence type="fractalNoise" baseFrequency="0.55" numOctaves="2" seed="5" result="en"/><feColorMatrix in="en" type="matrix" values="0 0 0 0 0.1 0 0 0 0 0.04 0 0 0 0 0.02 3 0 0 0 -1.4" result="ec"/><feComposite in="ec" in2="SourceAlpha" operator="in" result="e"/><feTurbulence type="fractalNoise" baseFrequency="1.2" numOctaves="2" seed="11" result="cn"/><feColorMatrix in="cn" type="matrix" values="0 0 0 0 0.92 0 0 0 0 0.62 0 0 0 0 0.45 2.4 0 0 0 -1.6" result="cc"/><feComposite in="cc" in2="SourceAlpha" operator="in" result="c"/><feMerge><feMergeNode in="SourceGraphic"/><feMergeNode in="e"/><feMergeNode in="c"/></feMerge></filter><clipPath id="c8"><path d="M110.24,181.27 C114.02,180.7 118.79,182.06 123.06,182.12 C127.34,182.19 131.61,181.61 135.89,181.64 C140.16,181.66 144.43,182.17 148.71,182.29 C152.98,182.41 157.26,182.6 161.53,182.35 C165.81,182.1 170.08,181.07 174.35,180.78 C178.63,180.5 182.9,180.28 187.18,180.64 C191.45,181 195.73,182.83 200,182.94 C204.27,183.06 208.55,181.61 212.82,181.33 C217.1,181.04 221.37,180.91 225.65,181.26 C229.92,181.6 234.19,183.28 238.47,183.39 C242.74,183.5 247.02,181.99 251.29,181.92 C255.57,181.84 259.84,182.94 264.11,182.94 C268.39,182.94 272.66,182.03 276.94,181.93 C281.21,181.84 285.98,181.79 289.76,182.39 C293.54,182.99 297.13,183.72 299.59,185.51 C302.06,187.3 303.71,190.56 304.54,193.12 C305.36,195.68 305.36,198.32 304.54,200.88 C303.71,203.44 302.06,206.75 299.59,208.49 C297.13,210.23 293.54,210.69 289.76,211.32 C285.98,211.94 281.21,212.03 276.94,212.26 C272.66,212.5 268.39,212.76 264.11,212.72 C259.84,212.68 255.57,212.09 251.29,212.05 C247.02,212 242.74,212.42 238.47,212.47 C234.19,212.52 229.92,212.56 225.65,212.34 C221.37,212.11 217.1,211.12 212.82,211.15 C208.55,211.17 204.27,212.33 200,212.51 C195.73,212.68 191.45,212.33 187.18,212.18 C182.9,212.03 178.63,211.79 174.35,211.61 C170.08,211.43 165.81,210.9 161.53,211.08 C157.26,211.27 152.98,212.57 148.71,212.72 C144.43,212.86 140.16,211.99 135.89,211.95 C131.61,211.9 127.34,212.3 123.06,212.43 C118.79,212.56 114.02,213.4 110.24,212.74 C106.46,212.09 102.87,210.47 100.41,208.49 C97.94,206.51 96.29,203.44 95.46,200.88 C94.64,198.32 94.64,195.68 95.46,193.12 C96.29,190.56 97.94,187.48 100.41,185.51 C102.87,183.53 106.46,181.83 110.24,181.27Z"/></clipPath><linearGradient id="g9" x1="0" y1="0" x2="0" y2="1"><stop offset="0" stop-color="#1e0d05" stop-opacity="0.55"/><stop offset="1" stop-color="#1e0d05" stop-opacity="0"/></linearGradient><linearGradient id="g10" x1="0" y1="0" x2="0" y2="1"><stop offset="0" stop-color="#000" stop-opacity="0"/><stop offset="1" stop-color="#000" stop-opacity="0.4"/></linearGradient><filter id="f11" x="-60%" y="-60%" width="220%" height="220%"><feGaussianBlur stdDeviation="0.7"/></filter><filter id="f12" x="-60%" y="-60%" width="220%" height="220%"><feGaussianBlur stdDeviation="0.8"/></filter><filter id="f13" x="-60%" y="-60%" width="220%" height="220%"><feGaussianBlur stdDeviation="2.2"/></filter><linearGradient id="g14" x1="0" y1="0" x2="0" y2="1"><stop offset="0" stop-color="#ffb841"/><stop offset="1" stop-color="#e07405"/></linearGradient><filter id="f15" x="-60%" y="-60%" width="220%" height="220%"><feGaussianBlur stdDeviation="0.4"/></filter><radialGradient id="r16" cx="0.36" cy="0.16" r="0.9"><stop offset="0" stop-color="#ffd28c"/><stop offset="0.3" stop-color="#f09a40"/><stop offset="0.72" stop-color="#be5f1a"/><stop offset="1" stop-color="#6f300c"/></radialGradient><linearGradient id="g17" x1="0" y1="0" x2="0" y2="1"><stop offset="0" stop-color="#000" stop-opacity="0"/><stop offset="0.7" stop-color="#000" stop-opacity="0"/><stop offset="1" stop-color="#000" stop-opacity="0.3"/></linearGradient><clipPath id="c18"><path d="M89,157 C89,118.79 124.52,89.24 200,89.24 C275.48,89.24 311,118.79 311,157 C311,164 305,167 295,167 H105 C95,167 89,164 89,157 Z"/></clipPath><filter id="f19" x="-60%" y="-60%" width="220%" height="220%"><feGaussianBlur stdDeviation="1.5"/></filter><filter id="f20" x="-60%" y="-60%" width="220%" height="220%"><feGaussianBlur stdDeviation="6"/></filter><filter id="f21" x="-60%" y="-60%" width="220%" height="220%"><feGaussianBlur stdDeviation="1.8"/></filter><linearGradient id="g22" x1="0" y1="0" x2="0" y2="1"><stop offset="0" stop-color="#26201b"/><stop offset="1" stop-color="#110d0a"/></linearGradient><radialGradient id="r23" cx="0.5" cy="0.44" r="0.6"><stop offset="0" stop-color="#ffb703" stop-opacity="0.32"/><stop offset="0.5" stop-color="#ffb703" stop-opacity="0.1"/><stop offset="1" stop-color="#ffb703" stop-opacity="0"/></radialGradient><radialGradient id="r24" cx="0.5" cy="0.5" r="0.5"><stop offset="0" stop-color="#5a4636" stop-opacity="0.55"/><stop offset="0.6" stop-color="#3a2d23" stop-opacity="0.25"/><stop offset="1" stop-color="#3a2d23" stop-opacity="0"/></radialGradient><radialGradient id="r25" cx="0.5" cy="0.5" r="0.72"><stop offset="0.55" stop-color="#000" stop-opacity="0"/><stop offset="1" stop-color="#000" stop-opacity="0.6"/></radialGradient><filter id="f26" x="-60%" y="-60%" width="220%" height="220%"><feGaussianBlur stdDeviation="7"/></filter><filter id="f27" x="-60%" y="-60%" width="220%" height="220%"><feGaussianBlur stdDeviation="2.5"/></filter><linearGradient id="g28" x1="0" y1="0" x2="0" y2="1"><stop offset="0" stop-color="#a9743f"/><stop offset="1" stop-color="#c99359"/></linearGradient><filter id="t29" x="0" y="0" width="100%" height="100%" color-interpolation-filters="sRGB"><feTurbulence type="fractalNoise" baseFrequency="1.6" numOctaves="2" seed="17" result="en"/><feColorMatrix in="en" type="matrix" values="0 0 0 0 0 0 0 0 0 0 0 0 0 0 0 1.6 0 0 0 -1" result="ec"/><feComposite in="ec" in2="SourceAlpha" operator="in" result="e"/><feTurbulence type="fractalNoise" baseFrequency="1.9" numOctaves="2" seed="19" result="cn"/><feColorMatrix in="cn" type="matrix" values="0 0 0 0 1 0 0 0 0 1 0 0 0 0 1 1.6 0 0 0 -1.05" result="cc"/><feComposite in="cc" in2="SourceAlpha" operator="in" result="c"/><feMerge><feMergeNode in="SourceGraphic"/><feMergeNode in="e"/><feMergeNode in="c"/></feMerge></filter><clipPath id="c30"><path d="M66,234 H334 Q350,234 350,241 H50 Q50,234 66,234Z"/></clipPath><linearGradient id="g31" x1="0" y1="0" x2="0" y2="1"><stop offset="0" stop-color="#8a5a2e"/><stop offset="1" stop-color="#4e2f14"/></linearGradient></defs>
<rect width="400" height="300" fill="url(#g22)"/><rect width="400" height="300" fill="url(#r23)"/><ellipse cx="200" cy="258" rx="230" ry="52" fill="url(#r24)"/><rect width="400" height="300" fill="url(#r25)"/><ellipse cx="200" cy="253" rx="168" ry="12" fill="#000" opacity="0.5" filter="url(#f26)"/><ellipse cx="200" cy="252" rx="131.2" ry="4.4" fill="#000" opacity="0.55" filter="url(#f27)"/><path d="M66,234 H334 Q350,234 350,241 H50 Q50,234 66,234Z" fill="url(#g28)" filter="url(#t29)"/><g clip-path="url(#c30)"><path d="M60,235.5 q70,-1.2 140,0 t130,0" stroke="#7a4a1e" stroke-opacity=".35" stroke-width=".8" fill="none"/><path d="M84,238 q70,-1.2 140,0 t130,0" stroke="#7a4a1e" stroke-opacity=".35" stroke-width=".8" fill="none"/><path d="M108,240 q70,-1.2 140,0 t130,0" stroke="#7a4a1e" stroke-opacity=".35" stroke-width=".8" fill="none"/></g><path d="M50,241 H350 V247 Q350,253 340,253 H60 Q50,253 50,247Z" fill="url(#g31)" filter="url(#t29)"/><path d="M52,241.6 H348" stroke="#f0cc95" stroke-opacity=".55" stroke-width="1"/><ellipse cx="200" cy="239" rx="117.94" ry="6" fill="#000" opacity="0.4" filter="url(#f26)"/><ellipse cx="200" cy="238" rx="92.1" ry="2.2" fill="#000" opacity="0.44" filter="url(#f27)"/><path d="M94,215 C94,211.5 97,210 102,210 H298 C303,210 306,211.5 306,215 L308,225 C308,235 299,240 284,240 H116 C101,240 92,235 92,225 Z" fill="url(#g1)" filter="url(#t2)"/><path d="M94,215 C94,211.5 97,210 102,210 H298 C303,210 306,211.5 306,215 L308,225 C308,235 299,240 284,240 H116 C101,240 92,235 92,225 Z" fill="url(#g3)"/><rect x="96" y="210" width="208" height="7" rx="3.5" fill="url(#g4)"/><rect x="100" y="216" width="200" height="2" rx="1" fill="#000" opacity=".12"/><ellipse cx="143.84" cy="227" rx="32.4" ry="3.5" fill="#ffffff" opacity="0.22" filter="url(#f5)"/><rect x="98.48" y="208" width="203.04" height="6" rx="3" fill="#000" opacity="0.38" filter="url(#f13)"/><path d="M110.24,181.27 C114.02,180.7 118.79,182.06 123.06,182.12 C127.34,182.19 131.61,181.61 135.89,181.64 C140.16,181.66 144.43,182.17 148.71,182.29 C152.98,182.41 157.26,182.6 161.53,182.35 C165.81,182.1 170.08,181.07 174.35,180.78 C178.63,180.5 182.9,180.28 187.18,180.64 C191.45,181 195.73,182.83 200,182.94 C204.27,183.06 208.55,181.61 212.82,181.33 C217.1,181.04 221.37,180.91 225.65,181.26 C229.92,181.6 234.19,183.28 238.47,183.39 C242.74,183.5 247.02,181.99 251.29,181.92 C255.57,181.84 259.84,182.94 264.11,182.94 C268.39,182.94 272.66,182.03 276.94,181.93 C281.21,181.84 285.98,181.79 289.76,182.39 C293.54,182.99 297.13,183.72 299.59,185.51 C302.06,187.3 303.71,190.56 304.54,193.12 C305.36,195.68 305.36,198.32 304.54,200.88 C303.71,203.44 302.06,206.75 299.59,208.49 C297.13,210.23 293.54,210.69 289.76,211.32 C285.98,211.94 281.21,212.03 276.94,212.26 C272.66,212.5 268.39,212.76 264.11,212.72 C259.84,212.68 255.57,212.09 251.29,212.05 C247.02,212 242.74,212.42 238.47,212.47 C234.19,212.52 229.92,212.56 225.65,212.34 C221.37,212.11 217.1,211.12 212.82,211.15 C208.55,211.17 204.27,212.33 200,212.51 C195.73,212.68 191.45,212.33 187.18,212.18 C182.9,212.03 178.63,211.79 174.35,211.61 C170.08,211.43 165.81,210.9 161.53,211.08 C157.26,211.27 152.98,212.57 148.71,212.72 C144.43,212.86 140.16,211.99 135.89,211.95 C131.61,211.9 127.34,212.3 123.06,212.43 C118.79,212.56 114.02,213.4 110.24,212.74 C106.46,212.09 102.87,210.47 100.41,208.49 C97.94,206.51 96.29,203.44 95.46,200.88 C94.64,198.32 94.64,195.68 95.46,193.12 C96.29,190.56 97.94,187.48 100.41,185.51 C102.87,183.53 106.46,181.83 110.24,181.27Z" fill="url(#g6)" filter="url(#t7)"/><g clip-path="url(#c8)"><rect x="95.24" y="180" width="209.52" height="12" fill="url(#g9)"/><rect x="95.24" y="201.5" width="209.52" height="12" fill="url(#g10)"/><path d="M117.24,180 l12.6,34" stroke="#170803" stroke-width="5" stroke-linecap="round" opacity=".55" filter="url(#f11)"/><path d="M150.34,180 l12.6,34" stroke="#170803" stroke-width="5" stroke-linecap="round" opacity=".55" filter="url(#f11)"/><path d="M183.45,180 l12.6,34" stroke="#170803" stroke-width="5" stroke-linecap="round" opacity=".55" filter="url(#f11)"/><path d="M216.55,180 l12.6,34" stroke="#170803" stroke-width="5" stroke-linecap="round" opacity=".55" filter="url(#f11)"/><path d="M249.66,180 l12.6,34" stroke="#170803" stroke-width="5" stroke-linecap="round" opacity=".55" filter="url(#f11)"/><path d="M282.76,180 l12.6,34" stroke="#170803" stroke-width="5" stroke-linecap="round" opacity=".55" filter="url(#f11)"/></g><ellipse cx="150.34" cy="183.36" rx="3.42" ry="1.64" fill="#1f0e06" opacity=".75"/><ellipse cx="223.83" cy="182.16" rx="2.53" ry="1.85" fill="#1f0e06" opacity=".75"/><ellipse cx="154.39" cy="182.59" rx="4.99" ry="1.52" fill="#1f0e06" opacity=".75"/><ellipse cx="263.77" cy="183.19" rx="4.1" ry="1.24" fill="#1f0e06" opacity=".75"/><ellipse cx="225.56" cy="184.17" rx="3.81" ry="1.77" fill="#1f0e06" opacity=".75"/><ellipse cx="232.49" cy="182.16" rx="4.4" ry="1.63" fill="#1f0e06" opacity=".75"/><ellipse cx="162.34" cy="182.08" rx="4.66" ry="1.53" fill="#1f0e06" opacity=".75"/><ellipse cx="241.47" cy="184.2" rx="4.29" ry="1.93" fill="#1f0e06" opacity=".75"/><ellipse cx="180.09" cy="184" rx="3.61" ry="1.94" fill="#1f0e06" opacity=".75"/><ellipse cx="271.8" cy="182.24" rx="2.84" ry="1.3" fill="#1f0e06" opacity=".75"/><ellipse cx="288.22" cy="183.09" rx="4.07" ry="1.37" fill="#1f0e06" opacity=".75"/><ellipse cx="201.26" cy="193.89" rx="4.05" ry="1.25" fill="#ffffff" opacity="0.32" filter="url(#f12)"/><ellipse cx="214.62" cy="197.78" rx="5.05" ry="1.46" fill="#ffffff" opacity="0.32" filter="url(#f12)"/><ellipse cx="261.84" cy="198.43" rx="5.01" ry="1" fill="#ffffff" opacity="0.32" filter="url(#f12)"/><ellipse cx="262.58" cy="198.23" rx="5.71" ry="1.24" fill="#ffffff" opacity="0.32" filter="url(#f12)"/><ellipse cx="237.1" cy="192.58" rx="5.49" ry="1.24" fill="#ffffff" opacity="0.32" filter="url(#f12)"/><rect x="98.48" y="178" width="203.04" height="6" rx="3" fill="#000" opacity="0.38" filter="url(#f13)"/><path d="M86,177 C86.99,176.01 75.85,176.21 92,176 C108.15,175.79 169.4,175.5 200,175.5 C230.6,175.5 291.85,175.79 308,176 C324.15,176.21 313.01,176.01 314,177 C314.99,177.99 320.19,182.08 315,183 C309.81,183.92 283.46,182.45 277.4,183.5 C271.34,184.55 273.52,188.91 272.25,190.4 C270.98,191.89 269.49,194 268.4,194 C267.31,194 265.82,191.89 264.55,190.4 C263.27,188.91 264.69,184.48 259.4,183.5 C254.11,182.52 232.53,181.73 227.24,183.5 C221.95,185.27 223.36,193.38 222.09,196 C220.81,198.62 219.33,202 218.24,202 C217.15,202 215.66,198.62 214.39,196 C213.11,193.38 213.23,185.27 209.24,183.5 C205.25,181.73 190.19,182.72 186.2,183.5 C182.21,184.28 182.32,187.8 181.05,189 C179.77,190.2 178.29,192 177.2,192 C176.11,192 174.62,190.2 173.35,189 C172.07,187.8 174.13,184.28 168.2,183.5 C162.27,182.72 137.41,182.22 131.48,183.5 C125.55,184.78 127.61,190.59 126.33,192.5 C125.05,194.41 123.57,197 122.48,197 C121.39,197 119.91,194.41 118.63,192.5 C117.36,190.59 118.24,184.85 113.48,183.5 C108.72,182.15 88.89,183.92 85,183 C81.11,182.08 85.01,177.99 86,177Z" fill="url(#g14)"/><path d="M86,177 C86.99,176.01 75.85,176.21 92,176 C108.15,175.79 169.4,175.5 200,175.5 C230.6,175.5 291.85,175.79 308,176 C324.15,176.21 313.01,176.01 314,177 C314.99,177.99 320.19,182.08 315,183 C309.81,183.92 283.46,182.45 277.4,183.5 C271.34,184.55 273.52,188.91 272.25,190.4 C270.98,191.89 269.49,194 268.4,194 C267.31,194 265.82,191.89 264.55,190.4 C263.27,188.91 264.69,184.48 259.4,183.5 C254.11,182.52 232.53,181.73 227.24,183.5 C221.95,185.27 223.36,193.38 222.09,196 C220.81,198.62 219.33,202 218.24,202 C217.15,202 215.66,198.62 214.39,196 C213.11,193.38 213.23,185.27 209.24,183.5 C205.25,181.73 190.19,182.72 186.2,183.5 C182.21,184.28 182.32,187.8 181.05,189 C179.77,190.2 178.29,192 177.2,192 C176.11,192 174.62,190.2 173.35,189 C172.07,187.8 174.13,184.28 168.2,183.5 C162.27,182.72 137.41,182.22 131.48,183.5 C125.55,184.78 127.61,190.59 126.33,192.5 C125.05,194.41 123.57,197 122.48,197 C121.39,197 119.91,194.41 118.63,192.5 C117.36,190.59 118.24,184.85 113.48,183.5 C108.72,182.15 88.89,183.92 85,183 C81.11,182.08 85.01,177.99 86,177Z" fill="none" stroke="#000" stroke-opacity=".12" stroke-width="1"/><path d="M90,177.3 H310" stroke="#fff" stroke-opacity=".55" stroke-width="1.4" stroke-linecap="round"/><ellipse cx="120.88" cy="189.5" rx="1.3" ry="3.3" fill="#ffffff" opacity="0.6" filter="url(#f15)"/><ellipse cx="175.6" cy="187" rx="1.3" ry="2.2" fill="#ffffff" opacity="0.6" filter="url(#f15)"/><ellipse cx="216.64" cy="192" rx="1.3" ry="4.4" fill="#ffffff" opacity="0.6" filter="url(#f15)"/><ellipse cx="266.8" cy="188" rx="1.3" ry="2.64" fill="#ffffff" opacity="0.6" filter="url(#f15)"/><rect x="98.48" y="172" width="203.04" height="6" rx="3" fill="#000" opacity="0.38" filter="url(#f13)"/><path d="M133.7,168.39 q4,-5.21 9.96,-0.02 t6.92,-0.25" fill="none" stroke="#8a4a10" stroke-width="3.6" stroke-linecap="round"/><path d="M133.7,168.39 q4,-5.21 9.96,-0.02 t6.92,-0.25" fill="none" stroke="#eaa83f" stroke-width="2" stroke-linecap="round"/><path d="M133.7,168.39 q4,-5.21 9.96,-0.02 t6.92,-0.25" fill="none" stroke="#fff4c8" stroke-width=".7" stroke-linecap="round" transform="translate(0,-.7)"/><path d="M151.02,172.46 q5.08,-4.7 10.7,1.15 t8.46,2.66" fill="none" stroke="#8a4a10" stroke-width="3.6" stroke-linecap="round"/><path d="M151.02,172.46 q5.08,-4.7 10.7,1.15 t8.46,2.66" fill="none" stroke="#eaa83f" stroke-width="2" stroke-linecap="round"/><path d="M144.79,172.63 q5.2,-3.7 8.81,0.71 t8.49,2.01" fill="none" stroke="#8a4a10" stroke-width="3.6" stroke-linecap="round"/><path d="M144.79,172.63 q5.2,-3.7 8.81,0.71 t8.49,2.01" fill="none" stroke="#eaa83f" stroke-width="2" stroke-linecap="round"/><path d="M140.95,172.01 q3.02,-2.1 8.88,0.91 t7.15,0.56" fill="none" stroke="#8a4a10" stroke-width="3.6" stroke-linecap="round"/><path d="M140.95,172.01 q3.02,-2.1 8.88,0.91 t7.15,0.56" fill="none" stroke="#eaa83f" stroke-width="2" stroke-linecap="round"/><path d="M140.95,172.01 q3.02,-2.1 8.88,0.91 t7.15,0.56" fill="none" stroke="#fff4c8" stroke-width=".7" stroke-linecap="round" transform="translate(0,-.7)"/><path d="M205.56,166.74 q4.8,-4.79 8.46,-0.09 t8.69,-2.13" fill="none" stroke="#8a4a10" stroke-width="3.6" stroke-linecap="round"/><path d="M205.56,166.74 q4.8,-4.79 8.46,-0.09 t8.69,-2.13" fill="none" stroke="#eaa83f" stroke-width="2" stroke-linecap="round"/><path d="M238.26,168.69 q3.48,-5.17 10.74,-0.25 t6.63,-0.12" fill="none" stroke="#8a4a10" stroke-width="3.6" stroke-linecap="round"/><path d="M238.26,168.69 q3.48,-5.17 10.74,-0.25 t6.63,-0.12" fill="none" stroke="#eaa83f" stroke-width="2" stroke-linecap="round"/><path d="M117.05,167.95 q4.77,-3.86 9.36,1.25 t8.3,0.27" fill="none" stroke="#8a4a10" stroke-width="3.6" stroke-linecap="round"/><path d="M117.05,167.95 q4.77,-3.86 9.36,1.25 t8.3,0.27" fill="none" stroke="#eaa83f" stroke-width="2" stroke-linecap="round"/><path d="M117.05,167.95 q4.77,-3.86 9.36,1.25 t8.3,0.27" fill="none" stroke="#fff4c8" stroke-width=".7" stroke-linecap="round" transform="translate(0,-.7)"/><path d="M114.45,173.52 q3.46,-5.68 10.59,0.17 t5.82,2.46" fill="none" stroke="#8a4a10" stroke-width="3.6" stroke-linecap="round"/><path d="M114.45,173.52 q3.46,-5.68 10.59,0.17 t5.82,2.46" fill="none" stroke="#eaa83f" stroke-width="2" stroke-linecap="round"/><path d="M227,167.08 q5.45,-3.27 10.11,1.94 t5.53,1.14" fill="none" stroke="#8a4a10" stroke-width="3.6" stroke-linecap="round"/><path d="M227,167.08 q5.45,-3.27 10.11,1.94 t5.53,1.14" fill="none" stroke="#eaa83f" stroke-width="2" stroke-linecap="round"/><path d="M279.92,170.22 q5.45,-5.27 9.66,-0.92 t6.59,1.21" fill="none" stroke="#8a4a10" stroke-width="3.6" stroke-linecap="round"/><path d="M279.92,170.22 q5.45,-5.27 9.66,-0.92 t6.59,1.21" fill="none" stroke="#eaa83f" stroke-width="2" stroke-linecap="round"/><path d="M279.92,170.22 q5.45,-5.27 9.66,-0.92 t6.59,1.21" fill="none" stroke="#fff4c8" stroke-width=".7" stroke-linecap="round" transform="translate(0,-.7)"/><path d="M125.85,171.62 q5.54,-4.79 8.5,1.98 t7.16,-2.89" fill="none" stroke="#8a4a10" stroke-width="3.6" stroke-linecap="round"/><path d="M125.85,171.62 q5.54,-4.79 8.5,1.98 t7.16,-2.89" fill="none" stroke="#eaa83f" stroke-width="2" stroke-linecap="round"/><path d="M214.83,173.54 q3.49,-3.04 10.61,-0.29 t7.06,0.35" fill="none" stroke="#8a4a10" stroke-width="3.6" stroke-linecap="round"/><path d="M214.83,173.54 q3.49,-3.04 10.61,-0.29 t7.06,0.35" fill="none" stroke="#eaa83f" stroke-width="2" stroke-linecap="round"/><path d="M191.46,173.99 q5.31,-2.92 9.69,-0.38 t7.44,-0.17" fill="none" stroke="#8a4a10" stroke-width="3.6" stroke-linecap="round"/><path d="M191.46,173.99 q5.31,-2.92 9.69,-0.38 t7.44,-0.17" fill="none" stroke="#eaa83f" stroke-width="2" stroke-linecap="round"/><path d="M191.46,173.99 q5.31,-2.92 9.69,-0.38 t7.44,-0.17" fill="none" stroke="#fff4c8" stroke-width=".7" stroke-linecap="round" transform="translate(0,-.7)"/><path d="M182.39,166.24 q5.71,-5.4 8.69,1.14 t8.83,1.38" fill="none" stroke="#8a4a10" stroke-width="3.6" stroke-linecap="round"/><path d="M182.39,166.24 q5.71,-5.4 8.69,1.14 t8.83,1.38" fill="none" stroke="#eaa83f" stroke-width="2" stroke-linecap="round"/><path d="M157.76,174.41 q5.48,-2.28 11.03,0.94 t8.89,0.14" fill="none" stroke="#8a4a10" stroke-width="3.6" stroke-linecap="round"/><path d="M157.76,174.41 q5.48,-2.28 11.03,0.94 t8.89,0.14" fill="none" stroke="#eaa83f" stroke-width="2" stroke-linecap="round"/><path d="M289.46,172.38 q3.23,-2.64 10.79,1.19 t5.52,-1.2" fill="none" stroke="#8a4a10" stroke-width="3.6" stroke-linecap="round"/><path d="M289.46,172.38 q3.23,-2.64 10.79,1.19 t5.52,-1.2" fill="none" stroke="#eaa83f" stroke-width="2" stroke-linecap="round"/><path d="M289.46,172.38 q3.23,-2.64 10.79,1.19 t5.52,-1.2" fill="none" stroke="#fff4c8" stroke-width=".7" stroke-linecap="round" transform="translate(0,-.7)"/><path d="M218.15,174.35 q3.99,-3.59 11.75,0.88 t6.59,-0.55" fill="none" stroke="#8a4a10" stroke-width="3.6" stroke-linecap="round"/><path d="M218.15,174.35 q3.99,-3.59 11.75,0.88 t6.59,-0.55" fill="none" stroke="#eaa83f" stroke-width="2" stroke-linecap="round"/><path d="M202.68,167.59 q5.99,-5.96 11.7,1.21 t5.18,-1.46" fill="none" stroke="#8a4a10" stroke-width="3.6" stroke-linecap="round"/><path d="M202.68,167.59 q5.99,-5.96 11.7,1.21 t5.18,-1.46" fill="none" stroke="#eaa83f" stroke-width="2" stroke-linecap="round"/><path d="M152.89,172.84 q3.49,-5.45 10.7,-0.25 t5.43,2.06" fill="none" stroke="#8a4a10" stroke-width="3.6" stroke-linecap="round"/><path d="M152.89,172.84 q3.49,-5.45 10.7,-0.25 t5.43,2.06" fill="none" stroke="#eaa83f" stroke-width="2" stroke-linecap="round"/><path d="M152.89,172.84 q3.49,-5.45 10.7,-0.25 t5.43,2.06" fill="none" stroke="#fff4c8" stroke-width=".7" stroke-linecap="round" transform="translate(0,-.7)"/><path d="M269.71,172.4 q5.49,-2.9 10.12,-1.65 t7.84,2.25" fill="none" stroke="#8a4a10" stroke-width="3.6" stroke-linecap="round"/><path d="M269.71,172.4 q5.49,-2.9 10.12,-1.65 t7.84,2.25" fill="none" stroke="#eaa83f" stroke-width="2" stroke-linecap="round"/><path d="M280.48,165.5 q3.49,-2.1 8.37,-0.55 t7.16,0.83" fill="none" stroke="#8a4a10" stroke-width="3.6" stroke-linecap="round"/><path d="M280.48,165.5 q3.49,-2.1 8.37,-0.55 t7.16,0.83" fill="none" stroke="#eaa83f" stroke-width="2" stroke-linecap="round"/><path d="M206.17,165.93 q5.32,-2.56 10.71,-0.18 t5.08,0.88" fill="none" stroke="#8a4a10" stroke-width="3.6" stroke-linecap="round"/><path d="M206.17,165.93 q5.32,-2.56 10.71,-0.18 t5.08,0.88" fill="none" stroke="#eaa83f" stroke-width="2" stroke-linecap="round"/><path d="M206.17,165.93 q5.32,-2.56 10.71,-0.18 t5.08,0.88" fill="none" stroke="#fff4c8" stroke-width=".7" stroke-linecap="round" transform="translate(0,-.7)"/><path d="M290.59,173.1 q5.99,-5.93 9.59,1 t7.85,0.46" fill="none" stroke="#8a4a10" stroke-width="3.6" stroke-linecap="round"/><path d="M290.59,173.1 q5.99,-5.93 9.59,1 t7.85,0.46" fill="none" stroke="#eaa83f" stroke-width="2" stroke-linecap="round"/><path d="M154.34,172.54 q3.42,-3.42 8.07,-1.48 t7.87,-0.32" fill="none" stroke="#8a4a10" stroke-width="3.6" stroke-linecap="round"/><path d="M154.34,172.54 q3.42,-3.42 8.07,-1.48 t7.87,-0.32" fill="none" stroke="#eaa83f" stroke-width="2" stroke-linecap="round"/><path d="M99.57,170.76 q5.77,-3.95 9.07,-1.45 t7,-1.55" fill="none" stroke="#8a4a10" stroke-width="3.6" stroke-linecap="round"/><path d="M99.57,170.76 q5.77,-3.95 9.07,-1.45 t7,-1.55" fill="none" stroke="#eaa83f" stroke-width="2" stroke-linecap="round"/><path d="M99.57,170.76 q5.77,-3.95 9.07,-1.45 t7,-1.55" fill="none" stroke="#fff4c8" stroke-width=".7" stroke-linecap="round" transform="translate(0,-.7)"/><path d="M153.18,174.39 q4.82,-2.83 10.03,0.45 t6.17,2.95" fill="none" stroke="#8a4a10" stroke-width="3.6" stroke-linecap="round"/><path d="M153.18,174.39 q4.82,-2.83 10.03,0.45 t6.17,2.95" fill="none" stroke="#eaa83f" stroke-width="2" stroke-linecap="round"/><path d="M155.67,165.82 q3.04,-3.36 11.48,0.28 t5.86,-1.99" fill="none" stroke="#8a4a10" stroke-width="3.6" stroke-linecap="round"/><path d="M155.67,165.82 q3.04,-3.36 11.48,0.28 t5.86,-1.99" fill="none" stroke="#eaa83f" stroke-width="2" stroke-linecap="round"/><path d="M301.62,165.07 q3.71,-4.35 11.31,1.47 t5.12,0.27" fill="none" stroke="#8a4a10" stroke-width="3.6" stroke-linecap="round"/><path d="M301.62,165.07 q3.71,-4.35 11.31,1.47 t5.12,0.27" fill="none" stroke="#eaa83f" stroke-width="2" stroke-linecap="round"/><path d="M301.62,165.07 q3.71,-4.35 11.31,1.47 t5.12,0.27" fill="none" stroke="#fff4c8" stroke-width=".7" stroke-linecap="round" transform="translate(0,-.7)"/><path d="M147.82,174.16 q5.08,-4.05 8.83,1.04 t6.29,-1.42" fill="none" stroke="#8a4a10" stroke-width="3.6" stroke-linecap="round"/><path d="M147.82,174.16 q5.08,-4.05 8.83,1.04 t6.29,-1.42" fill="none" stroke="#eaa83f" stroke-width="2" stroke-linecap="round"/><path d="M158.14,173.04 q5.53,-4.68 11.73,0.75 t7.16,2.37" fill="none" stroke="#8a4a10" stroke-width="3.6" stroke-linecap="round"/><path d="M158.14,173.04 q5.53,-4.68 11.73,0.75 t7.16,2.37" fill="none" stroke="#eaa83f" stroke-width="2" stroke-linecap="round"/><path d="M173.57,174.65 q4.97,-5.75 11.71,1.89 t6.57,-2.46" fill="none" stroke="#8a4a10" stroke-width="3.6" stroke-linecap="round"/><path d="M173.57,174.65 q4.97,-5.75 11.71,1.89 t6.57,-2.46" fill="none" stroke="#eaa83f" stroke-width="2" stroke-linecap="round"/><path d="M173.57,174.65 q4.97,-5.75 11.71,1.89 t6.57,-2.46" fill="none" stroke="#fff4c8" stroke-width=".7" stroke-linecap="round" transform="translate(0,-.7)"/><path d="M295.16,172.42 q5.9,-4.09 11.54,1.5 t5.61,-0.99" fill="none" stroke="#8a4a10" stroke-width="3.6" stroke-linecap="round"/><path d="M295.16,172.42 q5.9,-4.09 11.54,1.5 t5.61,-0.99" fill="none" stroke="#eaa83f" stroke-width="2" stroke-linecap="round"/><path d="M185.66,173 q5.79,-5.16 8.94,-1.27 t5.61,1.88" fill="none" stroke="#8a4a10" stroke-width="3.6" stroke-linecap="round"/><path d="M185.66,173 q5.79,-5.16 8.94,-1.27 t5.61,1.88" fill="none" stroke="#eaa83f" stroke-width="2" stroke-linecap="round"/><path d="M138.15,169.11 q3.38,-2.75 11.14,1.77 t5.22,1.02" fill="none" stroke="#8a4a10" stroke-width="3.6" stroke-linecap="round"/><path d="M138.15,169.11 q3.38,-2.75 11.14,1.77 t5.22,1.02" fill="none" stroke="#eaa83f" stroke-width="2" stroke-linecap="round"/><path d="M138.15,169.11 q3.38,-2.75 11.14,1.77 t5.22,1.02" fill="none" stroke="#fff4c8" stroke-width=".7" stroke-linecap="round" transform="translate(0,-.7)"/><rect x="96.32" y="161.5" width="207.36" height="7" rx="3.5" fill="#000" opacity="0.45" filter="url(#f13)"/><path d="M89,157 C89,118.79 124.52,89.24 200,89.24 C275.48,89.24 311,118.79 311,157 C311,164 305,167 295,167 H105 C95,167 89,164 89,157 Z" fill="url(#r16)" filter="url(#t2)"/><path d="M89,157 C89,118.79 124.52,89.24 200,89.24 C275.48,89.24 311,118.79 311,157 C311,164 305,167 295,167 H105 C95,167 89,164 89,157 Z" fill="url(#g17)"/><g clip-path="url(#c18)"><path d="M279.92,94.68 C304.34,109.46 309.5,132.01 309.5,154" fill="none" stroke="#fff" stroke-opacity=".22" stroke-width="4" stroke-linecap="round" filter="url(#f19)"/></g><path d="M98,163 H302 C307,163 307,168 301,168 H99 C93,168 93,163 98,163Z" fill="url(#g4)"/><ellipse cx="155.6" cy="115.68" rx="33.3" ry="10.11" fill="#ffffff" opacity="0.46" filter="url(#f20)" transform="rotate(-20 155.6 115.68)"/><ellipse cx="151.16" cy="112.57" rx="14.43" ry="4.28" fill="#ffffff" opacity="0.62" filter="url(#f21)" transform="rotate(-20 151.16 112.57)"/>
</svg>
