<svg xmlns="http://www.w3.org/2000/svg" viewBox="0 0 400 300" role="img" aria-label="Ilustração de refrigerante 600 ml" xmlns:c2pa="http://c2pa.org/manifest"><metadata><c2pa:manifest>AAAWgmp1bWIAAAAeanVtZGMycGEAEQAQgAAAqgA4m3EDYzJwYQAAABZcanVtYgAAAEdqdW1kYzJtYQARABCAAACqADibcQN1cm46YzJwYToxNjA1ZjczOC0wNGU1LTQxNTEtOWY3Zi1iNGJjNmFiODdmM2MAAAADl2p1bWIAAAApanVtZGMyYXMAEQAQgAAAqgA4m3EDYzJwYS5hc3NlcnRpb25zAAAAALxqdW1iAAAARGp1bWRjYm9yABEAEIAAAKoAOJtxE2MycGEuaW5ncmVkaWVudC52MwAAAAAYYzJzaCz8GK+1nv/lxEJIw4Rx/sEAAABwY2JvcqNpZGM6Zm9ybWF0bWltYWdlL3N2Zyt4bWxqaW5zdGFuY2VJRHgseG1wOmlpZDphOTJlNzFlNC0yMWY3LTQzZjAtOWYyYS1mYzJkZWRiZTM1NTNscmVsYXRpb25zaGlwaHBhcmVudE9mAAAB4mp1bWIAAABBanVtZGNib3IAEQAQgAAAqgA4m3ETYzJwYS5hY3Rpb25zLnYyAAAAABhjMnNo97Dk03QcZZoaEVx4LUoJxAAAAZljYm9yomdhY3Rpb25zgqJmYWN0aW9ua2MycGEub3BlbmVkanBhcmFtZXRlcnOha2luZ3JlZGllbnRzgaJjdXJseC1zZWxmI2p1bWJmPWMycGEuYXNzZXJ0aW9ucy9jMnBhLmluZ3JlZGllbnQudjNkaGFzaFggRwEx2Owk3teuvZBHKD1BdRPC5fUTT6alEJsPU1Dp5L2kZmFjdGlvbngdY29tLmFudGhyb3BpYy5jbGF1ZGUucHJvdmlkZWRqcGFyYW1ldGVyc6F4H2NvbS5hbnRocm9waWMub3JpZ2luLWNvbmZpZGVuY2VndW5rbm93bmtkZXNjcmlwdGlvbnhmQ2xhdWRlIHByb3ZpZGVkIHRoaXMgZmlsZSBhdCB0aGUgcmVxdWVzdCBvZiBhIHVzZXIgYW5kIG1heSBoYXZlIGNyZWF0ZWQgb3IgbW9kaWZpZWQgdGhlIGZpbGUgY29udGVudHMubXNvZnR3YXJlQWdlbnShZG5hbWVmQ2xhdWRlcmFsbEFjdGlvbnNJbmNsdWRlZPUAAADIanVtYgAAAEBqdW1kY2JvcgARABCAAACqADibcRNjMnBhLmhhc2guZGF0YQAAAAAYYzJzaKwuYd1aZlo3GtK/BW/UE5cAAACAY2JvcqVjYWxnZnNoYTI1NmNwYWRNAAAAAAAAAAAAAAAAAGRoYXNoWCAtUAU7mDYlA2ympzOflFVm5cRuf3m90lAHwC8lsOm6/mRuYW1lbmp1bWJmIG1hbmlmZXN0amV4Y2x1c2lvbnOBomVzdGFydBi5Zmxlbmd0aBkeBAAAAj5qdW1iAAAAJ2p1bWRjMmNsABEAEIAAAKoAOJtxA2MycGEuY2xhaW0udjIAAAACD2Nib3KlY2FsZ2ZzaGEyNTZpc2lnbmF0dXJleE1zZWxmI2p1bWJmPS9jMnBhL3VybjpjMnBhOjE2MDVmNzM4LTA0ZTUtNDE1MS05ZjdmLWI0YmM2YWI4N2YzYy9jMnBhLnNpZ25hdHVyZWppbnN0YW5jZUlEeCx4bXA6aWlkOmUzNWVjZDg5LWY0N2QtNDFkNS05MzQzLTg3ZDdlMTkyZTU0MHJjcmVhdGVkX2Fzc2VydGlvbnODomN1cmx4LXNlbGYjanVtYmY9YzJwYS5hc3NlcnRpb25zL2MycGEuaW5ncmVkaWVudC52M2RoYXNoWCBHATHY7CTe1669kEcoPUF1E8Ll9RNPpqUQmw9TUOnkvaJjdXJseCpzZWxmI2p1bWJmPWMycGEuYXNzZXJ0aW9ucy9jMnBhLmFjdGlvbnMudjJkaGFzaFggWDQ6Z/Nx73SDxa6PHEnj3EW/lKFW0UlfCI4Ms2gzmvqiY3VybHgpc2VsZiNqdW1iZj1jMnBhLmFzc2VydGlvbnMvYzJwYS5oYXNoLmRhdGFkaGFzaFggMVwzDQPlKXbQ6TKVVqXflLNX2DygBi9idFeVFtstQtR0Y2xhaW1fZ2VuZXJhdG9yX2luZm+jZG5hbWVvQW50aHJvcGljIEZpbGVzZ3ZlcnNpb25lMS4wLjBrc3BlY1ZlcnNpb25lMi40LjAAABA4anVtYgAAAChqdW1kYzJjcwARABCAAACqADibcQNjMnBhLnNpZ25hdHVyZQAAABAIY2JvctKEWQISogEmGCFZAgowggIGMIIBjaADAgECAhRA5aAK7sI50L64g/oGQgU9Z1UTADAKBggqhkjOPQQDAzBJMRcwFQYDVQQKEw5BbnRocm9waWMsIFBCQzEuMCwGA1UEAxMlQW50aHJvcGljIENvbnRlbnQgQ3JlZGVudGlhbHMgUm9vdCBDQTAeFw0yNjA4MDcxODQzNTZaFw0yODA4MDYxOTQzNTZaMEQxFzAVBgNVBAoTDkFudGhyb3BpYywgUEJDMSkwJwYDVQQDEyBBbnRocm9waWMgQ2xhdWRlIENvbnRlbnQgU2lnbmluZzBZMBMGByqGSM49AgEGCCqGSM49AwEHA0IABJh6CmvLUBgFFNU0vUKlOVtE6djd17L5SuwX0LemFisBM3dkd/3cyjxFA3Qo5S46fX0/ihY0VZ7mfb9KF703t5OjWDBWMA4GA1UdDwEB/wQEAwIHgDAVBgNVHSUEDjAMBgorBgEEAYPoXgIBMAwGA1UdEwEB/wQCMAAwHwYDVR0jBBgwFoAUzlHiBIFOZFsj+OPEz5o+nMHXXMIwCgYIKoZIzj0EAwMDZwAwZAIwMXMdFJ4BetLLVY7ORuE9noqbbAZOZn/aArXyTwFAZfKrPzxF2vPoJNf1+UCdg1XGAjBwX1zd9WGqYkqmL5SFqw1QySjr1zJfpJM9+1rdDwSPLMOPOjKuiXjoU/pUUeG9RwmhY3BhZFkNngAAAAAAAAAAAAAAAAAAAAAAAAAAAAAAAAAAAAAAAAAAAAAAAAAAAAAAAAAAAAAAAAAAAAAAAAAAAAAAAAAAAAAAAAAAAAAAAAAAAAAAAAAAAAAAAAAAAAAAAAAAAAAAAAAAAAAAAAAAAAAAAAAAAAAAAAAAAAAAAAAAAAAAAAAAAAAAAAAAAAAAAAAAAAAAAAAAAAAAAAAAAAAAAAAAAAAAAAAAAAAAAAAAAAAAAAAAAAAAAAAAAAAAAAAAAAAAAAAAAAAAAAAAAAAAAAAAAAAAAAAAAAAAAAAAAAAAAAAAAAAAAAAAAAAAAAAAAAAAAAAAAAAAAAAAAAAAAAAAAAAAAAAAAAAAAAAAAAAAAAAAAAAAAAAAAAAAAAAAAAAAAAAAAAAAAAAAAAAAAAAAAAAAAAAAAAAAAAAAAAAAAAAAAAAAAAAAAAAAAAAAAAAAAAAAAAAAAAAAAAAAAAAAAAAAAAAAAAAAAAAAAAAAAAAAAAAAAAAAAAAAAAAAAAAAAAAAAAAAAAAAAAAAAAAAAAAAAAAAAAAAAAAAAAAAAAAAAAAAAAAAAAAAAAAAAAAAAAAAAAAAAAAAAAAAAAAAAAAAAAAAAAAAAAAAAAAAAAAAAAAAAAAAAAAAAAAAAAAAAAAAAAAAAAAAAAAAAAAAAAAAAAAAAAAAAAAAAAAAAAAAAAAAAAAAAAAAAAAAAAAAAAAAAAAAAAAAAAAAAAAAAAAAAAAAAAAAAAAAAAAAAAAAAAAAAAAAAAAAAAAAAAAAAAAAAAAAAAAAAAAAAAAAAAAAAAAAAAAAAAAAAAAAAAAAAAAAAAAAAAAAAAAAAAAAAAAAAAAAAAAAAAAAAAAAAAAAAAAAAAAAAAAAAAAAAAAAAAAAAAAAAAAAAAAAAAAAAAAAAAAAAAAAAAAAAAAAAAAAAAAAAAAAAAAAAAAAAAAAAAAAAAAAAAAAAAAAAAAAAAAAAAAAAAAAAAAAAAAAAAAAAAAAAAAAAAAAAAAAAAAAAAAAAAAAAAAAAAAAAAAAAAAAAAAAAAAAAAAAAAAAAAAAAAAAAAAAAAAAAAAAAAAAAAAAAAAAAAAAAAAAAAAAAAAAAAAAAAAAAAAAAAAAAAAAAAAAAAAAAAAAAAAAAAAAAAAAAAAAAAAAAAAAAAAAAAAAAAAAAAAAAAAAAAAAAAAAAAAAAAAAAAAAAAAAAAAAAAAAAAAAAAAAAAAAAAAAAAAAAAAAAAAAAAAAAAAAAAAAAAAAAAAAAAAAAAAAAAAAAAAAAAAAAAAAAAAAAAAAAAAAAAAAAAAAAAAAAAAAAAAAAAAAAAAAAAAAAAAAAAAAAAAAAAAAAAAAAAAAAAAAAAAAAAAAAAAAAAAAAAAAAAAAAAAAAAAAAAAAAAAAAAAAAAAAAAAAAAAAAAAAAAAAAAAAAAAAAAAAAAAAAAAAAAAAAAAAAAAAAAAAAAAAAAAAAAAAAAAAAAAAAAAAAAAAAAAAAAAAAAAAAAAAAAAAAAAAAAAAAAAAAAAAAAAAAAAAAAAAAAAAAAAAAAAAAAAAAAAAAAAAAAAAAAAAAAAAAAAAAAAAAAAAAAAAAAAAAAAAAAAAAAAAAAAAAAAAAAAAAAAAAAAAAAAAAAAAAAAAAAAAAAAAAAAAAAAAAAAAAAAAAAAAAAAAAAAAAAAAAAAAAAAAAAAAAAAAAAAAAAAAAAAAAAAAAAAAAAAAAAAAAAAAAAAAAAAAAAAAAAAAAAAAAAAAAAAAAAAAAAAAAAAAAAAAAAAAAAAAAAAAAAAAAAAAAAAAAAAAAAAAAAAAAAAAAAAAAAAAAAAAAAAAAAAAAAAAAAAAAAAAAAAAAAAAAAAAAAAAAAAAAAAAAAAAAAAAAAAAAAAAAAAAAAAAAAAAAAAAAAAAAAAAAAAAAAAAAAAAAAAAAAAAAAAAAAAAAAAAAAAAAAAAAAAAAAAAAAAAAAAAAAAAAAAAAAAAAAAAAAAAAAAAAAAAAAAAAAAAAAAAAAAAAAAAAAAAAAAAAAAAAAAAAAAAAAAAAAAAAAAAAAAAAAAAAAAAAAAAAAAAAAAAAAAAAAAAAAAAAAAAAAAAAAAAAAAAAAAAAAAAAAAAAAAAAAAAAAAAAAAAAAAAAAAAAAAAAAAAAAAAAAAAAAAAAAAAAAAAAAAAAAAAAAAAAAAAAAAAAAAAAAAAAAAAAAAAAAAAAAAAAAAAAAAAAAAAAAAAAAAAAAAAAAAAAAAAAAAAAAAAAAAAAAAAAAAAAAAAAAAAAAAAAAAAAAAAAAAAAAAAAAAAAAAAAAAAAAAAAAAAAAAAAAAAAAAAAAAAAAAAAAAAAAAAAAAAAAAAAAAAAAAAAAAAAAAAAAAAAAAAAAAAAAAAAAAAAAAAAAAAAAAAAAAAAAAAAAAAAAAAAAAAAAAAAAAAAAAAAAAAAAAAAAAAAAAAAAAAAAAAAAAAAAAAAAAAAAAAAAAAAAAAAAAAAAAAAAAAAAAAAAAAAAAAAAAAAAAAAAAAAAAAAAAAAAAAAAAAAAAAAAAAAAAAAAAAAAAAAAAAAAAAAAAAAAAAAAAAAAAAAAAAAAAAAAAAAAAAAAAAAAAAAAAAAAAAAAAAAAAAAAAAAAAAAAAAAAAAAAAAAAAAAAAAAAAAAAAAAAAAAAAAAAAAAAAAAAAAAAAAAAAAAAAAAAAAAAAAAAAAAAAAAAAAAAAAAAAAAAAAAAAAAAAAAAAAAAAAAAAAAAAAAAAAAAAAAAAAAAAAAAAAAAAAAAAAAAAAAAAAAAAAAAAAAAAAAAAAAAAAAAAAAAAAAAAAAAAAAAAAAAAAAAAAAAAAAAAAAAAAAAAAAAAAAAAAAAAAAAAAAAAAAAAAAAAAAAAAAAAAAAAAAAAAAAAAAAAAAAAAAAAAAAAAAAAAAAAAAAAAAAAAAAAAAAAAAAAAAAAAAAAAAAAAAAAAAAAAAAAAAAAAAAAAAAAAAAAAAAAAAAAAAAAAAAAAAAAAAAAAAAAAAAAAAAAAAAAAAAAAAAAAAAAAAAAAAAAAAAAAAAAAAAAAAAAAAAAAAAAAAAAAAAAAAAAAAAAAAAAAAAAAAAAAAAAAAAAAAAAAAAAAAAAAAAAAAAAAAAAAAAAAAAAAAAAAAAAAAAAAAAAAAAAAAAAAAAAAAAAAAAAAAAAAAAAAAAAAAAAAAAAAAAAAAAAAAAAAAAAAAAAAAAAAAAAAAAAAAAAAAAAAAAAAAAAAAAAAAAAAAAAAAAAAAAAAAAAAAAAAAAAAAAAAAAAAAAAAAAAAAAAAAAAAAAAAAAAAAAAAAAAAAAAAAAAAAAAAAAAAAAAAAAAAAAAAAAAAAAAAAAAAAAAAAAAAAAAAAAAAAAAAAAAAAAAAAAAAAAAAAAAAAAAAAAAAAAAAAAAAAAAAAAAAAAAAAAAAAAAAAAAAAAAAAAAAAAAAAAAAAAAAAAAAAAAAAAAAAAAAAAAAAAAAAAAAAAAAAAAAAAAAAAAAAAAAAAAAAAAAAAAAAAAAAAAAAAAAAAAAAAAAAAAAAAAAAAAAAAAAAAAAAAAAAAAAAAAAAAAAAAAAAAAAAAAAAAAAAAAAAAAAAAAAAAAAAAAAAAAAAAAAAAAAAAAAAAAAAAAAAAAAAAAAAAAAAAAAAAAAAAAAAAAAAAAAAAAAAAAAAAAAAAAAAAAAAAAAAAAAAAAAAAAAAAAAAAAAAAAAAAAAAAAAAAAAAAAAAAAAAAAAAAAAAAAAAAAAAAAAAAAAAAAAAAAAAAAAAAAAAAAAAAAAAAAAAAAAAAAAAAAAAAAAAAAAAAAAAAAAAAAAAAAAAAAAAAAAAAAAAAAAAAAAAAAAAAAAAAAAAAAAAAAAAAAAAAAAAAAAAAAAAAAAAAAAAAAAAAAAAAAAAAAAAAAAAAAAAAAAAAAAAAAAAAAAAAAAAAAAAAAAAAAAAAAAAAAAAAAAAAAAAAAAAAAAAAAAAAAAAAAAAAAAAAAAAAAAAAAAAAAAAAAAAAAAAAAAAAAAAAAAAAAAAAAAAAAAAAAAAAAAAAAAAAAAAAAAAAAAAAAAAAAAAAAAAAAAAAAAAAAAAAAAAAAAAAAAAAAAAAAAAAAAAAAAAAAAAAAAAAAAAAAAAAAAAAAAAAAAAAAAAAAAAAAAAAAAAAAAAAAAAAAAAAAAAAAAAAAAAAAAAAAAAAAAAAAAAAAAAAAAAAAAAAAAAAAAAAAAAAAAAAAAAAAAAAAAAAAAAAAAAAAAAAAAAAAAAAAAAAAAAAAAAAAAAAAAAAAAAAAAAAAAAAAAAAAAAAAAAAAAAAAAAAAAAAAAAAAAAAAAAAAAAAAAAAAAAAAAAAAAAAAAAAAAAAAAAAAAAAAAAAAAAAAAAAAAAAAAAAAAAAAAAAAAAAAAAAAAAAAAAAAAAAAAAAAAAAAAAAAAAAAAAAAAAAAAAAAAAAAAAAAAAAAAAAAAAAAAAAAAAAAAAAAAAAAAAAAAAAAAAAAAAAAAAAAAAAAAAAAAAAAAAAAAAAAAAAAAAAAAAAAAAAAAAAAAAAAAAAAAAAAAAAAAAAAAAAAAAAAAAAAAAAAAAAAAAAAAAAAAAAAAAAAAAAAAAAAAAAAAAAAAAAAAAAAAAAAAAAAAAAAAAAAAAAAAAAAAAAAAAAAAAAAAAAAAAAAAAAAAAAAAAAAAAAAAAAAAAAAAAAAAAAAAAAAAAAAAAAAAAPZYQAaC3NwaXSf2toTof9rRKZFUHr4/DhMap2GXbh3Bz/k6maFyMx/+SyCr7cpbE1s8RBhnYwOwwgNn0MQZxb+BW7s=</c2pa:manifest></metadata>
<!-- Ilustração original Desu Burguer — desenho, não é foto do produto. -->
<defs><linearGradient id="g1" x1="0" y1="0" x2="0" y2="1"><stop offset="0" stop-color="#26201b"/><stop offset="1" stop-color="#110d0a"/></linearGradient><radialGradient id="r2" cx="0.5" cy="0.44" r="0.6"><stop offset="0" stop-color="#ffb703" stop-opacity="0.32"/><stop offset="0.5" stop-color="#ffb703" stop-opacity="0.1"/><stop offset="1" stop-color="#ffb703" stop-opacity="0"/></radialGradient><radialGradient id="r3" cx="0.5" cy="0.5" r="0.5"><stop offset="0" stop-color="#5a4636" stop-opacity="0.55"/><stop offset="0.6" stop-color="#3a2d23" stop-opacity="0.25"/><stop offset="1" stop-color="#3a2d23" stop-opacity="0"/></radialGradient><radialGradient id="r4" cx="0.5" cy="0.5" r="0.72"><stop offset="0.55" stop-color="#000" stop-opacity="0"/><stop offset="1" stop-color="#000" stop-opacity="0.6"/></radialGradient><filter id="f5" x="-60%" y="-60%" width="220%" height="220%"><feGaussianBlur stdDeviation="7"/></filter><filter id="f6" x="-60%" y="-60%" width="220%" height="220%"><feGaussianBlur stdDeviation="2.5"/></filter><clipPath id="c7"><path d="M10.2,-150 C13.7,-149 10.17,-146.33 10.8,-144 C11.43,-141.67 12.55,-138.83 14,-136 C15.45,-133.17 17.75,-130.17 19.5,-127 C21.25,-123.83 23.28,-120.33 24.5,-117 C25.72,-113.67 26.38,-109.83 26.8,-107 C27.22,-104.17 27.3,-103.17 27,-100 C26.7,-96.83 25.5,-91.83 25,-88 C24.5,-84.17 24,-80.67 24,-77 C24,-73.33 24.5,-69.83 25,-66 C25.5,-62.17 26.67,-59 27,-54 C27.33,-49 27.07,-41.67 27,-36 C26.93,-30.33 26.87,-24.17 26.6,-20 C26.33,-15.83 26,-13.5 25.4,-11 C24.8,-8.5 24.4,-6.63 23,-5 C21.6,-3.37 19.33,-1.33 17,-1.2 C14.67,-1.07 11.83,-4.4 9,-4.2 C6.17,-4 3,0 0,0 C-3,0 -6.17,-4 -9,-4.2 C-11.83,-4.4 -14.67,-1.07 -17,-1.2 C-19.33,-1.33 -21.6,-3.37 -23,-5 C-24.4,-6.63 -24.8,-8.5 -25.4,-11 C-26,-13.5 -26.33,-15.83 -26.6,-20 C-26.87,-24.17 -26.93,-30.33 -27,-36 C-27.07,-41.67 -27.33,-49 -27,-54 C-26.67,-59 -25.5,-62.17 -25,-66 C-24.5,-69.83 -24,-73.33 -24,-77 C-24,-80.67 -24.5,-84.17 -25,-88 C-25.5,-91.83 -26.7,-96.83 -27,-100 C-27.3,-103.17 -27.22,-104.17 -26.8,-107 C-26.38,-109.83 -25.72,-113.67 -24.5,-117 C-23.28,-120.33 -21.25,-123.83 -19.5,-127 C-17.75,-130.17 -15.45,-133.17 -14,-136 C-12.55,-138.83 -11.43,-141.67 -10.8,-144 C-10.17,-146.33 -13.7,-149 -10.2,-150 C-6.7,-151 6.7,-151 10.2,-150Z"/></clipPath><clipPath id="c8"><path d="M-60,-126 H60 V10 H-60Z"/></clipPath><linearGradient id="g9" x1="0" y1="0" x2="1" y2="0"><stop offset="0" stop-color="#3a1206"/><stop offset="0.07" stop-color="#7d3412"/><stop offset="0.16" stop-color="#3f1407"/><stop offset="0.5" stop-color="#200903"/><stop offset="0.78" stop-color="#361105"/><stop offset="0.88" stop-color="#8e3d15"/><stop offset="0.95" stop-color="#d07332"/><stop offset="1" stop-color="#4a1907"/></linearGradient><radialGradient id="r10" cx="0.4" cy="0.4" r="0.5"><stop offset="0" stop-color="#9a5228"/><stop offset="1" stop-color="#5a2309"/></radialGradient><linearGradient id="g11" x1="0" y1="0" x2="1" y2="0"><stop offset="0" stop-color="#fff" stop-opacity="0.34"/><stop offset="0.04" stop-color="#fff" stop-opacity="0.1"/><stop offset="0.14" stop-color="#fff" stop-opacity="0.02"/><stop offset="0.5" stop-color="#fff" stop-opacity="0.01"/><stop offset="0.86" stop-color="#fff" stop-opacity="0.03"/><stop offset="0.96" stop-color="#fff" stop-opacity="0.12"/><stop offset="1" stop-color="#fff" stop-opacity="0.38"/></linearGradient><linearGradient id="g12" x1="0" y1="0" x2="0" y2="1"><stop offset="0" stop-color="#000" stop-opacity="0"/><stop offset="0.6" stop-color="#000" stop-opacity="0.05"/><stop offset="1" stop-color="#000" stop-opacity="0.45"/></linearGradient><filter id="f13" x="-60%" y="-60%" width="220%" height="220%"><feGaussianBlur stdDeviation="1.6"/></filter><filter id="f14" x="-60%" y="-60%" width="220%" height="220%"><feGaussianBlur stdDeviation="0.4"/></filter><filter id="f15" x="-60%" y="-60%" width="220%" height="220%"><feGaussianBlur stdDeviation="0.7"/></filter><filter id="f16" x="-60%" y="-60%" width="220%" height="220%"><feGaussianBlur stdDeviation="0.6"/></filter><linearGradient id="g17" x1="0" y1="0" x2="0" y2="1"><stop offset="0" stop-color="#34343a"/><stop offset="1" stop-color="#17171a"/></linearGradient><clipPath id="c18"><path d="M-26.93,-96 A26.93 4.04 0 0 0 26.93,-96 L26.14,-91.25 L25.46,-86.5 L25.03,-81.75 L24.6,-77 L25.03,-72.25 L25.46,-67.5 L26.14,-62.75 L26.93,-58 A26.93 4.04 0 0 1 -26.93,-58 L-26.14,-62.75 L-25.46,-67.5 L-25.03,-72.25 L-24.6,-77 L-25.03,-81.75 L-25.46,-86.5 L-26.14,-91.25 L-26.93,-96 Z"/></clipPath><linearGradient id="g19" x1="0" y1="0" x2="0" y2="1"><stop offset="0" stop-color="#ffcf3f"/><stop offset="1" stop-color="#f29e00"/></linearGradient><linearGradient id="g20" x1="0" y1="0" x2="1" y2="0"><stop offset="0" stop-color="#000" stop-opacity="0.38"/><stop offset="0.08" stop-color="#000" stop-opacity="0.12"/><stop offset="0.24" stop-color="#fff" stop-opacity="0.2"/><stop offset="0.38" stop-color="#fff" stop-opacity="0.04"/><stop offset="0.62" stop-color="#000" stop-opacity="0.08"/><stop offset="0.84" stop-color="#000" stop-opacity="0.28"/><stop offset="0.93" stop-color="#ffe9c2" stop-opacity="0.14"/><stop offset="1" stop-color="#000" stop-opacity="0.4"/></linearGradient><filter id="f21" x="-60%" y="-60%" width="220%" height="220%"><feGaussianBlur stdDeviation="0.8"/></filter><radialGradient id="r22" cx="0.45" cy="0.4" r="0.5"><stop offset="0" stop-color="#fff" stop-opacity="0.02"/><stop offset="0.55" stop-color="#fff" stop-opacity="0.1"/><stop offset="0.85" stop-color="#000" stop-opacity="0.18"/><stop offset="1" stop-color="#000" stop-opacity="0.4"/></radialGradient><linearGradient id="g23" x1="0" y1="0" x2="1" y2="0"><stop offset="0" stop-color="#fff" stop-opacity="0.25"/><stop offset="0.25" stop-color="#fff" stop-opacity="0.7"/><stop offset="0.6" stop-color="#fff" stop-opacity="0.2"/><stop offset="1" stop-color="#fff" stop-opacity="0.45"/></linearGradient><linearGradient id="g24" x1="0" y1="0" x2="1" y2="0"><stop offset="0" stop-color="#b77900"/><stop offset="0.22" stop-color="#ffd45e"/><stop offset="0.45" stop-color="#ffb703"/><stop offset="0.8" stop-color="#b77900"/><stop offset="0.92" stop-color="#ffb703"/><stop offset="1" stop-color="#b77900"/></linearGradient><clipPath id="c25"><path d="M-12,-168 Q-12,-170 -10,-170 H10 Q12,-170 12,-168 V-155 H-12Z"/></clipPath><filter id="f26" x="-60%" y="-60%" width="220%" height="220%"><feGaussianBlur stdDeviation="1"/></filter><clipPath id="c27"><path d="M-9.88,-4.57 C-8.9,-6.45 -3.29,-10.96 -1.29,-11.21 C0.71,-11.46 8.26,-8.79 9.45,-7.01 C10.64,-5.23 11.17,4.14 10.23,6.01 C9.29,7.87 2.53,10.97 0.36,11.07 C-1.81,11.16 -9.71,8.55 -10.77,6.93 C-11.83,5.32 -10.86,-2.7 -9.88,-4.57Z"/></clipPath><linearGradient id="g28" x1="0" y1="0" x2="1" y2="1"><stop offset="0" stop-color="#f2fbff" stop-opacity="0.62"/><stop offset="0.55" stop-color="#bfe4ff" stop-opacity="0.36"/><stop offset="1" stop-color="#7fbfee" stop-opacity="0.42"/></linearGradient><linearGradient id="g29" x1="0" y1="0" x2="1" y2="1"><stop offset="0" stop-color="#fff" stop-opacity="0.75"/><stop offset="1" stop-color="#fff" stop-opacity="0.35"/></linearGradient><linearGradient id="g30" x1="0" y1="0" x2="1" y2="1"><stop offset="0" stop-color="#fff" stop-opacity="0.32"/><stop offset="1" stop-color="#fff" stop-opacity="0.04"/></linearGradient><linearGradient id="g31" x1="0" y1="0" x2="1" y2="1"><stop offset="0" stop-color="#2a6fa8" stop-opacity="0.12"/><stop offset="1" stop-color="#164a7a" stop-opacity="0.38"/></linearGradient><filter id="f32" x="-60%" y="-60%" width="220%" height="220%"><feGaussianBlur stdDeviation="1.68"/></filter><filter id="f33" x="-60%" y="-60%" width="220%" height="220%"><feGaussianBlur stdDeviation="0.5"/></filter><clipPath id="c34"><path d="M-9.83,-5.41 C-8.88,-7.01 -2.86,-10.35 -0.85,-10.5 C1.15,-10.66 8.6,-8.5 9.57,-6.91 C10.53,-5.31 9.49,3.27 8.47,4.95 C7.45,6.64 1.61,9.38 -0.31,9.37 C-2.23,9.37 -9.14,6.45 -10.13,4.92 C-11.11,3.39 -10.79,-3.82 -9.83,-5.41Z"/></clipPath><filter id="f35" x="-60%" y="-60%" width="220%" height="220%"><feGaussianBlur stdDeviation="1.52"/></filter></defs>
<rect width="400" height="300" fill="url(#g1)"/><rect width="400" height="300" fill="url(#r2)"/><ellipse cx="200" cy="258" rx="230" ry="52" fill="url(#r3)"/><rect width="400" height="300" fill="url(#r4)"/><ellipse cx="203" cy="251" rx="37.8" ry="10.5" fill="#000" opacity="0.5" filter="url(#f5)"/><ellipse cx="203" cy="250" rx="29.52" ry="3.85" fill="#000" opacity="0.55" filter="url(#f6)"/><g transform="translate(200,252) scale(1.1)"><path d="M10.2,-150 C13.7,-149 10.17,-146.33 10.8,-144 C11.43,-141.67 12.55,-138.83 14,-136 C15.45,-133.17 17.75,-130.17 19.5,-127 C21.25,-123.83 23.28,-120.33 24.5,-117 C25.72,-113.67 26.38,-109.83 26.8,-107 C27.22,-104.17 27.3,-103.17 27,-100 C26.7,-96.83 25.5,-91.83 25,-88 C24.5,-84.17 24,-80.67 24,-77 C24,-73.33 24.5,-69.83 25,-66 C25.5,-62.17 26.67,-59 27,-54 C27.33,-49 27.07,-41.67 27,-36 C26.93,-30.33 26.87,-24.17 26.6,-20 C26.33,-15.83 26,-13.5 25.4,-11 C24.8,-8.5 24.4,-6.63 23,-5 C21.6,-3.37 19.33,-1.33 17,-1.2 C14.67,-1.07 11.83,-4.4 9,-4.2 C6.17,-4 3,0 0,0 C-3,0 -6.17,-4 -9,-4.2 C-11.83,-4.4 -14.67,-1.07 -17,-1.2 C-19.33,-1.33 -21.6,-3.37 -23,-5 C-24.4,-6.63 -24.8,-8.5 -25.4,-11 C-26,-13.5 -26.33,-15.83 -26.6,-20 C-26.87,-24.17 -26.93,-30.33 -27,-36 C-27.07,-41.67 -27.33,-49 -27,-54 C-26.67,-59 -25.5,-62.17 -25,-66 C-24.5,-69.83 -24,-73.33 -24,-77 C-24,-80.67 -24.5,-84.17 -25,-88 C-25.5,-91.83 -26.7,-96.83 -27,-100 C-27.3,-103.17 -27.22,-104.17 -26.8,-107 C-26.38,-109.83 -25.72,-113.67 -24.5,-117 C-23.28,-120.33 -21.25,-123.83 -19.5,-127 C-17.75,-130.17 -15.45,-133.17 -14,-136 C-12.55,-138.83 -11.43,-141.67 -10.8,-144 C-10.17,-146.33 -13.7,-149 -10.2,-150 C-6.7,-151 6.7,-151 10.2,-150Z" fill="#fff" fill-opacity=".05" stroke="#fff" stroke-opacity=".14" stroke-width=".7"/><g clip-path="url(#c8)"><path d="M7.9,-150 C10.63,-149 7.87,-146.33 8.5,-144 C9.13,-141.67 10.25,-138.83 11.7,-136 C13.15,-133.17 15.45,-130.17 17.2,-127 C18.95,-123.83 20.98,-120.33 22.2,-117 C23.42,-113.67 24.08,-109.83 24.5,-107 C24.92,-104.17 25,-103.17 24.7,-100 C24.4,-96.83 23.2,-91.83 22.7,-88 C22.2,-84.17 21.7,-80.67 21.7,-77 C21.7,-73.33 22.2,-69.83 22.7,-66 C23.2,-62.17 24.37,-59 24.7,-54 C25.03,-49 24.77,-41.67 24.7,-36 C24.63,-30.33 24.57,-24.17 24.3,-20 C24.03,-15.83 23.7,-13.5 23.1,-11 C22.5,-8.5 22,-6.2 20.7,-5 C19.4,-3.8 17.4,-3.5 15.3,-3.8 C13.2,-4.1 10.65,-7 8.1,-6.8 C5.55,-6.6 2.7,-2.6 0,-2.6 C-2.7,-2.6 -5.55,-6.6 -8.1,-6.8 C-10.65,-7 -13.2,-4.1 -15.3,-3.8 C-17.4,-3.5 -19.4,-3.8 -20.7,-5 C-22,-6.2 -22.5,-8.5 -23.1,-11 C-23.7,-13.5 -24.03,-15.83 -24.3,-20 C-24.57,-24.17 -24.63,-30.33 -24.7,-36 C-24.77,-41.67 -25.03,-49 -24.7,-54 C-24.37,-59 -23.2,-62.17 -22.7,-66 C-22.2,-69.83 -21.7,-73.33 -21.7,-77 C-21.7,-80.67 -22.2,-84.17 -22.7,-88 C-23.2,-91.83 -24.4,-96.83 -24.7,-100 C-25,-103.17 -24.92,-104.17 -24.5,-107 C-24.08,-109.83 -23.42,-113.67 -22.2,-117 C-20.98,-120.33 -18.95,-123.83 -17.2,-127 C-15.45,-130.17 -13.15,-133.17 -11.7,-136 C-10.25,-138.83 -9.13,-141.67 -8.5,-144 C-7.87,-146.33 -10.63,-149 -7.9,-150 C-5.17,-151 5.17,-151 7.9,-150Z" fill="url(#g9)"/><g fill="#fff" fill-opacity=".14" stroke="#ffd9b0" stroke-opacity="0.55" stroke-width=".55"><circle cx="2.06" cy="-11.89" r="0.93"/><circle cx="9.25" cy="-62.35" r="1.39"/><circle cx="-8.73" cy="-74.06" r="0.67"/><circle cx="4.84" cy="-114.28" r="1.11"/><circle cx="9.42" cy="-98.38" r="0.55"/><circle cx="2.01" cy="-16.02" r="0.85"/><circle cx="-10.87" cy="-118.54" r="1.05"/><circle cx="4.22" cy="-100.73" r="0.8"/><circle cx="7.01" cy="-71.37" r="0.49"/><circle cx="-16.07" cy="-45.54" r="0.69"/><circle cx="-11.41" cy="-45.03" r="0.62"/><circle cx="4.73" cy="-65.36" r="0.5"/><circle cx="3.07" cy="-45.09" r="0.5"/><circle cx="-17.93" cy="-57.26" r="1"/><circle cx="-4.23" cy="-52.45" r="0.82"/><circle cx="-11.21" cy="-31.59" r="0.92"/><circle cx="-15.43" cy="-65.09" r="1.31"/><circle cx="10.69" cy="-101.4" r="0.74"/></g></g><ellipse cx="0" cy="-126" rx="17.7" ry="2.83" fill="url(#r10)"/><ellipse cx="0" cy="-126" rx="17.7" ry="2.83" fill="none" stroke="#f3d2a8" stroke-opacity=".35" stroke-width=".9"/><g fill="#fff3e0" opacity=".75"><circle cx="16.7" cy="-125.53" r="0.68"/><circle cx="-3.94" cy="-123.52" r="0.78"/><circle cx="-15.61" cy="-124.99" r="0.52"/><circle cx="-13.63" cy="-124.48" r="1.02"/><circle cx="13.85" cy="-124.52" r="0.81"/><circle cx="16.25" cy="-125.26" r="0.85"/><circle cx="-8.86" cy="-123.83" r="0.67"/><circle cx="-12.29" cy="-124.24" r="0.65"/><circle cx="16.14" cy="-125.2" r="0.79"/><circle cx="-10.86" cy="-124.04" r="0.68"/><circle cx="12.2" cy="-124.23" r="0.89"/><circle cx="-7.81" cy="-123.74" r="0.58"/><circle cx="13.81" cy="-124.51" r="0.87"/><circle cx="-12.44" cy="-124.26" r="0.59"/><circle cx="-6.53" cy="-123.65" r="0.9"/><circle cx="16.36" cy="-125.31" r="0.91"/></g><g clip-path="url(#c7)"><rect x="-27" y="-150" width="54" height="150" fill="url(#g11)"/><rect x="-27" y="-126" width="54" height="126" fill="url(#g12)"/><path d="M-26.89,-104 A26.89 4.03 0 0 0 26.89,-104" fill="none" stroke="#000" stroke-opacity=".35" stroke-width="1.3"/><path d="M-26.89,-102.4 A26.89 4.03 0 0 0 26.89,-102.4" fill="none" stroke="#fff" stroke-opacity=".3" stroke-width=".9"/><path d="M-27,-50 A27 4.05 0 0 0 27,-50" fill="none" stroke="#000" stroke-opacity=".35" stroke-width="1.3"/><path d="M-27,-48.4 A27 4.05 0 0 0 27,-48.4" fill="none" stroke="#fff" stroke-opacity=".3" stroke-width=".9"/><path d="M-9.18,-140 L-17.39,-119 L-19.73,-98 L-17.76,-77 L-19.73,-56 L-19.96,-35 L-19.09,-14 L-14.45,-14 L-15.11,-35 L-14.93,-56 L-13.44,-77 L-14.93,-98 L-13.16,-119 L-6.94,-140Z" fill="#fff" opacity=".2" filter="url(#f13)"/><path d="M-8.96,-144 L-18.26,-122 L-22.41,-100 L-20,-78 L-22.13,-56 L-22.37,-34 L-21.19,-12 L-19.92,-12 L-21.02,-34 L-20.8,-56 L-18.79,-78 L-21.06,-100 L-17.16,-122 L-8.42,-144Z" fill="#fff" opacity=".85" filter="url(#f14)"/><path d="M12.18,-134 L20.21,-113.67 L20.71,-93.33 L19.49,-73 L21.6,-52.67 L21.53,-32.33 L20.43,-12 L22.47,-12 L23.68,-32.33 L23.76,-52.67 L21.44,-73 L22.78,-93.33 L22.23,-113.67 L13.4,-134Z" fill="#ffe9c2" opacity=".42" filter="url(#f15)"/><path d="M7.77,-130 L11.32,-111.67 L11.39,-93.33 L10.64,-75 L11.68,-56.67 L11.88,-38.33 L11.7,-20 L12.77,-20 L12.96,-38.33 L12.75,-56.67 L11.61,-75 L12.43,-93.33 L12.35,-111.67 L8.48,-130Z" fill="#fff" opacity=".18" filter="url(#f16)"/></g><path d="M-26.93,-96 A26.93 4.04 0 0 0 26.93,-96 L26.14,-91.25 L25.46,-86.5 L25.03,-81.75 L24.6,-77 L25.03,-72.25 L25.46,-67.5 L26.14,-62.75 L26.93,-58 A26.93 4.04 0 0 1 -26.93,-58 L-26.14,-62.75 L-25.46,-67.5 L-25.03,-72.25 L-24.6,-77 L-25.03,-81.75 L-25.46,-86.5 L-26.14,-91.25 L-26.93,-96 Z" fill="url(#g17)"/><g clip-path="url(#c18)"><path d="M-29,-77 A29 4.06 0 0 0 29,-77 L29,-62.56 A29 4.06 0 0 1 -29,-62.56 Z" fill="url(#g19)"/><path d="M-29,-92.5 A29 4.35 0 0 0 29,-92.5" fill="none" stroke="#ffb703" stroke-width="1.6"/><path d="M-29,-60.5 A29 4.35 0 0 0 29,-60.5" fill="none" stroke="#ffb703" stroke-width="1.2"/><g fill="none" stroke="#ffb703" stroke-opacity=".7" stroke-width="1"><circle cx="-17.76" cy="-86.46" r="2.75"/><circle cx="-17.05" cy="-84.51" r="3.11"/><circle cx="-18.7" cy="-82.24" r="3.28"/><circle cx="17.47" cy="-86.61" r="2.5"/><circle cx="12.22" cy="-87.2" r="1.49"/></g><circle cx="0" cy="-75" r="11.34" fill="#232327"/><circle cx="0" cy="-75" r="9.84" fill="none" stroke="#000" stroke-opacity=".15" stroke-width="1"/><text x="0" y="-70.92" font-family="Arial, Helvetica, sans-serif" font-size="11.91" font-weight="900" text-anchor="middle" fill="#ffb703">D</text><circle cx="0" cy="-75" r="12.94" fill="none" stroke="#ffb703" stroke-width="1"/><path d="M-26.93,-96 A26.93 4.04 0 0 0 26.93,-96 L26.14,-91.25 L25.46,-86.5 L25.03,-81.75 L24.6,-77 L25.03,-72.25 L25.46,-67.5 L26.14,-62.75 L26.93,-58 A26.93 4.04 0 0 1 -26.93,-58 L-26.14,-62.75 L-25.46,-67.5 L-25.03,-72.25 L-24.6,-77 L-25.03,-81.75 L-25.46,-86.5 L-26.14,-91.25 L-26.93,-96 Z" fill="url(#g20)"/><path d="M-16.12,-94 L-14.88,-77 L-16.12,-60 L-14.04,-60 L-12.96,-77 L-14.04,-94Z" fill="#fff" opacity=".35" filter="url(#f21)"/></g><g clip-path="url(#c7)"><g fill="url(#r22)"><circle cx="20.62" cy="-96.89" r="1.24"/><circle cx="-22.4" cy="-16.08" r="1.29"/><circle cx="10.33" cy="-27.15" r="0.88"/><circle cx="-23.79" cy="-45.85" r="1.57"/><circle cx="-5.88" cy="-29.23" r="1.91"/><circle cx="1.75" cy="-31.67" r="0.81"/><circle cx="11.11" cy="-36.74" r="1.55"/><circle cx="7.53" cy="-84.04" r="0.77"/><circle cx="18.19" cy="-13.47" r="1.33"/><circle cx="16.83" cy="-50.25" r="0.93"/><circle cx="-20.46" cy="-87.82" r="1.8"/><circle cx="-11.45" cy="-13.84" r="2.09"/><circle cx="3.62" cy="-112.04" r="1.5"/><circle cx="-7.55" cy="-110.14" r="1.24"/><circle cx="-12.65" cy="-61.92" r="1.8"/><circle cx="22.33" cy="-64.04" r="1.92"/><circle cx="-8.38" cy="-77.25" r="0.8"/><circle cx="5.09" cy="-54.63" r="1.42"/><circle cx="8.2" cy="-64.54" r="1.79"/><circle cx="-17.12" cy="-105.57" r="2.07"/><circle cx="1.21" cy="-69.13" r="0.94"/><circle cx="17.25" cy="-119.06" r="2.02"/></g><g fill="none" stroke="#fff" stroke-opacity=".45" stroke-linecap="round"><path d="M-24.57,-45.15 Q-23.79,-44.52 -22.92,-45.38" stroke-width="0.44"/><path d="M-6.84,-28.37 Q-5.88,-27.6 -4.83,-28.65" stroke-width="0.54"/><path d="M10.34,-36.04 Q11.11,-35.42 11.96,-36.27" stroke-width="0.43"/><path d="M17.53,-12.88 Q18.19,-12.34 18.92,-13.07" stroke-width="0.37"/><path d="M-21.36,-87.01 Q-20.46,-86.29 -19.47,-87.28" stroke-width="0.5"/><path d="M-12.5,-12.9 Q-11.45,-12.07 -10.3,-13.22" stroke-width="0.59"/><path d="M2.87,-111.37 Q3.62,-110.77 4.44,-111.59" stroke-width="0.42"/><path d="M-13.56,-61.11 Q-12.65,-60.39 -11.66,-61.38" stroke-width="0.51"/><path d="M21.37,-63.18 Q22.33,-62.41 23.39,-63.47" stroke-width="0.54"/><path d="M4.38,-53.99 Q5.09,-53.42 5.87,-54.2" stroke-width="0.4"/><path d="M7.3,-63.73 Q8.2,-63.01 9.18,-64" stroke-width="0.5"/><path d="M-18.15,-104.64 Q-17.12,-103.81 -15.98,-104.95" stroke-width="0.58"/><path d="M16.24,-118.14 Q17.25,-117.33 18.36,-118.45" stroke-width="0.57"/></g><g fill="#fff" opacity=".9"><circle cx="20.19" cy="-97.36" r="0.37"/><circle cx="-22.85" cy="-16.57" r="0.39"/><circle cx="10.03" cy="-27.48" r="0.35"/><circle cx="-24.33" cy="-46.45" r="0.47"/><circle cx="-6.55" cy="-29.96" r="0.57"/><circle cx="1.46" cy="-31.97" r="0.35"/><circle cx="10.57" cy="-37.32" r="0.46"/><circle cx="7.26" cy="-84.33" r="0.35"/><circle cx="17.73" cy="-13.98" r="0.4"/><circle cx="16.5" cy="-50.6" r="0.35"/><circle cx="-21.09" cy="-88.5" r="0.54"/><circle cx="-12.19" cy="-14.64" r="0.63"/><circle cx="3.1" cy="-112.61" r="0.45"/><circle cx="-7.99" cy="-110.61" r="0.37"/><circle cx="-13.28" cy="-62.61" r="0.54"/><circle cx="21.66" cy="-64.77" r="0.57"/><circle cx="-8.66" cy="-77.55" r="0.35"/><circle cx="4.59" cy="-55.17" r="0.43"/><circle cx="7.57" cy="-65.22" r="0.54"/><circle cx="-17.84" cy="-106.36" r="0.62"/><circle cx="0.88" cy="-69.49" r="0.35"/><circle cx="16.54" cy="-119.82" r="0.61"/></g><path d="M7.53,-84.04 q-0.76,7.81 -1.18,15.62" fill="none" stroke="#fff" stroke-opacity=".22" stroke-width="1.8" stroke-linecap="round"/><circle cx="7.53" cy="-68.42" r="1.9" fill="url(#r22)"/><circle cx="6.93" cy="-69.12" r=".6" fill="#fff" opacity=".9"/><path d="M-20.46,-87.82 q0.85,7.45 -1.47,14.9" fill="none" stroke="#fff" stroke-opacity=".22" stroke-width="1.8" stroke-linecap="round"/><circle cx="-20.46" cy="-72.92" r="1.9" fill="url(#r22)"/><circle cx="-21.06" cy="-73.62" r=".6" fill="#fff" opacity=".9"/></g><rect x="-14" y="-151.5" width="28" height="2.5" rx="1.4" fill="url(#g23)"/><rect x="-10" y="-156" width="20" height="5" fill="#fff" opacity=".22"/><path d="M-12,-168 Q-12,-170 -10,-170 H10 Q12,-170 12,-168 V-155 H-12Z" fill="url(#g24)"/><g clip-path="url(#c25)" stroke="#000" stroke-opacity=".22" stroke-width=".8"><path d="M-9.6,-168.5 V-159.5"/><path d="M-7.2,-168.5 V-159.5"/><path d="M-4.8,-168.5 V-159.5"/><path d="M-2.4,-168.5 V-159.5"/><path d="M0,-168.5 V-159.5"/><path d="M2.4,-168.5 V-159.5"/><path d="M4.8,-168.5 V-159.5"/><path d="M7.2,-168.5 V-159.5"/><path d="M9.6,-168.5 V-159.5"/></g><path d="M-12,-159 H12" stroke="#000" stroke-opacity=".35" stroke-width="1"/><ellipse cx="0" cy="-169.4" rx="10.8" ry="1.92" fill="#ffd45e" opacity=".85"/><rect x="-7.44" y="-168" width="2.4" height="9" fill="#fff" opacity=".4" filter="url(#f16)"/></g><ellipse cx="152" cy="259.5" rx="11.55" ry="2.31" fill="#000" opacity=".5" filter="url(#f13)"/><ellipse cx="151" cy="260.6" rx="16.38" ry="3.15" fill="#cfeaff" opacity=".1"/><path d="M135.3,260.8 q14.7,4.2 30.45,-.2" fill="none" stroke="#fff" stroke-opacity=".3" stroke-width=".8" stroke-linecap="round"/><ellipse cx="156.3" cy="260.2" rx="4.62" ry="1.05" fill="#bfe4ff" opacity=".35" filter="url(#f26)"/><g transform="translate(150,249.5) rotate(-8)"><path d="M-9.88,-4.57 C-8.9,-6.45 -3.29,-10.96 -1.29,-11.21 C0.71,-11.46 8.26,-8.79 9.45,-7.01 C10.64,-5.23 11.17,4.14 10.23,6.01 C9.29,7.87 2.53,10.97 0.36,11.07 C-1.81,11.16 -9.71,8.55 -10.77,6.93 C-11.83,5.32 -10.86,-2.7 -9.88,-4.57Z" fill="url(#g28)"/><g clip-path="url(#c27)"><path d="M-9.88,-4.57 L-1.29,-11.21 L9.45,-7.01 L0.6,-2.52Z" fill="url(#g29)"/><path d="M-9.88,-4.57 L0.6,-2.52 L0.36,11.07 L-10.77,6.93Z" fill="url(#g30)"/><path d="M0.6,-2.52 L9.45,-7.01 L10.23,6.01 L0.36,11.07Z" fill="url(#g31)"/><ellipse cx="-0.53" cy="1.26" rx="4.41" ry="3.15" fill="#fff" opacity=".42" filter="url(#f32)"/><path d="M0.36,11.07 L0.6,-2.52 L-9.88,-4.57 M0.6,-2.52 L9.45,-7.01" fill="none" stroke="#fff" stroke-opacity=".8" stroke-width="0.94" stroke-linejoin="round"/><path d="M10.23,6.01 L0.36,11.07 L-10.77,6.93" fill="none" stroke="#e6f6ff" stroke-opacity=".9" stroke-width="1.26" stroke-linejoin="round" filter="url(#f33)"/><circle cx="4.41" cy="1.89" r="0.94" fill="#fff" opacity=".7"/><circle cx="-4.2" cy="3.99" r="0.63" fill="#fff" opacity=".6"/></g><path d="M-9.88,-4.57 C-8.9,-6.45 -3.29,-10.96 -1.29,-11.21 C0.71,-11.46 8.26,-8.79 9.45,-7.01 C10.64,-5.23 11.17,4.14 10.23,6.01 C9.29,7.87 2.53,10.97 0.36,11.07 C-1.81,11.16 -9.71,8.55 -10.77,6.93 C-11.83,5.32 -10.86,-2.7 -9.88,-4.57Z" fill="none" stroke="#fff" stroke-opacity=".7" stroke-width="0.84"/><ellipse cx="-4.41" cy="-4.83" rx="3.15" ry="0.94" fill="#fff" transform="rotate(-27 -4.41 -4.83)"/><circle cx="6.51" cy="-5.25" r="0.74" fill="#fff"/></g><ellipse cx="256" cy="261.5" rx="10.45" ry="2.09" fill="#000" opacity=".5" filter="url(#f13)"/><ellipse cx="255" cy="262.6" rx="14.82" ry="2.85" fill="#cfeaff" opacity=".1"/><path d="M240.7,262.8 q13.3,3.8 27.55,-.2" fill="none" stroke="#fff" stroke-opacity=".3" stroke-width=".8" stroke-linecap="round"/><ellipse cx="259.7" cy="262.2" rx="4.18" ry="0.95" fill="#bfe4ff" opacity=".35" filter="url(#f26)"/><g transform="translate(254,252.5) rotate(10)"><path d="M-9.83,-5.41 C-8.88,-7.01 -2.86,-10.35 -0.85,-10.5 C1.15,-10.66 8.6,-8.5 9.57,-6.91 C10.53,-5.31 9.49,3.27 8.47,4.95 C7.45,6.64 1.61,9.38 -0.31,9.37 C-2.23,9.37 -9.14,6.45 -10.13,4.92 C-11.11,3.39 -10.79,-3.82 -9.83,-5.41Z" fill="url(#g28)"/><g clip-path="url(#c34)"><path d="M-9.83,-5.41 L-0.85,-10.5 L9.57,-6.91 L0.08,-2.28Z" fill="url(#g29)"/><path d="M-9.83,-5.41 L0.08,-2.28 L-0.31,9.37 L-10.13,4.92Z" fill="url(#g30)"/><path d="M0.08,-2.28 L9.57,-6.91 L8.47,4.95 L-0.31,9.37Z" fill="url(#g31)"/><ellipse cx="-0.48" cy="1.14" rx="3.99" ry="2.85" fill="#fff" opacity=".42" filter="url(#f35)"/><path d="M-0.31,9.37 L0.08,-2.28 L-9.83,-5.41 M0.08,-2.28 L9.57,-6.91" fill="none" stroke="#fff" stroke-opacity=".8" stroke-width="0.85" stroke-linejoin="round"/><path d="M8.47,4.95 L-0.31,9.37 L-10.13,4.92" fill="none" stroke="#e6f6ff" stroke-opacity=".9" stroke-width="1.14" stroke-linejoin="round" filter="url(#f33)"/><circle cx="3.99" cy="1.71" r="0.85" fill="#fff" opacity=".7"/><circle cx="-3.8" cy="3.61" r="0.57" fill="#fff" opacity=".6"/></g><path d="M-9.83,-5.41 C-8.88,-7.01 -2.86,-10.35 -0.85,-10.5 C1.15,-10.66 8.6,-8.5 9.57,-6.91 C10.53,-5.31 9.49,3.27 8.47,4.95 C7.45,6.64 1.61,9.38 -0.31,9.37 C-2.23,9.37 -9.14,6.45 -10.13,4.92 C-11.11,3.39 -10.79,-3.82 -9.83,-5.41Z" fill="none" stroke="#fff" stroke-opacity=".7" stroke-width="0.76"/><ellipse cx="-3.99" cy="-4.37" rx="2.85" ry="0.85" fill="#fff" transform="rotate(-27 -3.99 -4.37)"/><circle cx="5.89" cy="-4.75" r="0.67" fill="#fff"/></g>
</svg>
