<svg xmlns="http://www.w3.org/2000/svg" viewBox="0 0 400 300" role="img" aria-label="Ilustração de lata de refrigerante" xmlns:c2pa="http://c2pa.org/manifest"><metadata><c2pa:manifest>AAAWgmp1bWIAAAAeanVtZGMycGEAEQAQgAAAqgA4m3EDYzJwYQAAABZcanVtYgAAAEdqdW1kYzJtYQARABCAAACqADibcQN1cm46YzJwYToxZjdjMzMwMC1iZWEzLTQ4ODMtODAyNC0wOGExZTEwZjliZDAAAAADl2p1bWIAAAApanVtZGMyYXMAEQAQgAAAqgA4m3EDYzJwYS5hc3NlcnRpb25zAAAAALxqdW1iAAAARGp1bWRjYm9yABEAEIAAAKoAOJtxE2MycGEuaW5ncmVkaWVudC52MwAAAAAYYzJzaNMyKlHzefU2EBOMehNZoD8AAABwY2JvcqNpZGM6Zm9ybWF0bWltYWdlL3N2Zyt4bWxqaW5zdGFuY2VJRHgseG1wOmlpZDo1Y2ViN2EzZS04Y2FhLTRhZDEtOTdmYS1jY2VlMGY1ODNiMzVscmVsYXRpb25zaGlwaHBhcmVudE9mAAAB4mp1bWIAAABBanVtZGNib3IAEQAQgAAAqgA4m3ETYzJwYS5hY3Rpb25zLnYyAAAAABhjMnNol7F7G4Aoh3JBchqAwSPjIAAAAZljYm9yomdhY3Rpb25zgqJmYWN0aW9ua2MycGEub3BlbmVkanBhcmFtZXRlcnOha2luZ3JlZGllbnRzgaJjdXJseC1zZWxmI2p1bWJmPWMycGEuYXNzZXJ0aW9ucy9jMnBhLmluZ3JlZGllbnQudjNkaGFzaFggYA2OBJXbvWmSxsatpqwLqerXCNfa0SHIeBVoF+ym6KikZmFjdGlvbngdY29tLmFudGhyb3BpYy5jbGF1ZGUucHJvdmlkZWRqcGFyYW1ldGVyc6F4H2NvbS5hbnRocm9waWMub3JpZ2luLWNvbmZpZGVuY2VndW5rbm93bmtkZXNjcmlwdGlvbnhmQ2xhdWRlIHByb3ZpZGVkIHRoaXMgZmlsZSBhdCB0aGUgcmVxdWVzdCBvZiBhIHVzZXIgYW5kIG1heSBoYXZlIGNyZWF0ZWQgb3IgbW9kaWZpZWQgdGhlIGZpbGUgY29udGVudHMubXNvZnR3YXJlQWdlbnShZG5hbWVmQ2xhdWRlcmFsbEFjdGlvbnNJbmNsdWRlZPUAAADIanVtYgAAAEBqdW1kY2JvcgARABCAAACqADibcRNjMnBhLmhhc2guZGF0YQAAAAAYYzJzaMZHzujdxQheyPDmnXG9zxgAAACAY2JvcqVjYWxnZnNoYTI1NmNwYWRNAAAAAAAAAAAAAAAAAGRoYXNoWCC2LR58uyrLi3c6fbCryEQvlVl5IxWw8AhpiYk0If867mRuYW1lbmp1bWJmIG1hbmlmZXN0amV4Y2x1c2lvbnOBomVzdGFydBi6Zmxlbmd0aBkeBAAAAj5qdW1iAAAAJ2p1bWRjMmNsABEAEIAAAKoAOJtxA2MycGEuY2xhaW0udjIAAAACD2Nib3KlY2FsZ2ZzaGEyNTZpc2lnbmF0dXJleE1zZWxmI2p1bWJmPS9jMnBhL3VybjpjMnBhOjFmN2MzMzAwLWJlYTMtNDg4My04MDI0LTA4YTFlMTBmOWJkMC9jMnBhLnNpZ25hdHVyZWppbnN0YW5jZUlEeCx4bXA6aWlkOjRhMjE2MmM4LWM5ODYtNDBmYy1iMTY0LTY0NmM5ZmNiYzdkN3JjcmVhdGVkX2Fzc2VydGlvbnODomN1cmx4LXNlbGYjanVtYmY9YzJwYS5hc3NlcnRpb25zL2MycGEuaW5ncmVkaWVudC52M2RoYXNoWCBgDY4Eldu9aZLGxq2mrAup6tcI19rRIch4FWgX7KboqKJjdXJseCpzZWxmI2p1bWJmPWMycGEuYXNzZXJ0aW9ucy9jMnBhLmFjdGlvbnMudjJkaGFzaFgg/B2ML0JWNzyE0Tg7TL1OD5MsULKtph0CrBgRwB24gN2iY3VybHgpc2VsZiNqdW1iZj1jMnBhLmFzc2VydGlvbnMvYzJwYS5oYXNoLmRhdGFkaGFzaFggPGRE15C488LNGNRD7FLQdjWY5pMTo08j7LKRW61LAJF0Y2xhaW1fZ2VuZXJhdG9yX2luZm+jZG5hbWVvQW50aHJvcGljIEZpbGVzZ3ZlcnNpb25lMS4wLjBrc3BlY1ZlcnNpb25lMi40LjAAABA4anVtYgAAAChqdW1kYzJjcwARABCAAACqADibcQNjMnBhLnNpZ25hdHVyZQAAABAIY2JvctKEWQISogEmGCFZAgowggIGMIIBjaADAgECAhRA5aAK7sI50L64g/oGQgU9Z1UTADAKBggqhkjOPQQDAzBJMRcwFQYDVQQKEw5BbnRocm9waWMsIFBCQzEuMCwGA1UEAxMlQW50aHJvcGljIENvbnRlbnQgQ3JlZGVudGlhbHMgUm9vdCBDQTAeFw0yNjA4MDcxODQzNTZaFw0yODA4MDYxOTQzNTZaMEQxFzAVBgNVBAoTDkFudGhyb3BpYywgUEJDMSkwJwYDVQQDEyBBbnRocm9waWMgQ2xhdWRlIENvbnRlbnQgU2lnbmluZzBZMBMGByqGSM49AgEGCCqGSM49AwEHA0IABJh6CmvLUBgFFNU0vUKlOVtE6djd17L5SuwX0LemFisBM3dkd/3cyjxFA3Qo5S46fX0/ihY0VZ7mfb9KF703t5OjWDBWMA4GA1UdDwEB/wQEAwIHgDAVBgNVHSUEDjAMBgorBgEEAYPoXgIBMAwGA1UdEwEB/wQCMAAwHwYDVR0jBBgwFoAUzlHiBIFOZFsj+OPEz5o+nMHXXMIwCgYIKoZIzj0EAwMDZwAwZAIwMXMdFJ4BetLLVY7ORuE9noqbbAZOZn/aArXyTwFAZfKrPzxF2vPoJNf1+UCdg1XGAjBwX1zd9WGqYkqmL5SFqw1QySjr1zJfpJM9+1rdDwSPLMOPOjKuiXjoU/pUUeG9RwmhY3BhZFkNngAAAAAAAAAAAAAAAAAAAAAAAAAAAAAAAAAAAAAAAAAAAAAAAAAAAAAAAAAAAAAAAAAAAAAAAAAAAAAAAAAAAAAAAAAAAAAAAAAAAAAAAAAAAAAAAAAAAAAAAAAAAAAAAAAAAAAAAAAAAAAAAAAAAAAAAAAAAAAAAAAAAAAAAAAAAAAAAAAAAAAAAAAAAAAAAAAAAAAAAAAAAAAAAAAAAAAAAAAAAAAAAAAAAAAAAAAAAAAAAAAAAAAAAAAAAAAAAAAAAAAAAAAAAAAAAAAAAAAAAAAAAAAAAAAAAAAAAAAAAAAAAAAAAAAAAAAAAAAAAAAAAAAAAAAAAAAAAAAAAAAAAAAAAAAAAAAAAAAAAAAAAAAAAAAAAAAAAAAAAAAAAAAAAAAAAAAAAAAAAAAAAAAAAAAAAAAAAAAAAAAAAAAAAAAAAAAAAAAAAAAAAAAAAAAAAAAAAAAAAAAAAAAAAAAAAAAAAAAAAAAAAAAAAAAAAAAAAAAAAAAAAAAAAAAAAAAAAAAAAAAAAAAAAAAAAAAAAAAAAAAAAAAAAAAAAAAAAAAAAAAAAAAAAAAAAAAAAAAAAAAAAAAAAAAAAAAAAAAAAAAAAAAAAAAAAAAAAAAAAAAAAAAAAAAAAAAAAAAAAAAAAAAAAAAAAAAAAAAAAAAAAAAAAAAAAAAAAAAAAAAAAAAAAAAAAAAAAAAAAAAAAAAAAAAAAAAAAAAAAAAAAAAAAAAAAAAAAAAAAAAAAAAAAAAAAAAAAAAAAAAAAAAAAAAAAAAAAAAAAAAAAAAAAAAAAAAAAAAAAAAAAAAAAAAAAAAAAAAAAAAAAAAAAAAAAAAAAAAAAAAAAAAAAAAAAAAAAAAAAAAAAAAAAAAAAAAAAAAAAAAAAAAAAAAAAAAAAAAAAAAAAAAAAAAAAAAAAAAAAAAAAAAAAAAAAAAAAAAAAAAAAAAAAAAAAAAAAAAAAAAAAAAAAAAAAAAAAAAAAAAAAAAAAAAAAAAAAAAAAAAAAAAAAAAAAAAAAAAAAAAAAAAAAAAAAAAAAAAAAAAAAAAAAAAAAAAAAAAAAAAAAAAAAAAAAAAAAAAAAAAAAAAAAAAAAAAAAAAAAAAAAAAAAAAAAAAAAAAAAAAAAAAAAAAAAAAAAAAAAAAAAAAAAAAAAAAAAAAAAAAAAAAAAAAAAAAAAAAAAAAAAAAAAAAAAAAAAAAAAAAAAAAAAAAAAAAAAAAAAAAAAAAAAAAAAAAAAAAAAAAAAAAAAAAAAAAAAAAAAAAAAAAAAAAAAAAAAAAAAAAAAAAAAAAAAAAAAAAAAAAAAAAAAAAAAAAAAAAAAAAAAAAAAAAAAAAAAAAAAAAAAAAAAAAAAAAAAAAAAAAAAAAAAAAAAAAAAAAAAAAAAAAAAAAAAAAAAAAAAAAAAAAAAAAAAAAAAAAAAAAAAAAAAAAAAAAAAAAAAAAAAAAAAAAAAAAAAAAAAAAAAAAAAAAAAAAAAAAAAAAAAAAAAAAAAAAAAAAAAAAAAAAAAAAAAAAAAAAAAAAAAAAAAAAAAAAAAAAAAAAAAAAAAAAAAAAAAAAAAAAAAAAAAAAAAAAAAAAAAAAAAAAAAAAAAAAAAAAAAAAAAAAAAAAAAAAAAAAAAAAAAAAAAAAAAAAAAAAAAAAAAAAAAAAAAAAAAAAAAAAAAAAAAAAAAAAAAAAAAAAAAAAAAAAAAAAAAAAAAAAAAAAAAAAAAAAAAAAAAAAAAAAAAAAAAAAAAAAAAAAAAAAAAAAAAAAAAAAAAAAAAAAAAAAAAAAAAAAAAAAAAAAAAAAAAAAAAAAAAAAAAAAAAAAAAAAAAAAAAAAAAAAAAAAAAAAAAAAAAAAAAAAAAAAAAAAAAAAAAAAAAAAAAAAAAAAAAAAAAAAAAAAAAAAAAAAAAAAAAAAAAAAAAAAAAAAAAAAAAAAAAAAAAAAAAAAAAAAAAAAAAAAAAAAAAAAAAAAAAAAAAAAAAAAAAAAAAAAAAAAAAAAAAAAAAAAAAAAAAAAAAAAAAAAAAAAAAAAAAAAAAAAAAAAAAAAAAAAAAAAAAAAAAAAAAAAAAAAAAAAAAAAAAAAAAAAAAAAAAAAAAAAAAAAAAAAAAAAAAAAAAAAAAAAAAAAAAAAAAAAAAAAAAAAAAAAAAAAAAAAAAAAAAAAAAAAAAAAAAAAAAAAAAAAAAAAAAAAAAAAAAAAAAAAAAAAAAAAAAAAAAAAAAAAAAAAAAAAAAAAAAAAAAAAAAAAAAAAAAAAAAAAAAAAAAAAAAAAAAAAAAAAAAAAAAAAAAAAAAAAAAAAAAAAAAAAAAAAAAAAAAAAAAAAAAAAAAAAAAAAAAAAAAAAAAAAAAAAAAAAAAAAAAAAAAAAAAAAAAAAAAAAAAAAAAAAAAAAAAAAAAAAAAAAAAAAAAAAAAAAAAAAAAAAAAAAAAAAAAAAAAAAAAAAAAAAAAAAAAAAAAAAAAAAAAAAAAAAAAAAAAAAAAAAAAAAAAAAAAAAAAAAAAAAAAAAAAAAAAAAAAAAAAAAAAAAAAAAAAAAAAAAAAAAAAAAAAAAAAAAAAAAAAAAAAAAAAAAAAAAAAAAAAAAAAAAAAAAAAAAAAAAAAAAAAAAAAAAAAAAAAAAAAAAAAAAAAAAAAAAAAAAAAAAAAAAAAAAAAAAAAAAAAAAAAAAAAAAAAAAAAAAAAAAAAAAAAAAAAAAAAAAAAAAAAAAAAAAAAAAAAAAAAAAAAAAAAAAAAAAAAAAAAAAAAAAAAAAAAAAAAAAAAAAAAAAAAAAAAAAAAAAAAAAAAAAAAAAAAAAAAAAAAAAAAAAAAAAAAAAAAAAAAAAAAAAAAAAAAAAAAAAAAAAAAAAAAAAAAAAAAAAAAAAAAAAAAAAAAAAAAAAAAAAAAAAAAAAAAAAAAAAAAAAAAAAAAAAAAAAAAAAAAAAAAAAAAAAAAAAAAAAAAAAAAAAAAAAAAAAAAAAAAAAAAAAAAAAAAAAAAAAAAAAAAAAAAAAAAAAAAAAAAAAAAAAAAAAAAAAAAAAAAAAAAAAAAAAAAAAAAAAAAAAAAAAAAAAAAAAAAAAAAAAAAAAAAAAAAAAAAAAAAAAAAAAAAAAAAAAAAAAAAAAAAAAAAAAAAAAAAAAAAAAAAAAAAAAAAAAAAAAAAAAAAAAAAAAAAAAAAAAAAAAAAAAAAAAAAAAAAAAAAAAAAAAAAAAAAAAAAAAAAAAAAAAAAAAAAAAAAAAAAAAAAAAAAAAAAAAAAAAAAAAAAAAAAAAAAAAAAAAAAAAAAAAAAAAAAAAAAAAAAAAAAAAAAAAAAAAAAAAAAAAAAAAAAAAAAAAAAAAAAAAAAAAAAAAAAAAAAAAAAAAAAAAAAAAAAAAAAAAAAAAAAAAAAAAAAAAAAAAAAAAAAAAAAAAAAAAAAAAAAAAAAAAAAAAAAAAAAAAAAAAAAAAAAAAAAAAAAAAAAAAAAAAAAAAAAAAAAAAAAAAAAAAAAAAAAAAAAAAAAAAAAAAAAAAAAAAAAAAAAAAAAAAAAAAAAAAAAAAAAAAAAAAAAAAAAAAAAAAAAAAAAAAAAAAAAAAAAAAAAAAAAAAAAAAAAAAAAAAAAAAAAAAAAAAAAAAAAAAAAAAAAAAAAAAAAAAAAAAAAAAAAAAAAAAAAAAAAAAAAAAAAAAAAAAAAAAAAAAAAAAAAAAAAAAAAAAAAAAAAAAAAAAAAAAAAAAAAAAAAAAAAAAAAAAAAAAAAAAAAAAAAAAAAAAAAAAAAAAAAAAAAAAAAAAAAAAAAAAAAAAAAAAAAAAAAAAAAAAAAAAAAAAAAAAAAAAAAAAAAAAAAAAAAAAAAAAAAAAAAAAAAAAAAAAAAAAAAAAAAAAAAAAAAAAAAAAAAAAAAAAAAAAAAAAAAAAAAAAAAAAAAAAAAAAAAAAAAAAAAAAAAAAAAAAAAAAAAAAAAAAAAAAAAAAAAAAAAAAAAAAAAAAAAAAAAAAAAAAAAAAAAAAAAAAAAAAAAAAAAAAAAAAAAAAAAAAAAAAAAAAAAAAAAAAAAAAAAAAAAAAAAAAAAAAAAAAAAAAAAAAAAAAAAAAAAAAAAAAAAAAAAAAAAAAAAAAAAAAAAAAAAAAAAAAAAAAAAAAAAAAAAAAAAAAAAAAAAAAAAAAAAAAAAAAAAAAAAAAAAAAAAAAAAAAAAAAAAAAAAAAAAAAAAAAAAAAAAAAAAAAAAAAAAAAAAAAAAAAAAAAAAAAAAAAAAAAAAAAAAAAAAAAAAAAAAAAAAAAAAAAAAAAAAAAAAAAAAAAAAAAAAAAAAAAAAAAAAAAAAAAAAAAAAAAAAAAAAAAAAAAAAAAAAAAAAAAAAAAAAAAAAAAAAAAAAAAAAAAAAAAAAAAAAAAAAAAAAAAAAAAAAAAAAAAAAAAAAAAAAAAAAAAAAAAAAAAAAAAAAAAAAAAAAAAAAAAAAAAAAAAAAAAAAAAAAAAAAAAAAAAAAAAAAAAAAAAAAAAAAAAAAAAAAAAAAAAAAAAAAAAAAAAAAAAAAAAAAAAAAAAAAAAAAAAAAAAAAAAAAAAAAAAAAAAAAAAAAAAAAAAAAAAAAAAAAAAAAAAAAAAAAAAAAAAAAAAAAAAAAAAAAAAAAAAAAAAAAAAAAAAAAAAAAAAAAAAAAAAAAAAAAAAAAAAAAAAAAAAAAAAAAAAAAAAAAAAAAAAAAPZYQIFfBzQOmq19x86iNGo+TXTvObJarH68zLGrs9LLItyiWYjW/a/F6/qq/qOFoB08KuBu+W2xHmHcaluVF7TKMM4=</c2pa:manifest></metadata>
<!-- Ilustração original Desu Burguer — desenho, não é foto do produto. -->
<defs><linearGradient id="g1" x1="0" y1="0" x2="0" y2="1"><stop offset="0" stop-color="#26201b"/><stop offset="1" stop-color="#110d0a"/></linearGradient><radialGradient id="r2" cx="0.5" cy="0.44" r="0.6"><stop offset="0" stop-color="#ffb703" stop-opacity="0.32"/><stop offset="0.5" stop-color="#ffb703" stop-opacity="0.1"/><stop offset="1" stop-color="#ffb703" stop-opacity="0"/></radialGradient><radialGradient id="r3" cx="0.5" cy="0.5" r="0.5"><stop offset="0" stop-color="#5a4636" stop-opacity="0.55"/><stop offset="0.6" stop-color="#3a2d23" stop-opacity="0.25"/><stop offset="1" stop-color="#3a2d23" stop-opacity="0"/></radialGradient><radialGradient id="r4" cx="0.5" cy="0.5" r="0.72"><stop offset="0.55" stop-color="#000" stop-opacity="0"/><stop offset="1" stop-color="#000" stop-opacity="0.6"/></radialGradient><filter id="f5" x="-60%" y="-60%" width="220%" height="220%"><feGaussianBlur stdDeviation="7"/></filter><filter id="f6" x="-60%" y="-60%" width="220%" height="220%"><feGaussianBlur stdDeviation="2.5"/></filter><clipPath id="c7"><path d="M-38,-12 V-134 C-38,-140 -31.5,-142 -31.5,-148 H31.5 C31.5,-142 38,-140 38,-134 V-12 C38,-8 36,-6.5 33,-5.5 A33 5.5 0 0 1 -33,-5.5 C-36,-6.5 -38,-8 -38,-12Z"/></clipPath><linearGradient id="g8" x1="0" y1="0" x2="0" y2="1"><stop offset="0" stop-color="#d4d6dc"/><stop offset="0.5" stop-color="#a4a7b0"/><stop offset="1" stop-color="#7d8089"/></linearGradient><linearGradient id="g9" x1="0" y1="0" x2="0" y2="1"><stop offset="0" stop-color="#3a3a41"/><stop offset="0.5" stop-color="#25252a"/><stop offset="1" stop-color="#18181b"/></linearGradient><linearGradient id="g10" x1="0" y1="0" x2="0" y2="1"><stop offset="0" stop-color="#ffd24a"/><stop offset="1" stop-color="#f29e00"/></linearGradient><linearGradient id="g11" x1="0" y1="0" x2="1" y2="0"><stop offset="0" stop-color="#000" stop-opacity="0.62"/><stop offset="0.05" stop-color="#000" stop-opacity="0.3"/><stop offset="0.14" stop-color="#fff" stop-opacity="0.04"/><stop offset="0.22" stop-color="#fff" stop-opacity="0.52"/><stop offset="0.27" stop-color="#fff" stop-opacity="0.14"/><stop offset="0.36" stop-color="#000" stop-opacity="0"/><stop offset="0.6" stop-color="#000" stop-opacity="0.16"/><stop offset="0.8" stop-color="#000" stop-opacity="0.4"/><stop offset="0.89" stop-color="#fff" stop-opacity="0.1"/><stop offset="0.94" stop-color="#ffe9c2" stop-opacity="0.34"/><stop offset="1" stop-color="#000" stop-opacity="0.55"/></linearGradient><filter id="f12" x="-60%" y="-60%" width="220%" height="220%"><feGaussianBlur stdDeviation="0.7"/></filter><filter id="f13" x="-60%" y="-60%" width="220%" height="220%"><feGaussianBlur stdDeviation="0.8"/></filter><linearGradient id="g14" x1="0" y1="0" x2="0" y2="1"><stop offset="0" stop-color="#dff2ff" stop-opacity="0"/><stop offset="0.5" stop-color="#dff2ff" stop-opacity="0.05"/><stop offset="1" stop-color="#dff2ff" stop-opacity="0.14"/></linearGradient><radialGradient id="r15" cx="0.45" cy="0.4" r="0.5"><stop offset="0" stop-color="#fff" stop-opacity="0.02"/><stop offset="0.55" stop-color="#fff" stop-opacity="0.1"/><stop offset="0.85" stop-color="#000" stop-opacity="0.18"/><stop offset="1" stop-color="#000" stop-opacity="0.4"/></radialGradient><linearGradient id="g16" x1="0" y1="0" x2="1" y2="0"><stop offset="0" stop-color="#8e9098"/><stop offset="0.35" stop-color="#f2f3f6"/><stop offset="0.7" stop-color="#c9cbd2"/><stop offset="1" stop-color="#7b7d85"/></linearGradient><linearGradient id="g17" x1="0" y1="0" x2="0" y2="1"><stop offset="0" stop-color="#6f7179"/><stop offset="0.45" stop-color="#b9bbc2"/><stop offset="1" stop-color="#e2e3e8"/></linearGradient><linearGradient id="g18" x1="0" y1="0" x2="0" y2="1"><stop offset="0" stop-color="#ffffff"/><stop offset="1" stop-color="#a7a9b1"/></linearGradient><filter id="f19" x="-60%" y="-60%" width="220%" height="220%"><feGaussianBlur stdDeviation="1.6"/></filter><filter id="f20" x="-60%" y="-60%" width="220%" height="220%"><feGaussianBlur stdDeviation="1"/></filter><clipPath id="c21"><path d="M-12.63,-5.89 C-11.72,-7.87 -4.33,-11.62 -1.75,-11.99 C0.82,-12.36 11.03,-11.41 12.3,-9.44 C13.58,-7.48 11.85,4.9 10.59,7.05 C9.34,9.2 2.33,11.35 0.14,11.36 C-2.04,11.37 -9.25,8.91 -10.57,7.13 C-11.89,5.35 -13.54,-3.92 -12.63,-5.89Z"/></clipPath><linearGradient id="g22" x1="0" y1="0" x2="1" y2="1"><stop offset="0" stop-color="#f2fbff" stop-opacity="0.62"/><stop offset="0.55" stop-color="#bfe4ff" stop-opacity="0.36"/><stop offset="1" stop-color="#7fbfee" stop-opacity="0.42"/></linearGradient><linearGradient id="g23" x1="0" y1="0" x2="1" y2="1"><stop offset="0" stop-color="#fff" stop-opacity="0.75"/><stop offset="1" stop-color="#fff" stop-opacity="0.35"/></linearGradient><linearGradient id="g24" x1="0" y1="0" x2="1" y2="1"><stop offset="0" stop-color="#fff" stop-opacity="0.32"/><stop offset="1" stop-color="#fff" stop-opacity="0.04"/></linearGradient><linearGradient id="g25" x1="0" y1="0" x2="1" y2="1"><stop offset="0" stop-color="#2a6fa8" stop-opacity="0.12"/><stop offset="1" stop-color="#164a7a" stop-opacity="0.38"/></linearGradient><filter id="f26" x="-60%" y="-60%" width="220%" height="220%"><feGaussianBlur stdDeviation="1.92"/></filter><filter id="f27" x="-60%" y="-60%" width="220%" height="220%"><feGaussianBlur stdDeviation="0.5"/></filter><clipPath id="c28"><path d="M-9.48,-5.21 C-8.7,-6.74 -3.1,-9.67 -1.27,-9.8 C0.56,-9.93 7.1,-8.03 8.22,-6.48 C9.34,-4.92 10.32,3.67 9.57,5.22 C8.83,6.77 2.91,8.52 1.02,8.5 C-0.88,8.48 -7.67,6.42 -8.75,5 C-9.84,3.58 -10.25,-3.69 -9.48,-5.21Z"/></clipPath><filter id="f29" x="-60%" y="-60%" width="220%" height="220%"><feGaussianBlur stdDeviation="1.44"/></filter><clipPath id="c30"><path d="M-10.24,-4.74 C-9.33,-6.32 -2.84,-9.6 -0.64,-9.78 C1.56,-9.96 9.98,-8.03 11,-6.46 C12.03,-4.9 10.28,3.6 9.3,5.39 C8.33,7.17 3.5,10.8 1.56,10.81 C-0.38,10.82 -8.23,7.1 -9.45,5.49 C-10.67,3.88 -11.15,-3.16 -10.24,-4.74Z"/></clipPath><filter id="f31" x="-60%" y="-60%" width="220%" height="220%"><feGaussianBlur stdDeviation="1.68"/></filter></defs>
<rect width="400" height="300" fill="url(#g1)"/><rect width="400" height="300" fill="url(#r2)"/><ellipse cx="200" cy="258" rx="230" ry="52" fill="url(#r3)"/><rect width="400" height="300" fill="url(#r4)"/><ellipse cx="204" cy="251" rx="52.5" ry="12" fill="#000" opacity="0.5" filter="url(#f5)"/><ellipse cx="204" cy="250" rx="41" ry="4.4" fill="#000" opacity="0.55" filter="url(#f6)"/><g transform="translate(200,252) scale(1.12)"><path d="M-38,-12 V-134 C-38,-140 -31.5,-142 -31.5,-148 H31.5 C31.5,-142 38,-140 38,-134 V-12 C38,-8 36,-6.5 33,-5.5 A33 5.5 0 0 1 -33,-5.5 C-36,-6.5 -38,-8 -38,-12Z" fill="url(#g8)"/><g clip-path="url(#c7)"><path d="M-38,-133 C-38,-140 -31.5,-142 -31.5,-148 H31.5 C31.5,-142 38,-140 38,-133Z" fill="#fff" opacity=".22"/><path d="M-39,-133 A39 5.46 0 0 0 39,-133 L39,-14 A39 5.46 0 0 1 -39,-14 Z" fill="url(#g9)"/><path d="M-39,-80 A39 5.46 0 0 0 39,-80 L39,-42 A39 5.46 0 0 1 -39,-42 Z" fill="url(#g10)"/><path d="M-39,-86 A39 5.46 0 0 0 39,-86" fill="none" stroke="#ffb703" stroke-width="2.4"/><path d="M-39,-36 A39 5.46 0 0 0 39,-36" fill="none" stroke="#ffb703" stroke-width="1.8"/><path d="M-39,-31 A39 5.46 0 0 0 39,-31" fill="none" stroke="#ffb703" stroke-width="1"/><g fill="none" stroke="#ffb703" stroke-opacity=".85" stroke-width="1.2"><circle cx="-26.84" cy="-91.52" r="3.94"/><circle cx="-24.39" cy="-104.44" r="3.29"/><circle cx="-27" cy="-115.25" r="2.38"/><circle cx="-29.57" cy="-123.14" r="1.91"/><circle cx="-13.79" cy="-93.12" r="4.48"/><circle cx="-13.33" cy="-105.81" r="2.76"/><circle cx="-10.62" cy="-113.82" r="2.67"/><circle cx="-8.59" cy="-121.7" r="1.95"/><circle cx="16.44" cy="-90.24" r="3.91"/><circle cx="13.02" cy="-102.95" r="3.68"/><circle cx="14.4" cy="-113.19" r="2.72"/><circle cx="17.69" cy="-122.88" r="1.33"/><circle cx="32" cy="-90.5" r="4.55"/><circle cx="27.43" cy="-104.94" r="2.73"/><circle cx="26.75" cy="-113.4" r="2.6"/><circle cx="29.01" cy="-122.44" r="1.42"/></g><circle cx="0" cy="-59.5" r="18.6" fill="#232327"/><circle cx="0" cy="-59.5" r="15.5" fill="#ffb703"/><circle cx="0" cy="-59.5" r="14" fill="none" stroke="#000" stroke-opacity=".15" stroke-width="1"/><text x="0" y="-53.92" font-family="Arial, Helvetica, sans-serif" font-size="16.28" font-weight="900" text-anchor="middle" fill="#232327">D</text><path d="M-38,-12 V-134 C-38,-140 -31.5,-142 -31.5,-148 H31.5 C31.5,-142 38,-140 38,-134 V-12 C38,-8 36,-6.5 33,-5.5 A33 5.5 0 0 1 -33,-5.5 C-36,-6.5 -38,-8 -38,-12Z" fill="url(#g11)"/><rect x="-22.8" y="-142" width="3.2" height="130" fill="#fff" opacity=".8" filter="url(#f12)"/><rect x="-15.200000000000001" y="-134" width="1.2" height="118" fill="#fff" opacity=".3"/><rect x="28.12" y="-138" width="2.6" height="126" fill="#ffe9c2" opacity=".5" filter="url(#f13)"/><path d="M-38,-12 V-134 C-38,-140 -31.5,-142 -31.5,-148 H31.5 C31.5,-142 38,-140 38,-134 V-12 C38,-8 36,-6.5 33,-5.5 A33 5.5 0 0 1 -33,-5.5 C-36,-6.5 -38,-8 -38,-12Z" fill="url(#g14)"/><g fill="url(#r15)"><circle cx="14.02" cy="-127.53" r="0.91"/><circle cx="-2.68" cy="-115.3" r="0.85"/><circle cx="20.93" cy="-54.09" r="1.78"/><circle cx="-0.12" cy="-79.43" r="1.9"/><circle cx="-4.83" cy="-129.78" r="1.72"/><circle cx="25.17" cy="-88.8" r="2.45"/><circle cx="18.24" cy="-68.55" r="2.35"/><circle cx="-23.13" cy="-81.65" r="2.51"/><circle cx="22.88" cy="-33.3" r="1.84"/><circle cx="-28.88" cy="-88.4" r="1.27"/><circle cx="-0.29" cy="-72.56" r="1.03"/><circle cx="6.95" cy="-42.41" r="2.18"/><circle cx="31.57" cy="-124.9" r="1.08"/><circle cx="-14.56" cy="-34.66" r="0.81"/><circle cx="1.59" cy="-28.9" r="2.06"/><circle cx="25.41" cy="-120.05" r="1.02"/><circle cx="30.92" cy="-64.21" r="1.92"/><circle cx="-29" cy="-53.21" r="1.16"/><circle cx="-12.05" cy="-27.73" r="1.57"/><circle cx="24.89" cy="-112.65" r="0.83"/><circle cx="-32.14" cy="-41.42" r="1.48"/><circle cx="-9.43" cy="-63.4" r="1.39"/><circle cx="7.46" cy="-110.42" r="1.27"/><circle cx="3.71" cy="-19.58" r="1.04"/><circle cx="32.52" cy="-41.62" r="1.84"/><circle cx="-26.64" cy="-122.3" r="2.05"/><circle cx="-33.01" cy="-80.6" r="1.16"/><circle cx="28.83" cy="-131.71" r="0.88"/><circle cx="-26.84" cy="-18.71" r="1.28"/><circle cx="27.51" cy="-27.16" r="2.06"/><circle cx="15.52" cy="-92.83" r="1.29"/><circle cx="31.24" cy="-74.22" r="1.97"/><circle cx="31.19" cy="-108.09" r="0.93"/><circle cx="13.22" cy="-85.06" r="2.07"/><circle cx="-17.12" cy="-65.23" r="1.06"/><circle cx="-10.93" cy="-94.03" r="1.2"/><circle cx="-23.02" cy="-110.45" r="2.11"/><circle cx="14.73" cy="-36.03" r="1.66"/><circle cx="12.12" cy="-20.06" r="1.95"/><circle cx="-19.86" cy="-20.78" r="1.31"/><circle cx="34.98" cy="-87.48" r="2"/><circle cx="-2.98" cy="-105.92" r="1.34"/></g><g fill="none" stroke="#fff" stroke-opacity=".45" stroke-linecap="round"><path d="M20.04,-53.29 Q20.93,-52.57 21.91,-53.55" stroke-width="0.5"/><path d="M-1.08,-78.57 Q-0.12,-77.81 0.92,-78.86" stroke-width="0.53"/><path d="M-5.69,-129 Q-4.83,-128.32 -3.88,-129.26" stroke-width="0.48"/><path d="M23.94,-87.7 Q25.17,-86.73 26.51,-88.07" stroke-width="0.68"/><path d="M17.06,-67.49 Q18.24,-66.55 19.53,-67.84" stroke-width="0.66"/><path d="M-24.39,-80.52 Q-23.13,-79.51 -21.75,-80.89" stroke-width="0.7"/><path d="M21.96,-32.47 Q22.88,-31.73 23.89,-32.75" stroke-width="0.52"/><path d="M5.86,-41.43 Q6.95,-40.56 8.14,-41.76" stroke-width="0.61"/><path d="M0.56,-27.98 Q1.59,-27.15 2.72,-28.29" stroke-width="0.58"/><path d="M29.96,-63.35 Q30.92,-62.58 31.97,-63.64" stroke-width="0.54"/><path d="M-12.84,-27.02 Q-12.05,-26.4 -11.19,-27.26" stroke-width="0.44"/><path d="M-32.88,-40.75 Q-32.14,-40.16 -31.33,-40.98" stroke-width="0.41"/><path d="M-10.12,-62.77 Q-9.43,-62.21 -8.66,-62.98" stroke-width="0.39"/><path d="M31.6,-40.79 Q32.52,-40.06 33.53,-41.07" stroke-width="0.51"/><path d="M-27.66,-121.38 Q-26.64,-120.56 -25.51,-121.68" stroke-width="0.57"/><path d="M26.48,-26.23 Q27.51,-25.41 28.64,-26.54" stroke-width="0.58"/><path d="M30.26,-73.33 Q31.24,-72.55 32.32,-73.63" stroke-width="0.55"/><path d="M12.19,-84.13 Q13.22,-83.3 14.36,-84.44" stroke-width="0.58"/><path d="M-24.07,-109.5 Q-23.02,-108.65 -21.85,-109.81" stroke-width="0.59"/><path d="M13.9,-35.28 Q14.73,-34.62 15.64,-35.53" stroke-width="0.46"/><path d="M11.14,-19.18 Q12.12,-18.4 13.19,-19.47" stroke-width="0.55"/><path d="M-20.52,-20.19 Q-19.86,-19.66 -19.14,-20.38" stroke-width="0.37"/><path d="M33.97,-86.58 Q34.98,-85.78 36.08,-86.88" stroke-width="0.56"/><path d="M-3.65,-105.31 Q-2.98,-104.78 -2.24,-105.51" stroke-width="0.37"/></g><g fill="#fff" opacity=".9"><circle cx="13.7" cy="-127.87" r="0.35"/><circle cx="-2.97" cy="-115.63" r="0.35"/><circle cx="20.3" cy="-54.77" r="0.53"/><circle cx="-0.79" cy="-80.15" r="0.57"/><circle cx="-5.43" cy="-130.43" r="0.52"/><circle cx="24.31" cy="-89.73" r="0.73"/><circle cx="17.42" cy="-69.44" r="0.7"/><circle cx="-24.01" cy="-82.6" r="0.75"/><circle cx="22.23" cy="-34" r="0.55"/><circle cx="-29.33" cy="-88.88" r="0.38"/><circle cx="-0.65" cy="-72.95" r="0.35"/><circle cx="6.18" cy="-43.24" r="0.65"/><circle cx="31.19" cy="-125.31" r="0.35"/><circle cx="-14.85" cy="-34.97" r="0.35"/><circle cx="0.87" cy="-29.69" r="0.62"/><circle cx="25.05" cy="-120.44" r="0.35"/><circle cx="30.25" cy="-64.94" r="0.58"/><circle cx="-29.4" cy="-53.65" r="0.35"/><circle cx="-12.6" cy="-28.32" r="0.47"/><circle cx="24.6" cy="-112.96" r="0.35"/><circle cx="-32.66" cy="-41.98" r="0.44"/><circle cx="-9.91" cy="-63.93" r="0.42"/><circle cx="7.02" cy="-110.91" r="0.38"/><circle cx="3.35" cy="-19.97" r="0.35"/><circle cx="31.88" cy="-42.32" r="0.55"/><circle cx="-27.35" cy="-123.07" r="0.61"/><circle cx="-33.41" cy="-81.04" r="0.35"/><circle cx="28.52" cy="-132.04" r="0.35"/><circle cx="-27.29" cy="-19.2" r="0.38"/><circle cx="26.79" cy="-27.94" r="0.62"/><circle cx="15.07" cy="-93.32" r="0.39"/><circle cx="30.56" cy="-74.97" r="0.59"/><circle cx="30.86" cy="-108.45" r="0.35"/><circle cx="12.5" cy="-85.84" r="0.62"/><circle cx="-17.49" cy="-65.63" r="0.35"/><circle cx="-11.35" cy="-94.48" r="0.36"/><circle cx="-23.76" cy="-111.25" r="0.63"/><circle cx="14.15" cy="-36.65" r="0.5"/><circle cx="11.44" cy="-20.8" r="0.59"/><circle cx="-20.33" cy="-21.28" r="0.39"/><circle cx="34.28" cy="-88.24" r="0.6"/><circle cx="-3.45" cy="-106.42" r="0.4"/></g><path d="M15.52,-92.83 q-0.38,10.86 1.39,21.73" fill="none" stroke="#fff" stroke-opacity=".22" stroke-width="1.8" stroke-linecap="round"/><circle cx="15.52" cy="-71.11" r="1.9" fill="url(#r15)"/><circle cx="14.92" cy="-71.81" r=".6" fill="#fff" opacity=".9"/><path d="M-10.93,-94.03 q0.1,7.92 -0.22,15.84" fill="none" stroke="#fff" stroke-opacity=".22" stroke-width="1.8" stroke-linecap="round"/><circle cx="-10.93" cy="-78.19" r="1.9" fill="url(#r15)"/><circle cx="-11.53" cy="-78.89" r=".6" fill="#fff" opacity=".9"/><path d="M28.83,-131.71 q0.15,8.11 -0.86,16.22" fill="none" stroke="#fff" stroke-opacity=".22" stroke-width="1.8" stroke-linecap="round"/><circle cx="28.83" cy="-115.49" r="1.9" fill="url(#r15)"/><circle cx="28.23" cy="-116.19" r=".6" fill="#fff" opacity=".9"/><path d="M-38,-133 A38 5.32 0 0 0 38,-133" fill="none" stroke="#fff" stroke-opacity=".5" stroke-width="1"/><path d="M-38,-12 A38 5.32 0 0 0 38,-12" fill="none" stroke="#000" stroke-opacity=".4" stroke-width="1.2"/><path d="M-38,-10.4 A38 5.32 0 0 0 38,-10.4" fill="none" stroke="#fff" stroke-opacity=".4" stroke-width=".8"/></g><ellipse cx="0" cy="-148" rx="32.1" ry="5.6" fill="url(#g16)"/><ellipse cx="0" cy="-147.2" rx="28.9" ry="4.1" fill="url(#g17)"/><path d="M-10,-145.4 q10,3.2 20,0 q-2.5,-3.2 -10,-3.2 q-7.5,0 -10,3.2Z" fill="#9c9ea6" stroke="#55575e" stroke-opacity=".6" stroke-width=".7"/><path d="M-6.5,-151.4 h13 a2.6,2.6 0 0 1 0,5.2 h-13 a2.6,2.6 0 0 1 0,-5.2Z" fill="url(#g18)" stroke="#6c6e75" stroke-opacity=".5" stroke-width=".5"/><ellipse cx="-1.5" cy="-148.8" rx="2.6" ry="1.1" fill="#5d5f66"/><circle cx="3.6" cy="-148.8" r="1.1" fill="#d9dbe0" stroke="#6c6e75" stroke-width=".4"/><path d="M-32.1,-148 A32.1 5.6 0 0 0 32.1,-148" fill="none" stroke="#fff" stroke-opacity=".85" stroke-width=".9"/><ellipse cx="-15.75" cy="-149.6" rx="7" ry="1.3" fill="#ffffff" opacity="0.8" filter="url(#f12)"/></g><ellipse cx="138" cy="257.5" rx="13.2" ry="2.64" fill="#000" opacity=".5" filter="url(#f19)"/><ellipse cx="137" cy="258.6" rx="18.72" ry="3.6" fill="#cfeaff" opacity=".1"/><path d="M119.2,258.8 q16.8,4.8 34.8,-.2" fill="none" stroke="#fff" stroke-opacity=".3" stroke-width=".8" stroke-linecap="round"/><ellipse cx="143.2" cy="258.2" rx="5.28" ry="1.2" fill="#bfe4ff" opacity=".35" filter="url(#f20)"/><g transform="translate(136,246) rotate(-10)"><path d="M-12.63,-5.89 C-11.72,-7.87 -4.33,-11.62 -1.75,-11.99 C0.82,-12.36 11.03,-11.41 12.3,-9.44 C13.58,-7.48 11.85,4.9 10.59,7.05 C9.34,9.2 2.33,11.35 0.14,11.36 C-2.04,11.37 -9.25,8.91 -10.57,7.13 C-11.89,5.35 -13.54,-3.92 -12.63,-5.89Z" fill="url(#g22)"/><g clip-path="url(#c21)"><path d="M-12.63,-5.89 L-1.75,-11.99 L12.3,-9.44 L0.89,-2.88Z" fill="url(#g23)"/><path d="M-12.63,-5.89 L0.89,-2.88 L0.14,11.36 L-10.57,7.13Z" fill="url(#g24)"/><path d="M0.89,-2.88 L12.3,-9.44 L10.59,7.05 L0.14,11.36Z" fill="url(#g25)"/><ellipse cx="-0.6" cy="1.44" rx="5.04" ry="3.6" fill="#fff" opacity=".42" filter="url(#f26)"/><path d="M0.14,11.36 L0.89,-2.88 L-12.63,-5.89 M0.89,-2.88 L12.3,-9.44" fill="none" stroke="#fff" stroke-opacity=".8" stroke-width="1.08" stroke-linejoin="round"/><path d="M10.59,7.05 L0.14,11.36 L-10.57,7.13" fill="none" stroke="#e6f6ff" stroke-opacity=".9" stroke-width="1.44" stroke-linejoin="round" filter="url(#f27)"/><circle cx="5.04" cy="2.16" r="1.08" fill="#fff" opacity=".7"/><circle cx="-4.8" cy="4.56" r="0.72" fill="#fff" opacity=".6"/></g><path d="M-12.63,-5.89 C-11.72,-7.87 -4.33,-11.62 -1.75,-11.99 C0.82,-12.36 11.03,-11.41 12.3,-9.44 C13.58,-7.48 11.85,4.9 10.59,7.05 C9.34,9.2 2.33,11.35 0.14,11.36 C-2.04,11.37 -9.25,8.91 -10.57,7.13 C-11.89,5.35 -13.54,-3.92 -12.63,-5.89Z" fill="none" stroke="#fff" stroke-opacity=".7" stroke-width="0.96"/><ellipse cx="-5.04" cy="-5.52" rx="3.6" ry="1.08" fill="#fff" transform="rotate(-27 -5.04 -5.52)"/><circle cx="7.44" cy="-6" r="0.84" fill="#fff"/></g><ellipse cx="161" cy="264.5" rx="9.9" ry="1.98" fill="#000" opacity=".5" filter="url(#f19)"/><ellipse cx="160" cy="265.6" rx="14.04" ry="2.7" fill="#cfeaff" opacity=".1"/><path d="M146.4,265.8 q12.6,3.6 26.1,-.2" fill="none" stroke="#fff" stroke-opacity=".3" stroke-width=".8" stroke-linecap="round"/><ellipse cx="164.4" cy="265.2" rx="3.96" ry="0.9" fill="#bfe4ff" opacity=".35" filter="url(#f20)"/><g transform="translate(159,256) rotate(14)"><path d="M-9.48,-5.21 C-8.7,-6.74 -3.1,-9.67 -1.27,-9.8 C0.56,-9.93 7.1,-8.03 8.22,-6.48 C9.34,-4.92 10.32,3.67 9.57,5.22 C8.83,6.77 2.91,8.52 1.02,8.5 C-0.88,8.48 -7.67,6.42 -8.75,5 C-9.84,3.58 -10.25,-3.69 -9.48,-5.21Z" fill="url(#g22)"/><g clip-path="url(#c28)"><path d="M-9.48,-5.21 L-1.27,-9.8 L8.22,-6.48 L-0.29,-2.16Z" fill="url(#g23)"/><path d="M-9.48,-5.21 L-0.29,-2.16 L1.02,8.5 L-8.75,5Z" fill="url(#g24)"/><path d="M-0.29,-2.16 L8.22,-6.48 L9.57,5.22 L1.02,8.5Z" fill="url(#g25)"/><ellipse cx="-0.45" cy="1.08" rx="3.78" ry="2.7" fill="#fff" opacity=".42" filter="url(#f29)"/><path d="M1.02,8.5 L-0.29,-2.16 L-9.48,-5.21 M-0.29,-2.16 L8.22,-6.48" fill="none" stroke="#fff" stroke-opacity=".8" stroke-width="0.81" stroke-linejoin="round"/><path d="M9.57,5.22 L1.02,8.5 L-8.75,5" fill="none" stroke="#e6f6ff" stroke-opacity=".9" stroke-width="1.08" stroke-linejoin="round" filter="url(#f27)"/><circle cx="3.78" cy="1.62" r="0.81" fill="#fff" opacity=".7"/><circle cx="-3.6" cy="3.42" r="0.54" fill="#fff" opacity=".6"/></g><path d="M-9.48,-5.21 C-8.7,-6.74 -3.1,-9.67 -1.27,-9.8 C0.56,-9.93 7.1,-8.03 8.22,-6.48 C9.34,-4.92 10.32,3.67 9.57,5.22 C8.83,6.77 2.91,8.52 1.02,8.5 C-0.88,8.48 -7.67,6.42 -8.75,5 C-9.84,3.58 -10.25,-3.69 -9.48,-5.21Z" fill="none" stroke="#fff" stroke-opacity=".7" stroke-width="0.72"/><ellipse cx="-3.78" cy="-4.14" rx="2.7" ry="0.81" fill="#fff" transform="rotate(-27 -3.78 -4.14)"/><circle cx="5.58" cy="-4.5" r="0.63" fill="#fff"/></g><ellipse cx="264" cy="259.5" rx="11.55" ry="2.31" fill="#000" opacity=".5" filter="url(#f19)"/><ellipse cx="263" cy="260.6" rx="16.38" ry="3.15" fill="#cfeaff" opacity=".1"/><path d="M247.3,260.8 q14.7,4.2 30.45,-.2" fill="none" stroke="#fff" stroke-opacity=".3" stroke-width=".8" stroke-linecap="round"/><ellipse cx="268.3" cy="260.2" rx="4.62" ry="1.05" fill="#bfe4ff" opacity=".35" filter="url(#f20)"/><g transform="translate(262,249.5) rotate(6)"><path d="M-10.24,-4.74 C-9.33,-6.32 -2.84,-9.6 -0.64,-9.78 C1.56,-9.96 9.98,-8.03 11,-6.46 C12.03,-4.9 10.28,3.6 9.3,5.39 C8.33,7.17 3.5,10.8 1.56,10.81 C-0.38,10.82 -8.23,7.1 -9.45,5.49 C-10.67,3.88 -11.15,-3.16 -10.24,-4.74Z" fill="url(#g22)"/><g clip-path="url(#c30)"><path d="M-10.24,-4.74 L-0.64,-9.78 L11,-6.46 L0.16,-2.52Z" fill="url(#g23)"/><path d="M-10.24,-4.74 L0.16,-2.52 L1.56,10.81 L-9.45,5.49Z" fill="url(#g24)"/><path d="M0.16,-2.52 L11,-6.46 L9.3,5.39 L1.56,10.81Z" fill="url(#g25)"/><ellipse cx="-0.53" cy="1.26" rx="4.41" ry="3.15" fill="#fff" opacity=".42" filter="url(#f31)"/><path d="M1.56,10.81 L0.16,-2.52 L-10.24,-4.74 M0.16,-2.52 L11,-6.46" fill="none" stroke="#fff" stroke-opacity=".8" stroke-width="0.94" stroke-linejoin="round"/><path d="M9.3,5.39 L1.56,10.81 L-9.45,5.49" fill="none" stroke="#e6f6ff" stroke-opacity=".9" stroke-width="1.26" stroke-linejoin="round" filter="url(#f27)"/><circle cx="4.41" cy="1.89" r="0.94" fill="#fff" opacity=".7"/><circle cx="-4.2" cy="3.99" r="0.63" fill="#fff" opacity=".6"/></g><path d="M-10.24,-4.74 C-9.33,-6.32 -2.84,-9.6 -0.64,-9.78 C1.56,-9.96 9.98,-8.03 11,-6.46 C12.03,-4.9 10.28,3.6 9.3,5.39 C8.33,7.17 3.5,10.8 1.56,10.81 C-0.38,10.82 -8.23,7.1 -9.45,5.49 C-10.67,3.88 -11.15,-3.16 -10.24,-4.74Z" fill="none" stroke="#fff" stroke-opacity=".7" stroke-width="0.84"/><ellipse cx="-4.41" cy="-4.83" rx="3.15" ry="0.94" fill="#fff" transform="rotate(-27 -4.41 -4.83)"/><circle cx="6.51" cy="-5.25" r="0.74" fill="#fff"/></g>
</svg>
